<svg width="1143" height="443" viewBox="0 0 1143 443" fill="none" xmlns="http://www.w3.org/2000/svg">
<g filter="url(#filter0_d_19_494)">
<g filter="url(#filter1_d_19_494)">
<path d="M144.458 225C137.789 224.837 131.77 223.658 126.402 221.462C121.115 219.185 116.52 216.135 112.616 212.312C108.793 208.408 105.825 203.894 103.71 198.77C101.677 193.646 100.66 188.156 100.66 182.3C100.66 176.444 101.677 170.954 103.71 165.83C105.825 160.706 108.793 156.233 112.616 152.41C116.52 148.506 121.115 145.415 126.402 143.138C131.77 140.861 137.789 139.681 144.458 139.6H156.536V152.41H144.824C140.513 152.491 136.569 153.305 132.99 154.85C129.411 156.314 126.28 158.388 123.596 161.072C120.993 163.756 118.96 166.928 117.496 170.588C116.032 174.167 115.3 178.071 115.3 182.3C115.3 186.529 116.032 190.474 117.496 194.134C118.96 197.713 120.993 200.844 123.596 203.528C126.28 206.212 129.411 208.327 132.99 209.872C136.569 211.336 140.513 212.068 144.824 212.068H156.536V225H144.458ZM199.281 226.464C192.855 226.464 187.162 225.041 182.201 222.194C177.239 219.266 173.295 215.362 170.367 210.482C167.52 205.521 166.097 199.99 166.097 193.89C166.097 187.79 167.52 182.3 170.367 177.42C173.295 172.459 177.239 168.555 182.201 165.708C187.162 162.78 192.855 161.316 199.281 161.316C205.625 161.316 211.277 162.78 216.239 165.708C221.2 168.555 225.104 172.418 227.951 177.298C230.879 182.178 232.343 187.709 232.343 193.89C232.343 199.99 230.879 205.521 227.951 210.482C225.104 215.362 221.2 219.266 216.239 222.194C211.277 225.041 205.625 226.464 199.281 226.464ZM199.281 214.508C203.103 214.508 206.438 213.613 209.285 211.824C212.131 209.953 214.327 207.473 215.873 204.382C217.418 201.291 218.191 197.794 218.191 193.89C218.191 190.067 217.418 186.611 215.873 183.52C214.327 180.348 212.131 177.867 209.285 176.078C206.438 174.207 203.103 173.272 199.281 173.272C195.377 173.272 192.001 174.207 189.155 176.078C186.389 177.867 184.193 180.307 182.567 183.398C181.021 186.489 180.249 189.986 180.249 193.89C180.249 197.713 181.021 201.21 182.567 204.382C184.193 207.473 186.389 209.953 189.155 211.824C192.001 213.613 195.377 214.508 199.281 214.508ZM245.403 225V213.044H275.415C276.879 213.044 278.139 212.719 279.197 212.068C280.335 211.417 281.189 210.563 281.759 209.506C282.409 208.449 282.735 207.351 282.735 206.212C282.735 204.911 282.45 203.772 281.881 202.796C281.311 201.82 280.498 201.047 279.441 200.478C278.383 199.827 277.163 199.502 275.781 199.502H263.581C259.595 199.502 256.057 198.851 252.967 197.55C249.876 196.249 247.436 194.256 245.647 191.572C243.857 188.807 242.963 185.35 242.963 181.202C242.963 177.867 243.776 174.817 245.403 172.052C247.111 169.287 249.388 167.05 252.235 165.342C255.081 163.634 258.294 162.78 261.873 162.78H290.787V174.736H263.215C261.344 174.736 259.799 175.346 258.579 176.566C257.359 177.705 256.749 179.128 256.749 180.836C256.749 182.463 257.359 183.886 258.579 185.106C259.799 186.326 261.425 186.936 263.459 186.936H275.293C279.766 186.936 283.589 187.627 286.761 189.01C289.933 190.393 292.332 192.467 293.959 195.232C295.667 197.997 296.521 201.495 296.521 205.724C296.521 209.14 295.667 212.353 293.959 215.362C292.251 218.29 289.892 220.649 286.883 222.438C283.955 224.146 280.62 225 276.879 225H245.403ZM310.459 225V187.79C310.459 182.991 311.598 178.599 313.875 174.614C316.152 170.547 319.446 167.335 323.757 164.976C328.068 162.536 333.232 161.316 339.251 161.316C342.179 161.316 344.985 161.682 347.669 162.414C350.353 163.146 352.834 164.325 355.111 165.952C357.47 167.497 359.462 169.449 361.089 171.808H361.211C362.838 169.449 364.79 167.497 367.067 165.952C369.426 164.325 371.947 163.146 374.631 162.414C377.396 161.682 380.243 161.316 383.171 161.316C389.271 161.316 394.436 162.536 398.665 164.976C402.976 167.335 406.27 170.547 408.547 174.614C410.824 178.599 411.963 182.991 411.963 187.79V225H398.055V187.79C398.055 185.106 397.364 182.666 395.981 180.47C394.68 178.274 392.931 176.525 390.735 175.224C388.539 173.923 386.018 173.272 383.171 173.272C380.406 173.272 377.884 173.923 375.607 175.224C373.33 176.525 371.5 178.274 370.117 180.47C368.816 182.666 368.165 185.106 368.165 187.79V225H354.257V187.79C354.257 185.106 353.566 182.666 352.183 180.47C350.8 178.274 348.97 176.525 346.693 175.224C344.497 173.923 342.016 173.272 339.251 173.272C336.486 173.272 333.964 173.923 331.687 175.224C329.491 176.525 327.702 178.274 326.319 180.47C325.018 182.666 324.367 185.106 324.367 187.79V225H310.459ZM458.412 226.464C451.986 226.464 446.293 225.041 441.332 222.194C436.37 219.266 432.426 215.362 429.498 210.482C426.651 205.521 425.228 199.99 425.228 193.89C425.228 187.79 426.651 182.3 429.498 177.42C432.426 172.459 436.37 168.555 441.332 165.708C446.293 162.78 451.986 161.316 458.412 161.316C464.756 161.316 470.408 162.78 475.37 165.708C480.331 168.555 484.235 172.418 487.082 177.298C490.01 182.178 491.474 187.709 491.474 193.89C491.474 199.99 490.01 205.521 487.082 210.482C484.235 215.362 480.331 219.266 475.37 222.194C470.408 225.041 464.756 226.464 458.412 226.464ZM458.412 214.508C462.234 214.508 465.569 213.613 468.416 211.824C471.262 209.953 473.458 207.473 475.004 204.382C476.549 201.291 477.322 197.794 477.322 193.89C477.322 190.067 476.549 186.611 475.004 183.52C473.458 180.348 471.262 177.867 468.416 176.078C465.569 174.207 462.234 173.272 458.412 173.272C454.508 173.272 451.132 174.207 448.286 176.078C445.52 177.867 443.324 180.307 441.698 183.398C440.152 186.489 439.38 189.986 439.38 193.89C439.38 197.713 440.152 201.21 441.698 204.382C443.324 207.473 445.52 209.953 448.286 211.824C451.132 213.613 454.508 214.508 458.412 214.508ZM543.817 225C537.148 224.837 531.129 223.658 525.761 221.462C520.475 219.185 515.879 216.135 511.975 212.312C508.153 208.408 505.184 203.894 503.069 198.77C501.036 193.646 500.019 188.156 500.019 182.3C500.019 176.444 501.036 170.954 503.069 165.83C505.184 160.706 508.153 156.233 511.975 152.41C515.879 148.506 520.475 145.415 525.761 143.138C531.129 140.861 537.148 139.681 543.817 139.6H555.895V152.41H544.183C539.873 152.491 535.928 153.305 532.349 154.85C528.771 156.314 525.639 158.388 522.955 161.072C520.353 163.756 518.319 166.928 516.855 170.588C515.391 174.167 514.659 178.071 514.659 182.3C514.659 186.529 515.391 190.474 516.855 194.134C518.319 197.713 520.353 200.844 522.955 203.528C525.639 206.212 528.771 208.327 532.349 209.872C535.928 211.336 539.873 212.068 544.183 212.068H555.895V225H543.817ZM594.248 226.464C588.311 226.464 583.187 225 578.876 222.072C574.566 219.144 571.231 215.24 568.872 210.36C566.595 205.399 565.456 199.949 565.456 194.012C565.456 187.831 566.758 182.3 569.36 177.42C572.044 172.459 575.826 168.555 580.706 165.708C585.668 162.78 591.564 161.316 598.396 161.316C605.147 161.316 610.881 162.78 615.598 165.708C620.397 168.555 624.057 172.459 626.578 177.42C629.181 182.3 630.482 187.749 630.482 193.768V225H616.452V213.41H616.208C614.988 215.687 613.402 217.843 611.45 219.876C609.498 221.828 607.099 223.414 604.252 224.634C601.406 225.854 598.071 226.464 594.248 226.464ZM598.03 214.508C601.69 214.508 604.862 213.613 607.546 211.824C610.312 209.953 612.467 207.473 614.012 204.382C615.558 201.21 616.29 197.672 616.208 193.768C616.208 189.864 615.476 186.407 614.012 183.398C612.548 180.307 610.474 177.867 607.79 176.078C605.106 174.207 601.894 173.272 598.152 173.272C594.248 173.272 590.914 174.207 588.148 176.078C585.383 177.867 583.268 180.307 581.804 183.398C580.34 186.489 579.608 189.986 579.608 193.89C579.608 197.713 580.34 201.21 581.804 204.382C583.268 207.473 585.342 209.953 588.026 211.824C590.792 213.613 594.126 214.508 598.03 214.508ZM651.174 225V174.736H640.316V162.78H651.174V153.63C651.174 148.099 652.719 143.789 655.81 140.698C658.982 137.526 663.333 135.94 668.864 135.94H685.456V147.896H671.426C669.555 147.896 668.05 148.465 666.912 149.604C665.773 150.743 665.204 152.288 665.204 154.24V162.78H682.894V174.736H665.204V225H651.174ZM722.828 225C715.833 225 709.692 223.699 704.406 221.096C699.2 218.412 695.134 214.752 692.206 210.116C689.278 205.399 687.814 199.99 687.814 193.89C687.814 187.465 689.115 181.812 691.718 176.932C694.32 172.052 697.899 168.229 702.454 165.464C707.008 162.699 712.254 161.316 718.192 161.316C724.861 161.316 730.351 162.739 734.662 165.586C738.972 168.433 742.144 172.255 744.178 177.054C746.292 181.853 747.35 187.221 747.35 193.158C747.35 193.971 747.309 194.907 747.228 195.964C747.146 197.021 747.024 197.835 746.862 198.404H702.698C703.186 201.657 704.365 204.382 706.236 206.578C708.106 208.693 710.465 210.319 713.312 211.458C716.158 212.515 719.33 213.044 722.828 213.044H739.542V225H722.828ZM702.576 188.888H733.32C733.238 187.343 732.994 185.797 732.588 184.252C732.262 182.707 731.693 181.243 730.88 179.86C730.148 178.477 729.172 177.298 727.952 176.322C726.813 175.265 725.43 174.451 723.804 173.882C722.177 173.231 720.306 172.906 718.192 172.906C715.752 172.906 713.596 173.394 711.726 174.37C709.855 175.265 708.269 176.485 706.968 178.03C705.666 179.494 704.65 181.202 703.918 183.154C703.267 185.025 702.82 186.936 702.576 188.888ZM712.58 154.606L723.316 139.6H736.492L725.756 154.606H712.58Z" fill="white"/>
</g>
<g filter="url(#filter2_d_19_494)">
<path d="M227.139 279.481C225.19 279.481 223.463 279.062 221.959 278.223C220.454 277.36 219.27 276.151 218.407 274.597C217.543 273.043 217.112 271.193 217.112 269.047V253.1H219.776V269.417C219.776 270.823 220.072 272.106 220.664 273.265C221.28 274.4 222.131 275.325 223.217 276.04C224.327 276.731 225.634 277.076 227.139 277.076C228.668 277.076 229.975 276.731 231.061 276.04C232.171 275.349 233.022 274.424 233.614 273.265C234.206 272.106 234.502 270.823 234.502 269.417V253.1H237.166V269.047C237.166 271.193 236.734 273.043 235.871 274.597C235.007 276.151 233.823 277.36 232.319 278.223C230.814 279.062 229.087 279.481 227.139 279.481ZM242.874 279V267.604C242.874 266.149 243.195 264.829 243.836 263.645C244.502 262.436 245.44 261.474 246.648 260.759C247.857 260.044 249.3 259.686 250.977 259.686C251.841 259.686 252.716 259.822 253.604 260.093C254.517 260.34 255.356 260.784 256.12 261.425C256.91 262.042 257.526 262.905 257.97 264.015H258.007C258.451 262.905 259.068 262.042 259.857 261.425C260.647 260.784 261.498 260.34 262.41 260.093C263.323 259.822 264.199 259.686 265.037 259.686C266.739 259.686 268.195 260.044 269.403 260.759C270.612 261.474 271.537 262.436 272.178 263.645C272.82 264.829 273.14 266.149 273.14 267.604V279H270.587V267.604C270.587 266.494 270.341 265.52 269.847 264.681C269.354 263.842 268.688 263.176 267.849 262.683C267.035 262.165 266.098 261.906 265.037 261.906C263.952 261.906 262.978 262.165 262.114 262.683C261.251 263.176 260.56 263.855 260.042 264.718C259.549 265.581 259.302 266.543 259.302 267.604V279H256.712V267.604C256.712 266.543 256.453 265.581 255.935 264.718C255.417 263.855 254.727 263.176 253.863 262.683C253.025 262.165 252.063 261.906 250.977 261.906C249.941 261.906 248.992 262.165 248.128 262.683C247.29 263.176 246.624 263.842 246.13 264.681C245.662 265.52 245.427 266.494 245.427 267.604V279H242.874ZM297.24 279.481C295.661 279.481 294.218 279.148 292.911 278.482C291.603 277.791 290.555 276.817 289.766 275.559C289.001 274.301 288.619 272.821 288.619 271.119V260.13H291.209V271.008C291.209 272.315 291.492 273.438 292.06 274.375C292.652 275.312 293.404 276.028 294.317 276.521C295.229 276.99 296.204 277.224 297.24 277.224C298.3 277.224 299.287 276.977 300.2 276.484C301.137 275.991 301.889 275.288 302.457 274.375C303.024 273.438 303.308 272.315 303.308 271.008V260.13H305.898V271.119C305.898 272.821 305.503 274.301 304.714 275.559C303.949 276.817 302.913 277.791 301.606 278.482C300.323 279.148 298.868 279.481 297.24 279.481ZM311.599 279V268.011C311.599 266.284 311.981 264.804 312.746 263.571C313.535 262.313 314.584 261.351 315.891 260.685C317.198 259.994 318.641 259.649 320.22 259.649C321.823 259.649 323.266 259.994 324.549 260.685C325.856 261.351 326.892 262.313 327.657 263.571C328.446 264.804 328.841 266.284 328.841 268.011V279H326.251V268.122C326.251 266.815 325.967 265.705 325.4 264.792C324.833 263.855 324.08 263.139 323.143 262.646C322.23 262.153 321.244 261.906 320.183 261.906C319.147 261.906 318.173 262.153 317.26 262.646C316.347 263.115 315.607 263.818 315.04 264.755C314.473 265.668 314.189 266.79 314.189 268.122V279H311.599ZM334.543 279V260.13H337.133V279H334.543ZM335.838 256.726C335.345 256.726 334.913 256.541 334.543 256.171C334.173 255.801 333.988 255.369 333.988 254.876C333.988 254.358 334.173 253.926 334.543 253.581C334.913 253.211 335.345 253.026 335.838 253.026C336.356 253.026 336.788 253.211 337.133 253.581C337.503 253.926 337.688 254.358 337.688 254.876C337.688 255.369 337.503 255.801 337.133 256.171C336.788 256.541 336.356 256.726 335.838 256.726ZM350.662 279.444C349.922 279.444 349.268 279.234 348.701 278.815C348.158 278.371 347.714 277.73 347.369 276.891L340.894 260.167H343.78L349.737 276.003C349.885 276.324 350.033 276.558 350.181 276.706C350.329 276.854 350.501 276.928 350.699 276.928C350.871 276.928 351.019 276.854 351.143 276.706C351.291 276.558 351.426 276.324 351.55 276.003L357.581 260.167H360.43L353.881 276.928C353.56 277.767 353.116 278.396 352.549 278.815C352.006 279.234 351.377 279.444 350.662 279.444ZM373.069 279C371.046 279 369.233 278.63 367.63 277.89C366.051 277.125 364.793 276.04 363.856 274.634C362.943 273.228 362.487 271.538 362.487 269.565C362.487 267.74 362.857 266.087 363.597 264.607C364.337 263.102 365.373 261.906 366.705 261.018C368.061 260.13 369.64 259.686 371.441 259.686C373.291 259.686 374.857 260.093 376.14 260.907C377.422 261.721 378.397 262.819 379.063 264.2C379.729 265.581 380.062 267.135 380.062 268.862C380.062 269.109 380.049 269.38 380.025 269.676C380 269.972 379.963 270.231 379.914 270.453H365.225C365.299 271.834 365.693 272.994 366.409 273.931C367.124 274.868 368.049 275.571 369.184 276.04C370.343 276.509 371.589 276.743 372.921 276.743H377.694V279H373.069ZM365.225 268.603H377.435C377.435 268.11 377.385 267.567 377.287 266.975C377.188 266.358 377.003 265.754 376.732 265.162C376.485 264.57 376.127 264.027 375.659 263.534C375.215 263.041 374.635 262.646 373.92 262.35C373.229 262.029 372.378 261.869 371.367 261.869C370.429 261.869 369.578 262.066 368.814 262.461C368.049 262.856 367.408 263.386 366.89 264.052C366.372 264.693 365.965 265.409 365.669 266.198C365.397 266.987 365.249 267.789 365.225 268.603ZM384.622 279V265.495C384.622 263.818 385.09 262.51 386.028 261.573C386.99 260.611 388.309 260.13 389.987 260.13H393.243V262.387H390.505C389.419 262.387 388.593 262.683 388.026 263.275C387.483 263.867 387.212 264.706 387.212 265.791V279H384.622ZM396.176 279V276.743H405.056C405.821 276.743 406.462 276.583 406.98 276.262C407.498 275.941 407.893 275.522 408.164 275.004C408.46 274.486 408.608 273.956 408.608 273.413C408.608 272.87 408.485 272.377 408.238 271.933C407.992 271.464 407.634 271.082 407.165 270.786C406.697 270.49 406.105 270.342 405.389 270.342H401.43C400.222 270.342 399.173 270.145 398.285 269.75C397.422 269.331 396.756 268.739 396.287 267.974C395.843 267.209 395.621 266.321 395.621 265.31C395.621 264.397 395.843 263.546 396.287 262.757C396.731 261.968 397.36 261.339 398.174 260.87C398.988 260.377 399.938 260.13 401.023 260.13H409.57V262.387H401.282C400.32 262.387 399.568 262.683 399.025 263.275C398.483 263.842 398.211 264.496 398.211 265.236C398.211 265.951 398.483 266.593 399.025 267.16C399.568 267.727 400.382 268.011 401.467 268.011H405.167C406.499 268.011 407.609 268.233 408.497 268.677C409.41 269.121 410.088 269.738 410.532 270.527C411.001 271.316 411.235 272.241 411.235 273.302C411.235 274.264 410.989 275.189 410.495 276.077C410.002 276.94 409.324 277.643 408.46 278.186C407.622 278.729 406.635 279 405.5 279H396.176ZM424.72 279.481C422.821 279.481 421.131 279.049 419.651 278.186C418.171 277.298 417.012 276.102 416.173 274.597C415.335 273.092 414.915 271.415 414.915 269.565C414.915 267.715 415.335 266.038 416.173 264.533C417.012 263.028 418.171 261.844 419.651 260.981C421.131 260.093 422.821 259.649 424.72 259.649C426.62 259.649 428.297 260.093 429.752 260.981C431.232 261.844 432.392 263.028 433.23 264.533C434.094 266.013 434.525 267.69 434.525 269.565C434.525 271.415 434.094 273.092 433.23 274.597C432.392 276.102 431.232 277.298 429.752 278.186C428.297 279.049 426.62 279.481 424.72 279.481ZM424.72 277.224C426.126 277.224 427.372 276.891 428.457 276.225C429.543 275.534 430.381 274.609 430.973 273.45C431.59 272.291 431.898 270.996 431.898 269.565C431.898 268.134 431.59 266.839 430.973 265.68C430.381 264.521 429.543 263.608 428.457 262.942C427.372 262.251 426.126 261.906 424.72 261.906C423.29 261.906 422.032 262.251 420.946 262.942C419.886 263.608 419.047 264.521 418.43 265.68C417.838 266.839 417.542 268.134 417.542 269.565C417.542 270.996 417.838 272.291 418.43 273.45C419.047 274.609 419.886 275.534 420.946 276.225C422.032 276.891 423.29 277.224 424.72 277.224ZM457.596 279.481C456.289 279.481 455.043 279.259 453.859 278.815C452.7 278.346 451.676 277.68 450.788 276.817C449.925 275.954 449.246 274.905 448.753 273.672C448.26 272.414 448.013 270.996 448.013 269.417C448.013 267.394 448.432 265.668 449.271 264.237C450.11 262.782 451.22 261.659 452.601 260.87C454.007 260.081 455.561 259.686 457.263 259.686C458.299 259.686 459.286 259.871 460.223 260.241C461.16 260.611 461.999 261.129 462.739 261.795C463.479 262.436 464.059 263.176 464.478 264.015H464.552V251.99H467.142V269.602C467.142 271.699 466.71 273.487 465.847 274.967C464.984 276.447 463.824 277.569 462.369 278.334C460.938 279.099 459.347 279.481 457.596 279.481ZM457.633 277.224C458.866 277.224 460.001 276.928 461.037 276.336C462.098 275.744 462.936 274.881 463.553 273.746C464.194 272.611 464.515 271.23 464.515 269.602C464.515 267.974 464.194 266.593 463.553 265.458C462.912 264.323 462.061 263.46 461 262.868C459.964 262.251 458.817 261.943 457.559 261.943C456.326 261.943 455.179 262.251 454.118 262.868C453.082 263.485 452.243 264.373 451.602 265.532C450.961 266.667 450.64 268.011 450.64 269.565C450.64 271.168 450.961 272.55 451.602 273.709C452.243 274.844 453.094 275.719 454.155 276.336C455.24 276.928 456.4 277.224 457.633 277.224ZM482.334 279C480.312 279 478.499 278.63 476.895 277.89C475.317 277.125 474.059 276.04 473.121 274.634C472.209 273.228 471.752 271.538 471.752 269.565C471.752 267.74 472.122 266.087 472.862 264.607C473.602 263.102 474.638 261.906 475.97 261.018C477.327 260.13 478.906 259.686 480.706 259.686C482.556 259.686 484.123 260.093 485.405 260.907C486.688 261.721 487.662 262.819 488.328 264.2C488.994 265.581 489.327 267.135 489.327 268.862C489.327 269.109 489.315 269.38 489.29 269.676C489.266 269.972 489.229 270.231 489.179 270.453H474.49C474.564 271.834 474.959 272.994 475.674 273.931C476.39 274.868 477.315 275.571 478.449 276.04C479.609 276.509 480.854 276.743 482.186 276.743H486.959V279H482.334ZM474.49 268.603H486.7C486.7 268.11 486.651 267.567 486.552 266.975C486.454 266.358 486.269 265.754 485.997 265.162C485.751 264.57 485.393 264.027 484.924 263.534C484.48 263.041 483.901 262.646 483.185 262.35C482.495 262.029 481.644 261.869 480.632 261.869C479.695 261.869 478.844 262.066 478.079 262.461C477.315 262.856 476.673 263.386 476.155 264.052C475.637 264.693 475.23 265.409 474.934 266.198C474.663 266.987 474.515 267.789 474.49 268.603ZM503.346 279V276.743H512.226C512.991 276.743 513.632 276.583 514.15 276.262C514.668 275.941 515.063 275.522 515.334 275.004C515.63 274.486 515.778 273.956 515.778 273.413C515.778 272.87 515.655 272.377 515.408 271.933C515.162 271.464 514.804 271.082 514.335 270.786C513.867 270.49 513.275 270.342 512.559 270.342H508.6C507.392 270.342 506.343 270.145 505.455 269.75C504.592 269.331 503.926 268.739 503.457 267.974C503.013 267.209 502.791 266.321 502.791 265.31C502.791 264.397 503.013 263.546 503.457 262.757C503.901 261.968 504.53 261.339 505.344 260.87C506.158 260.377 507.108 260.13 508.193 260.13H516.74V262.387H508.452C507.49 262.387 506.738 262.683 506.195 263.275C505.653 263.842 505.381 264.496 505.381 265.236C505.381 265.951 505.653 266.593 506.195 267.16C506.738 267.727 507.552 268.011 508.637 268.011H512.337C513.669 268.011 514.779 268.233 515.667 268.677C516.58 269.121 517.258 269.738 517.702 270.527C518.171 271.316 518.405 272.241 518.405 273.302C518.405 274.264 518.159 275.189 517.665 276.077C517.172 276.94 516.494 277.643 515.63 278.186C514.792 278.729 513.805 279 512.67 279H503.346ZM531.15 279.481C529.251 279.481 527.623 279.037 526.266 278.149C524.91 277.261 523.874 276.077 523.158 274.597C522.443 273.092 522.085 271.415 522.085 269.565C522.085 267.69 522.48 266.013 523.269 264.533C524.059 263.028 525.181 261.844 526.636 260.981C528.116 260.118 529.868 259.686 531.89 259.686C533.839 259.686 535.516 260.118 536.922 260.981C538.353 261.844 539.451 263.004 540.215 264.459C541.005 265.914 541.399 267.555 541.399 269.38V279H538.846V274.782H538.735C538.39 275.522 537.872 276.262 537.181 277.002C536.491 277.717 535.64 278.309 534.628 278.778C533.642 279.247 532.482 279.481 531.15 279.481ZM531.705 277.261C533.087 277.261 534.308 276.928 535.368 276.262C536.429 275.571 537.268 274.646 537.884 273.487C538.501 272.303 538.797 270.971 538.772 269.491C538.772 268.036 538.489 266.741 537.921 265.606C537.354 264.471 536.552 263.571 535.516 262.905C534.48 262.239 533.247 261.906 531.816 261.906C530.336 261.906 529.066 262.251 528.005 262.942C526.945 263.608 526.131 264.533 525.563 265.717C524.996 266.876 524.712 268.196 524.712 269.676C524.712 271.057 524.984 272.328 525.526 273.487C526.069 274.646 526.858 275.571 527.894 276.262C528.955 276.928 530.225 277.261 531.705 277.261ZM556.585 279.481C554.858 279.481 553.267 279.099 551.812 278.334C550.356 277.569 549.197 276.447 548.334 274.967C547.47 273.487 547.039 271.699 547.039 269.602V251.99H549.629V264.015H549.703C550.122 263.176 550.702 262.436 551.442 261.795C552.182 261.129 553.02 260.611 553.958 260.241C554.895 259.871 555.882 259.686 556.918 259.686C558.62 259.686 560.161 260.081 561.543 260.87C562.949 261.659 564.071 262.782 564.91 264.237C565.748 265.668 566.168 267.394 566.168 269.417C566.168 270.996 565.921 272.414 565.428 273.672C564.934 274.905 564.244 275.954 563.356 276.817C562.492 277.68 561.481 278.346 560.322 278.815C559.162 279.259 557.917 279.481 556.585 279.481ZM556.548 277.224C557.806 277.224 558.965 276.928 560.026 276.336C561.086 275.719 561.937 274.844 562.579 273.709C563.22 272.55 563.541 271.168 563.541 269.565C563.541 268.011 563.22 266.667 562.579 265.532C561.937 264.373 561.086 263.485 560.026 262.868C558.99 262.251 557.855 261.943 556.622 261.943C555.388 261.943 554.241 262.251 553.181 262.868C552.12 263.46 551.269 264.323 550.628 265.458C549.986 266.593 549.666 267.974 549.666 269.602C549.666 271.23 549.974 272.611 550.591 273.746C551.232 274.881 552.071 275.744 553.107 276.336C554.167 276.928 555.314 277.224 556.548 277.224ZM579.658 279.481C577.759 279.481 576.069 279.049 574.589 278.186C573.109 277.298 571.95 276.102 571.111 274.597C570.272 273.092 569.853 271.415 569.853 269.565C569.853 267.715 570.272 266.038 571.111 264.533C571.95 263.028 573.109 261.844 574.589 260.981C576.069 260.093 577.759 259.649 579.658 259.649C581.557 259.649 583.235 260.093 584.69 260.981C586.17 261.844 587.329 263.028 588.168 264.533C589.031 266.013 589.463 267.69 589.463 269.565C589.463 271.415 589.031 273.092 588.168 274.597C587.329 276.102 586.17 277.298 584.69 278.186C583.235 279.049 581.557 279.481 579.658 279.481ZM579.658 277.224C581.064 277.224 582.31 276.891 583.395 276.225C584.48 275.534 585.319 274.609 585.911 273.45C586.528 272.291 586.836 270.996 586.836 269.565C586.836 268.134 586.528 266.839 585.911 265.68C585.319 264.521 584.48 263.608 583.395 262.942C582.31 262.251 581.064 261.906 579.658 261.906C578.227 261.906 576.969 262.251 575.884 262.942C574.823 263.608 573.985 264.521 573.368 265.68C572.776 266.839 572.48 268.134 572.48 269.565C572.48 270.996 572.776 272.291 573.368 273.45C573.985 274.609 574.823 275.534 575.884 276.225C576.969 276.891 578.227 277.224 579.658 277.224ZM594.084 279V265.495C594.084 263.818 594.552 262.51 595.49 261.573C596.452 260.611 597.771 260.13 599.449 260.13H602.705V262.387H599.967C598.881 262.387 598.055 262.683 597.488 263.275C596.945 263.867 596.674 264.706 596.674 265.791V279H594.084ZM615.628 279C613.606 279 611.793 278.63 610.189 277.89C608.611 277.125 607.353 276.04 606.415 274.634C605.503 273.228 605.046 271.538 605.046 269.565C605.046 267.74 605.416 266.087 606.156 264.607C606.896 263.102 607.932 261.906 609.264 261.018C610.621 260.13 612.2 259.686 614 259.686C615.85 259.686 617.417 260.093 618.699 260.907C619.982 261.721 620.956 262.819 621.622 264.2C622.288 265.581 622.621 267.135 622.621 268.862C622.621 269.109 622.609 269.38 622.584 269.676C622.56 269.972 622.523 270.231 622.473 270.453H607.784C607.858 271.834 608.253 272.994 608.968 273.931C609.684 274.868 610.609 275.571 611.743 276.04C612.903 276.509 614.148 276.743 615.48 276.743H620.253V279H615.628ZM607.784 268.603H619.994C619.994 268.11 619.945 267.567 619.846 266.975C619.748 266.358 619.563 265.754 619.291 265.162C619.045 264.57 618.687 264.027 618.218 263.534C617.774 263.041 617.195 262.646 616.479 262.35C615.789 262.029 614.938 261.869 613.926 261.869C612.989 261.869 612.138 262.066 611.373 262.461C610.609 262.856 609.967 263.386 609.449 264.052C608.931 264.693 608.524 265.409 608.228 266.198C607.957 266.987 607.809 267.789 607.784 268.603ZM626.848 279V276.743H635.728C636.493 276.743 637.134 276.583 637.652 276.262C638.17 275.941 638.565 275.522 638.836 275.004C639.132 274.486 639.28 273.956 639.28 273.413C639.28 272.87 639.157 272.377 638.91 271.933C638.664 271.464 638.306 271.082 637.837 270.786C637.369 270.49 636.777 270.342 636.061 270.342H632.102C630.894 270.342 629.845 270.145 628.957 269.75C628.094 269.331 627.428 268.739 626.959 267.974C626.515 267.209 626.293 266.321 626.293 265.31C626.293 264.397 626.515 263.546 626.959 262.757C627.403 261.968 628.032 261.339 628.846 260.87C629.66 260.377 630.61 260.13 631.695 260.13H640.242V262.387H631.954C630.992 262.387 630.24 262.683 629.697 263.275C629.155 263.842 628.883 264.496 628.883 265.236C628.883 265.951 629.155 266.593 629.697 267.16C630.24 267.727 631.054 268.011 632.139 268.011H635.839C637.171 268.011 638.281 268.233 639.169 268.677C640.082 269.121 640.76 269.738 641.204 270.527C641.673 271.316 641.907 272.241 641.907 273.302C641.907 274.264 641.661 275.189 641.167 276.077C640.674 276.94 639.996 277.643 639.132 278.186C638.294 278.729 637.307 279 636.172 279H626.848Z" fill="white"/>
</g>
<g clip-path="url(#clip0_19_494)" filter="url(#filter3_d_19_494)">
<path d="M877.295 273.424C866.47 268.938 860.232 260.952 858.457 249.535C858.406 249.344 858.332 249.16 858.235 248.986C857.023 247.812 857.415 246.194 857.265 244.827C856.621 239.015 856.118 233.187 855.755 227.345C855.675 226.088 855.313 224.726 856.168 223.538C859.84 220.567 864.292 219.577 868.789 218.933C882.215 217.012 895.747 216.854 909.268 217.186C919.52 217.438 929.812 217.681 939.903 219.859C941.709 220.245 943.616 220.523 945.15 221.726C945.653 222.944 945.613 223.934 944.249 224.642C942.665 225.459 940.225 225.375 939.123 224.241C938.477 223.508 937.611 222.996 936.65 222.779C935.689 222.561 934.683 222.65 933.776 223.033C910.481 220.369 880.701 220.632 866.666 223.82C866.807 224.365 867.461 224.315 867.708 224.711C868.779 225.746 870.268 225.602 871.495 225.642C874.237 225.726 876.953 226.078 879.69 226.216C890.933 226.791 902.186 226.533 913.438 226.602C916.457 226.602 919.44 225.988 922.493 226.152C924.106 226.156 925.711 226.369 927.267 226.786C927.624 227.033 927.971 227.281 927.518 227.746C927.336 227.913 927.12 228.041 926.884 228.121C926.649 228.202 926.399 228.232 926.15 228.211C922.589 228.013 919.973 229.736 917.709 232.202C917.089 232.62 916.353 232.84 915.602 232.831C912.583 233.158 909.53 232.672 906.522 233.182C898.715 233.677 890.928 233.073 883.151 232.687C879.851 232.514 876.566 232.192 873.276 231.945C871.913 231.831 871.516 232.291 871.621 233.559C871.761 236.243 872.077 238.915 872.567 241.559C872.859 242.921 872.668 244.327 873.07 245.664C873.488 248.258 874.047 250.828 874.745 253.363C874.849 253.753 874.923 254.15 874.966 254.551C875.097 255.204 875.384 256.036 874.594 256.333C873.804 256.63 873.417 255.868 873.005 255.343C870.288 250.016 868.447 244.451 868.125 238.435C867.989 236.584 867.587 234.752 867.687 232.88C867.763 231.563 867.184 230.836 865.821 230.647C864.651 230.449 863.493 230.181 862.355 229.845C860.253 229.256 860.917 230.944 861.007 231.682C861.455 235.514 861.576 239.376 862.114 243.198C862.466 245.674 862.642 248.149 863.246 250.565C864.755 256.536 867.843 261.655 871.943 266.23C872.074 267.513 871.44 267.567 870.64 266.899C869.83 266.256 869.057 265.568 868.326 264.839C871.013 267.656 873.357 270.953 877.688 271.508C877.881 271.537 878.065 271.605 878.229 271.71C878.393 271.814 878.532 271.951 878.639 272.112C878.705 272.285 878.714 272.474 878.664 272.652C878.372 273.181 877.668 273.018 877.295 273.424Z" fill="#F1F0EC"/>
<path d="M917.473 231.722C919.52 229.004 922.181 227.494 925.702 227.598C926.381 227.598 927.116 227.726 927.714 227.241C929.5 225.969 931.633 226.523 933.585 226.251C936.704 225.85 939.802 225.34 942.936 225.048C944.415 224.914 945.633 224.008 946.719 223.008C947.916 222.978 946.976 224.988 948.404 224.736C949.516 225.231 950.597 224.409 951.724 224.672C952.368 224.82 953.108 224.533 953.686 225.053C954.224 225.711 954.4 226.538 954.853 227.251C955.598 228.41 955.054 228.875 953.887 229.014C950.024 229.108 947.886 231.514 947.257 235.588C946.729 239.054 947.338 242.52 946.513 245.926C946.486 246.201 946.434 246.473 946.357 246.738C946.583 246.778 945.582 247.466 946.563 247.109C947.282 247.392 947.207 248.218 947.67 248.669C949.742 249.164 951.448 248.392 953.012 247.149C953.515 246.337 954.39 245.995 955.125 245.466C958.143 243.267 960.271 240.574 960.065 236.603C960.002 235.495 959.673 234.418 959.104 233.46C958.691 232.742 958.218 232.024 958.435 231.123C959.471 230.207 960.12 231.053 960.703 231.692C963.41 234.663 964.436 243.267 960.392 246.491C959.028 247.575 957.912 248.966 956.367 249.828C954.332 251.269 952.1 252.421 949.737 253.249C948.163 253.783 946.553 254.288 945.321 255.487C945.14 256.03 944.855 256.534 944.481 256.972C943.305 258.283 942.433 259.831 941.925 261.507C941.85 261.738 941.727 261.951 941.564 262.133C941.401 262.316 941.202 262.463 940.979 262.566C938.857 263.938 937.69 266.28 935.501 267.636C933.439 268.914 931.688 270.661 929.385 271.597C927.604 272.33 927.629 272.355 927.513 270.404C927.513 270.216 927.116 270.052 927.121 269.74C927.624 268.641 928.721 268.216 929.636 267.626C932.368 265.894 934.983 264.047 936.845 261.344C937.108 260.93 937.494 260.607 937.951 260.418C939.752 259.428 939.988 257.591 940.416 255.868C940.441 255.477 940.622 255.113 940.919 254.853C942.547 252.319 943.336 249.351 943.178 246.357C943.181 244.689 943.384 243.027 943.781 241.406C944.853 237.445 945.472 233.484 944.32 229.469C943.706 229.004 942.961 229.118 942.267 229.033C937.916 229.217 933.716 230.365 929.4 230.845C926.834 231.133 924.279 231.578 921.683 231.563C920.763 231.563 919.852 231.539 919.052 232.088C918.479 232.251 917.91 232.301 917.473 231.722Z" fill="#B9B5B3"/>
<path d="M953.953 228.494C954.164 228.315 955.08 228.588 954.587 228.093C953.726 227.216 953.646 226.201 953.43 225.167C953.742 223.904 954.617 224.672 955.281 224.672C962.323 225.984 968.501 233.227 964.612 241.589C963.005 245.279 960.165 248.319 956.564 250.204C956.106 250.337 955.955 250.13 956 249.709C957.786 248.565 959.104 246.926 960.598 245.476C963.722 242.441 962.565 234.088 959.984 231.766C959.642 231.459 959.371 230.454 958.561 231.271C956.86 232.157 956.549 230.147 955.457 229.826C954.994 229.454 954.35 229.429 953.913 229.014C953.849 228.939 953.817 228.843 953.824 228.745C953.832 228.648 953.878 228.558 953.953 228.494Z" fill="#EEEDEC"/>
<path d="M904.389 192.193L903.514 192.95C902.628 192.802 902.347 194.436 901.446 193.782C900.546 193.129 901.079 192.015 901.074 191.099C901.074 190.321 901.577 189.717 901.899 189.039C903.438 186.069 905.822 183.618 907.322 180.622C908.32 178.717 909.147 176.729 909.791 174.681C909.876 174.629 909.972 174.597 910.071 174.587C910.171 174.576 910.271 174.588 910.365 174.622C910.591 174.523 910.536 175.34 910.777 174.815C911.472 173.33 912.387 172.28 914.238 172.567C915.335 176.716 914.289 180.489 912.04 183.994C910.349 186.642 908.172 188.957 905.621 190.822C905.092 191.161 904.666 191.635 904.389 192.193Z" fill="#BA936A"/>
<path d="M946.724 223.028C947.257 224.067 946.674 224.389 945.763 224.741C942.453 226.028 938.937 226.226 935.486 226.721C932.921 227.078 930.31 227.083 927.72 227.251C914.445 226.612 901.164 227.697 887.894 227.177C881.249 226.914 874.594 226.711 867.979 225.939C867.506 225.885 866.319 225.835 867.677 225.068C868.487 224.572 869.352 225.068 870.193 224.939C876.641 225.667 883.136 225.523 889.605 225.835C890.694 226.124 891.823 226.245 892.95 226.196C897.668 226.196 902.388 226.196 907.11 226.196C907.959 226.219 908.806 226.118 909.625 225.899C912.281 225.518 914.963 225.677 917.629 225.711C923.122 225.781 928.56 224.964 934.033 224.721C934.811 224.712 935.58 224.559 936.301 224.27C936.94 223.983 936.357 223.81 936.125 223.632C935.517 223.34 934.817 223.196 934.47 222.538C934.375 222.29 934.274 221.81 934.541 221.879C936.291 222.374 938.339 222.008 939.601 223.86C940.436 225.102 944.093 224.672 944.999 223.454C945.457 222.835 944.098 222.166 945.175 221.696C945.623 222.221 946.548 222.181 946.724 223.028Z" fill="#FBFBFA"/>
<path d="M944.244 256.907L945.014 255.581C945.038 255.541 945.072 255.507 945.113 255.484C945.154 255.461 945.201 255.449 945.248 255.449C945.295 255.449 945.341 255.461 945.382 255.484C945.423 255.507 945.458 255.541 945.482 255.581C943.741 262.156 939.209 266.626 933.912 270.513C928.736 274.295 922.719 275.959 916.537 277.202C916.356 277.974 915.808 277.92 915.219 277.771C914.163 277.34 912.598 278.647 911.934 276.85C913.006 275.498 914.686 276.088 916.029 275.602C923.132 273.988 930.114 272.102 935.778 267.186C937.086 266.133 938.284 264.956 939.355 263.671C939.777 263.126 940.099 262.462 940.899 262.349C941.135 262.027 941.372 261.7 941.603 261.358C942.428 259.878 943.097 258.229 944.244 256.907Z" fill="#F7F7F7"/>
<path d="M895.777 178.281C899.751 173.543 899.424 168.215 898.076 162.69C897.014 158.353 897.12 154.135 900.153 150.436C900.858 149.575 900.983 149.515 902.271 149.337C899.122 153.729 899.62 158.18 901.803 162.705C902.16 163.452 902.422 164.25 902.729 165.022C902.915 165.517 902.588 165.626 902.201 165.68C900.158 163.853 899.685 161.314 899.157 158.853C898.871 157.506 898.513 156.036 899.087 154.937C898.498 156.65 899.122 158.66 899.238 160.635C899.343 162.428 899.816 164.19 900.128 165.963C900.671 169.022 900.591 172.052 899.369 174.954C898.75 176.439 898.056 177.894 896.391 178.548C896.273 178.574 896.149 178.562 896.039 178.514C895.928 178.466 895.836 178.384 895.777 178.281Z" fill="#EBE1C8"/>
<path d="M897.628 198.436C897.653 195.079 898.025 191.832 900.566 189.252C900.606 189.213 900.654 189.184 900.708 189.167C900.761 189.149 900.818 189.145 900.874 189.153C900.929 189.161 900.982 189.182 901.028 189.214C901.075 189.246 901.112 189.288 901.139 189.336C901.471 190.015 901.033 190.569 900.747 191.084C899.532 193.295 898.958 195.792 899.087 198.303C900.274 203.11 899.524 208.002 899.836 211.338C899.565 208.734 899.947 204.63 899.882 200.516C900.088 199.169 899.736 197.728 900.535 196.485C900.742 196.164 900.983 195.698 901.476 196.084C901.708 196.263 901.602 196.58 901.476 196.837C900.681 202.491 901.396 208.224 900.661 213.868C900.581 214.482 901.119 215.562 899.766 215.492C898.538 215.428 898.87 214.398 898.85 213.75C898.659 208.625 898.453 203.506 897.628 198.436Z" fill="#ECE3D0"/>
<path d="M910.305 174.637C910.184 174.637 910.063 174.666 909.942 174.691C909.661 174.691 909.651 174.424 909.535 174.26C910.456 170.473 909.253 166.913 908.131 163.225C913.484 165.893 916.215 173.285 914.404 179.499C912.785 185.073 908.816 188.797 904.389 192.193C904.711 190.51 906.215 189.812 907.357 188.861C911.763 185.177 914.218 180.548 914.49 174.855C914.439 174.096 914.297 173.347 914.067 172.622C912.634 170.839 912.236 168.443 910.677 167.067C911.371 169.443 911.698 172.067 910.305 174.637Z" fill="#CBAF92"/>
<path d="M905.973 209.224C906.634 206.567 906.751 203.807 906.315 201.105C906.266 200.769 906.286 200.426 906.372 200.097C906.458 199.768 906.61 199.46 906.818 199.189C909.711 201.318 910.526 204.947 909.052 209.091C908.496 210.075 907.757 210.948 906.874 211.665C905.838 211.14 906.2 210.071 905.973 209.224Z" fill="#C8A27A"/>
<path d="M898.463 198.015C898.015 194.723 899.55 192.01 901.059 189.282C901.232 189.14 901.45 189.063 901.675 189.063C901.9 189.063 902.118 189.14 902.291 189.282C901.683 190.591 901.408 192.028 901.491 193.465C902.362 193.743 902.583 192.143 903.503 192.97C902.422 194.059 902.115 195.545 901.461 196.857C901.305 196.792 901.305 195.911 901.008 196.708C900.604 197.926 900.434 199.207 900.505 200.486C898.755 200.521 899.454 198.58 898.463 198.015Z" fill="#D9BC99"/>
<path d="M902.266 165.492L902.724 164.997C905.465 170.889 904.736 176.35 900.611 181.385C899.867 182.286 899.132 183.197 898.393 184.103L897.2 185.093C896.431 184.143 896.396 184.044 897.462 182.9C899.297 180.974 900.808 178.773 901.939 176.379C903.237 173.567 903.161 170.735 902.336 167.844C902.115 167.086 901.627 166.304 902.266 165.492Z" fill="#E3DAC3"/>
<path d="M889.403 196.832C887.029 193.554 887.643 190.133 889.152 186.826C890.661 183.519 893.176 180.825 895.772 178.281L895.933 178.409C896.536 180.113 895.078 180.944 894.212 181.875C892.62 183.54 891.336 185.467 890.419 187.569C889.589 189.906 889.237 192.252 890.032 194.678C890.263 195.386 890.565 196.164 890.032 196.867C889.933 196.915 889.823 196.938 889.713 196.932C889.603 196.926 889.496 196.891 889.403 196.832Z" fill="#E0D5C1"/>
<path d="M902.316 189.272C902.133 189.39 901.919 189.453 901.7 189.453C901.481 189.453 901.267 189.39 901.084 189.272L900.581 189.242C901.516 187.183 903.599 185.95 904.545 183.89C906.904 181.069 908.62 177.781 909.575 174.251L909.983 174.681C909.233 178.172 907.573 181.281 905.712 184.286C904.615 185.994 903.423 187.593 902.316 189.272Z" fill="#E1D6C1"/>
<path d="M890.822 277.207L889.157 277.271C887.286 276.088 885.002 276.281 883 275.444C881.134 274.691 879.197 274.107 877.295 273.464C877.391 272.686 877.975 272.701 878.553 272.711C880.198 272.523 881.571 273.756 883.191 273.617C885.304 274.157 887.326 274.974 889.449 275.464C890.284 275.617 891.35 275.86 890.822 277.207Z" fill="#F4F3F4"/>
<path d="M945.482 255.576H945.014C945.97 253.976 947.7 253.595 949.28 253.135C951.75 252.407 953.807 250.927 955.98 249.714L956.543 250.209C954.697 251.912 952.298 252.546 950.069 253.516C948.53 254.175 947.011 254.883 945.482 255.576Z" fill="#D8D8D7"/>
<path d="M905.973 209.224C906.733 209.878 906.532 210.883 906.884 211.7C906.205 212.69 906.265 213.908 906.008 215.032C905.903 215.497 905.853 216.082 905.184 215.978C904.615 215.888 904.811 215.329 904.791 214.958C904.722 212.982 905.127 211.018 905.973 209.224Z" fill="#DBD0BA"/>
<path d="M909.062 209.111C909.243 207.016 909.817 204.962 909.062 202.823C908.559 201.412 907.528 200.417 906.823 199.184C906.904 198.916 906.823 198.362 907.367 198.753C910.068 200.639 910.968 206.219 909.062 209.111Z" fill="#DAC7AF"/>
<path d="M955.281 224.662C954.672 224.855 953.928 224.568 953.43 225.157C951.558 225.073 949.687 225.003 947.896 225.746C947.574 225.087 948.334 225.112 948.399 224.756C950.693 224.157 952.987 224.3 955.281 224.662Z" fill="#D8D8D6"/>
<path d="M895.777 197.203C897.11 198.466 896.828 199.986 896.526 201.536C896.401 202.184 896.069 202.263 895.52 202.06L893.393 200.466C893.342 200.429 893.304 200.379 893.283 200.32C893.263 200.262 893.261 200.199 893.277 200.139C893.312 200.03 893.347 199.976 893.383 199.971C894.892 200.189 895.742 199.788 895.229 198.055C895.192 197.964 895.178 197.865 895.187 197.767C895.197 197.669 895.229 197.575 895.283 197.492C895.336 197.409 895.409 197.34 895.495 197.289C895.581 197.239 895.677 197.21 895.777 197.203Z" fill="#F0E6CC"/>
<path d="M893.387 200.1C893.387 200.228 893.387 200.357 893.387 200.486C891.697 199.649 890.545 198.243 889.398 196.832L890.002 196.758C890.867 196.856 891.672 197.24 892.287 197.847C892.902 198.454 893.29 199.248 893.387 200.1Z" fill="#DAD3BF"/>
<path d="M871.782 266.532C867.139 262.26 864.322 256.967 862.808 250.946C862.722 250.491 862.471 249.768 863.09 249.763C863.889 249.763 864.04 250.635 864.282 251.273C864.83 253.354 865.588 255.376 866.545 257.309C868.507 261.571 872.582 262.512 876.656 263.126C883.852 264.229 891.213 263.529 898.061 261.091C898.513 260.903 899.001 260.819 899.459 260.636C900.299 260.289 901.35 260.14 901.874 259.432C902.512 258.551 901.074 258.155 901.023 257.333C900.969 256.992 900.932 256.648 900.913 256.303C901.022 255.486 901.372 254.719 901.919 254.095C904.751 251.739 906.899 252.372 907.955 255.868C908.051 256.125 908.227 256.345 908.458 256.497C910.023 257.432 911.129 256.249 912.281 255.62C916.879 253.145 920.42 249.441 923.816 245.585C924.636 244.659 925.214 243.06 927.04 243.604C927.543 244.52 927.131 245.347 926.784 246.184C923.492 254.319 917.567 261.159 909.927 265.646C902.653 269.924 894.625 272.666 885.907 272.652C883.654 272.652 881.677 271.726 879.614 271.072C878.885 270.84 878.211 270.394 877.396 270.503C876.215 270.305 875.095 269.845 874.122 269.157C873.15 268.468 872.349 267.571 871.782 266.532Z" fill="#301F18"/>
<path d="M872.562 246.055C871.5 241.46 871.34 236.742 870.62 232.098C870.434 230.88 871.123 230.895 871.998 230.994C878.628 231.761 885.284 232.093 891.954 232.415C896.803 232.648 901.642 232.504 906.487 232.593C906.929 233.583 906.16 234.143 905.616 234.722C901.758 238.866 896.924 241.629 891.858 244.035C889.464 245.174 886.873 245.852 884.378 246.758C883.644 247.025 883.085 247.659 882.275 247.783C881.742 247.035 881.008 246.431 880.691 245.535C880.988 245.129 881.531 245.114 881.928 244.778C881.033 244.614 880.897 245.5 880.364 245.802C878.508 245.802 876.707 245.243 874.831 245.307C874.008 245.282 873.203 245.547 872.562 246.055Z" fill="#C27B43"/>
<path d="M901.391 256.412C901.3 257.794 902.397 258.393 903.403 259.22C901.996 260.375 900.304 261.145 898.498 261.452C896.989 261.304 895.706 262.245 894.263 262.477C893.52 262.657 892.753 262.729 891.989 262.69C890.817 262.532 890.359 261.532 891.189 260.789C892.396 259.71 893.086 257.992 895.002 257.734C895.812 257.62 896.084 256.912 896.159 256.185C896.496 252.991 898.116 250.798 901.25 249.748C901.553 249.653 901.829 249.49 902.057 249.272C902.285 249.054 902.458 248.786 902.563 248.491C903.695 246.887 905.304 245.748 906.768 244.48C909.148 242.442 911.208 240.068 912.88 237.435C913.886 235.737 914.57 233.841 915.813 232.261L917.468 231.722C918.037 231.842 918.629 231.797 919.173 231.593C920.097 231.153 921.146 231.038 922.146 231.266C923.363 233.197 922.901 235.336 922.649 237.331C921.814 244.337 917.981 249.709 912.588 254.11C911.26 255.199 909.973 256.487 908.126 256.789C907.749 256.848 906.954 257.467 907.145 256.596C907.457 255.15 907.241 254.274 905.848 253.546C904.308 252.739 903.332 253.585 902.251 254.348C901.446 254.798 900.998 255.422 901.391 256.412Z" fill="#6C4127"/>
<path d="M903.111 248.491C903.036 249.56 902.256 250.095 901.376 250.362C898.171 251.352 896.894 253.625 896.768 256.734C896.743 257.299 896.713 258.145 896.134 258.106C893.996 257.942 893.488 260.126 891.924 260.74C891.536 260.893 891.109 261.18 891.159 261.631C891.23 262.26 891.823 262.23 892.306 262.255C893.711 262.264 895.101 261.974 896.381 261.403C897.1 261.116 897.799 260.695 898.483 261.457C895.127 262.839 891.571 263.689 887.945 263.978C884.599 264.298 881.23 264.298 877.884 263.978C875.111 263.62 872.396 262.908 869.81 261.858C867.909 261.136 866.933 259.383 866.068 257.789C864.911 255.81 864.128 253.641 863.759 251.387C865.016 251.149 865.801 252.164 866.812 252.565C869.026 253.437 871.34 254.11 873.477 255.12L874.262 256.269L874.649 256.001L874.222 253.59C874.086 252.912 874.564 252.922 874.926 253.095C875.847 253.561 876.782 253.353 877.723 253.298C882.356 252.402 887.12 253.11 891.743 252.174C894.962 251.971 897.739 250.595 900.46 249.035C901.255 248.585 902.04 247.793 903.111 248.491Z" fill="#734527"/>
<path d="M892.115 252.655C890.651 253.397 889.006 253.293 887.472 253.407C884.086 253.655 880.671 253.377 877.295 253.902C877.712 252.883 878.449 252.02 879.398 251.442C880.347 250.863 881.459 250.597 882.572 250.684C882.708 250.709 882.843 250.743 882.975 250.783C884.353 251.229 885.812 251.65 886.496 249.902C887.18 248.154 886.048 247.397 884.61 246.867C884.345 246.774 884.128 246.582 884.006 246.332C889.036 244.555 894.011 242.753 898.458 239.742C901.476 237.708 904.449 235.688 906.461 232.593C909.56 232.058 912.684 232.326 915.793 232.261C915.647 234.38 914.284 235.93 913.277 237.648C909.796 236.945 907.07 238.193 904.515 240.51C902.502 242.322 900.133 243.669 898.272 245.698C897.26 246.738 896.353 247.87 895.561 249.08C894.693 250.507 893.517 251.727 892.115 252.655Z" fill="#945832"/>
<path d="M873.477 255.12C869.835 254.892 866.696 253.397 863.759 251.387L863.019 250.194L862.808 250.946C861.394 245.995 861.178 240.916 860.851 235.846C860.7 233.469 860.056 231.103 860.494 228.513L862.506 229.281C861.925 231.022 861.72 232.864 861.906 234.688C862.091 236.512 862.662 238.278 863.583 239.871C864.383 241.277 864.252 243.223 866.098 244.005C866.722 244.263 867.305 245.035 867.984 244.57C868.548 244.188 868.145 243.401 868.095 242.797C868.024 241.97 867.743 241.153 867.808 240.322C867.869 239.624 867.637 238.722 868.724 238.5C869.081 244.381 871.098 249.798 873.477 255.12Z" fill="#B77545"/>
<path d="M868.739 238.495C867.818 240.559 868.779 242.564 869.046 244.555C869.257 246.09 868.673 245.946 867.763 245.545C865.751 244.659 864.176 243.713 863.286 241.243C862.129 238.044 861.062 234.994 861.163 231.563C861.126 231.096 861.234 230.628 861.472 230.222C861.71 229.815 862.067 229.489 862.496 229.286C864.005 229.568 865.514 229.885 867.023 230.128C867.848 230.256 868.256 230.623 868.301 231.464C868.427 233.806 868.613 236.153 868.739 238.495Z" fill="#C4834E"/>
<path d="M882.376 250.966C879.987 250.773 879.086 253.08 877.295 253.897C876.184 254.59 875.228 253.838 874.222 253.585C873.317 251.161 872.758 248.625 872.562 246.05C872.647 245.253 872.491 244.54 873.9 244.644C876.189 244.812 878.493 244.693 880.681 245.55C881.662 245.906 882.778 246.159 882.321 247.619C882.763 248.733 882.949 249.847 882.376 250.966Z" fill="#A26436"/>
<path d="M890.822 277.207C890.777 276.162 889.997 276.172 889.227 276.013C887.009 275.572 884.851 274.874 882.799 273.934C881.284 273.681 879.838 273.126 878.548 272.305L877.723 271.84C877.064 270.889 877.094 270.85 878.523 270.607C882.896 272.129 887.397 273.269 891.974 274.013C892.387 274.095 892.806 274.144 893.226 274.162C895.037 274.127 896.783 274.657 898.579 274.726C900.712 275.276 902.885 274.899 905.038 274.989C906.16 275.038 907.286 274.989 908.182 275.825C908.715 276.32 909.349 276.152 909.967 276.167C910.732 276.167 911.517 276.211 912.055 276.895C913.061 277.736 914.379 276.741 915.39 277.494C909.082 278.226 902.759 278.632 896.411 278.083C895.782 278.033 895.128 278.113 894.575 277.726C895.012 277.078 895.701 277.355 896.295 277.261C895.329 277.415 894.283 276.969 893.382 277.637C892.447 277.944 891.717 277.078 890.822 277.207Z" fill="#CDC8C9"/>
<path d="M934.445 222.548L936.125 223.112C935.572 224.424 934.44 223.855 933.575 223.761C922.146 222.583 910.659 222.027 899.167 222.097C889.963 222.025 880.765 222.551 871.631 223.671C873.201 223.978 874.695 223.889 876.159 224.038C877.622 224.186 879.136 224.077 880.464 225.523C876.702 226.32 873.191 225.102 869.684 225.375C868.91 225.914 868.407 224.746 867.672 225.063C866.566 224.568 865.182 224.855 864.111 223.968C871.42 220.582 909.032 219.186 934.445 222.548Z" fill="#160E0B"/>
<path d="M878.603 271.008C878.1 271.053 877.275 270.765 877.718 271.82C875.449 272.018 871.214 269.701 870.484 267.805C869.941 266.389 868.311 266.106 867.547 264.943C867.295 264.567 866.591 264.245 866.998 263.775C867.501 263.185 868.004 263.775 868.397 264.131C869.257 264.938 870.082 265.79 870.937 266.607C871.214 266.869 871.571 267.344 871.782 266.532C873.528 267.859 875.178 269.339 877.315 270.107C877.919 270.151 878.633 270.062 878.603 271.008Z" fill="#E8E6E2"/>
<path d="M878.548 272.285C880.025 272.663 881.451 273.209 882.798 273.914C881.128 274.34 879.921 273.251 878.553 272.671C878.558 272.543 878.553 272.414 878.548 272.285Z" fill="#E8E6E2"/>
<path d="M878.603 271.008C878.442 270.33 877.567 270.642 877.305 270.107C878.689 269.32 879.73 270.453 880.776 270.889C885.102 272.671 889.434 272.018 893.765 271.196C899.047 270.206 903.996 268.112 908.73 265.75C913.137 263.562 916.577 259.923 919.832 256.274C922.53 253.172 924.701 249.661 926.261 245.877C926.65 245.137 926.842 244.313 926.819 243.48C926.316 242.535 926.708 241.594 926.879 240.668C927.243 238.644 927.412 236.59 927.383 234.534C927.383 233.212 926.96 232.484 925.486 232.454C924.666 232.454 923.59 232.593 923.363 231.341C929.148 230.548 934.968 230.019 940.703 228.895C941.317 228.771 941.925 228.617 942.534 228.489C943.312 228.667 944.12 228.667 944.898 228.489C945.678 231.459 945.195 234.43 944.898 237.376C944.767 238.718 944.928 240.129 944.224 241.386C944.043 243.188 943.86 244.992 943.676 246.798C943.394 249.685 942.519 252.486 941.105 255.031L940.718 255.972C940.215 257.69 939.812 259.482 938.248 260.665C935.406 264.681 931.477 267.418 927.227 269.775C926.859 270.736 925.954 270.998 925.119 271.34C921.759 272.711 918.398 274.087 914.817 274.805C914.132 274.946 913.424 274.946 912.739 274.805C911.049 274.285 909.379 274.904 907.734 275.033C903.313 275.297 898.877 275.097 894.499 274.434C893.946 274.36 893.377 274.206 892.92 274.701C888.689 274.092 884.489 273.355 880.56 271.553C879.977 271.265 879.348 270.889 878.603 271.008Z" fill="#20110A"/>
<path d="M914.822 274.236C919.082 273.089 923.24 271.599 927.252 269.78C927.599 270.439 928.127 269.78 928.585 269.953C928.64 270.741 927.579 270.874 927.538 271.835C931.955 270.013 935.496 267.24 938.681 263.938C939.299 263.294 939.485 261.957 940.884 262.363C934.636 270.32 926.16 274.389 916.301 276.058C916.003 276.199 915.671 276.257 915.342 276.226C915.013 276.194 914.699 276.075 914.434 275.88C915.274 274.706 916.497 275.325 917.503 274.989C916.542 274.929 915.395 275.464 914.822 274.236Z" fill="#AAA6A4"/>
<path d="M951.372 229.231C948.007 230.766 947.851 233.92 947.509 236.896C947.137 240.327 947.006 243.782 946.754 247.228C946.131 247.59 946.422 248.347 945.975 248.832C946.442 243.584 945.924 238.277 947.212 233.123C947.997 229.994 950.497 228.39 953.953 228.494C953.956 228.579 953.97 228.664 953.993 228.746C953.228 229.484 952.192 228.786 951.372 229.231Z" fill="#CDCCCA"/>
<path d="M942.559 228.484C939.813 230.004 936.689 229.969 933.711 230.43C930.32 230.949 926.885 231.133 923.469 231.459C923.299 231.616 923.076 231.707 922.843 231.714C922.609 231.722 922.381 231.645 922.201 231.499L919.183 231.593C919.077 231.311 919.052 230.984 919.435 230.984C926.98 231.029 934.33 229.36 941.744 228.296C942.025 228.312 942.3 228.376 942.559 228.484Z" fill="#D5CECD"/>
<path d="M944.249 241.376C944.461 237.693 945.135 234.039 944.994 230.331C944.994 229.712 944.943 229.098 944.913 228.479C946.085 229.761 945.517 231.405 945.582 232.801C945.713 235.44 945.225 238.104 944.979 240.757C944.943 241.148 944.616 241.307 944.249 241.376Z" fill="#D7D3D2"/>
<path d="M941.13 255.021C941.986 252.278 942.842 249.534 943.701 246.788C944.118 249.793 942.775 252.412 941.784 255.105C941.679 255.422 941.327 255.274 941.13 255.021Z" fill="#CCC8C6"/>
<path d="M938.273 260.655L940.743 255.962C940.99 258.076 939.777 259.591 938.585 261.116L938.273 260.655Z" fill="#CDC9C6"/>
<path d="M947.152 249.342C949.143 248.934 951.092 248.344 952.972 247.58C953.44 248.347 952.595 248.352 952.333 248.421C950.633 248.862 949.099 250.194 947.152 249.342Z" fill="#DADAD9"/>
<path d="M944.244 256.907C943.699 258.574 942.793 260.105 941.588 261.393C941.85 259.522 942.559 257.932 944.244 256.907Z" fill="#A09C9A"/>
<path d="M951.372 229.231C952.147 228.548 953.138 228.994 953.993 228.736C954.552 228.85 955.231 228.598 955.613 229.256L951.372 229.231Z" fill="#B9B5B3"/>
<path d="M910.305 174.637C910.536 171.532 911.195 168.403 909.55 165.383C911.929 167.364 913.574 169.641 914.077 172.622C913.242 172.846 912.491 173.304 911.917 173.942C911.342 174.579 910.969 175.368 910.843 176.211C910.149 175.667 910.365 175.102 910.305 174.637Z" fill="#C59E74"/>
<path d="M890.007 187.168C890.872 184.133 893.367 182.217 895.168 179.815C895.495 179.375 895.933 179.013 895.933 178.409C899.887 175.236 900.153 170.919 899.514 166.477C899.052 163.259 898.257 160.096 898.443 156.808C898.493 155.907 898.488 155.021 899.333 153.971C899.001 158.343 900.576 161.932 902.266 165.492C902.573 167.185 903.418 168.715 903.564 170.488C903.996 175.627 901.386 179.4 898.242 183.058C897.739 183.613 896.365 183.865 897.206 185.113L896.416 186.059C895.51 186.178 895.279 186.994 894.861 187.579C893.463 189.524 892.613 189.658 890.762 188.118C890.416 187.886 890.152 187.554 890.007 187.168Z" fill="#E8CAA5"/>
<path d="M890.007 187.168C890.335 187.253 890.651 187.378 890.948 187.539C893.267 189.173 893.232 189.158 894.791 186.985C895.143 186.489 895.369 185.499 896.416 186.059C895.958 187.232 894.962 188.039 894.479 189.287C893.342 192.302 894.152 194.763 895.792 197.208C895.752 197.461 895.616 197.743 895.691 197.956C896.023 198.946 896.32 200.219 895.691 200.862C895.063 201.506 894.308 200.006 893.377 200.105C892.415 198.841 891.277 197.716 889.997 196.763C888.81 193.564 888.282 190.366 890.007 187.168Z" fill="#EBD0AE"/>
<path d="M869.7 225.37C871.571 224.875 873.417 225.137 875.298 225.409C876.737 225.622 878.231 225.454 880.203 225.454C876.682 224.429 873.427 224.889 870.333 224.285C869.896 224.196 869.171 224.498 869.116 223.83C869.051 223.072 869.795 223.107 870.343 223.057C875.988 222.562 881.617 221.993 887.291 221.671C894.819 221.245 902.336 221.183 909.842 221.483C918.358 221.815 926.945 221.79 935.366 223.374C935.592 223.414 935.869 223.206 936.125 223.112C937.131 222.904 937.836 223.414 938.857 224.508C929.038 226.345 919.455 226.31 909.887 226.444C903.116 226.672 896.344 226.672 889.569 226.444C882.932 226.428 876.299 226.069 869.7 225.37Z" fill="#311F0D"/>
<path d="M889.569 226.444H909.887C909.51 226.608 909.112 226.721 908.705 226.781C902.719 226.8 896.734 226.8 890.751 226.781C890.343 226.724 889.945 226.611 889.569 226.444Z" fill="#F1F0EC"/>
<path d="M914.822 274.236C915.83 274.569 916.86 274.832 917.905 275.023L915.003 275.721C915.355 276.216 915.888 275.875 916.301 276.023L912.055 276.855C907.528 276.162 903.026 275.434 898.448 275.211C898.545 275.067 898.68 274.951 898.838 274.876C898.997 274.801 899.173 274.77 899.348 274.786C903.649 275.129 907.976 274.962 912.236 274.29C912.443 274.269 912.652 274.282 912.855 274.33L914.822 274.236Z" fill="#BCB5B5"/>
<path d="M898.463 198.015C900.184 197.991 899.288 200.09 900.516 200.466C900.842 204.778 899.796 209.031 899.882 213.339L898.463 198.015Z" fill="#E0C9AE"/>
<path d="M893.382 277.618C894.429 276.068 896.074 277.216 897.376 276.781C897.534 276.895 897.643 277.063 897.683 277.251C897.683 277.593 897.402 277.662 897.105 277.667L894.59 277.707L893.382 277.618Z" fill="#D4D1D4"/>
<path d="M922.191 231.499L923.459 231.459C923.917 231.9 924.495 231.801 925.043 231.801C928.353 231.801 928.062 231.42 928.107 234.994C928.187 237.874 927.751 240.745 926.819 243.475C924.052 245.555 922.075 248.387 919.686 250.828C916.904 253.665 913.499 255.422 910.169 257.403C908.941 258.13 908.66 257.546 908.156 256.799C910.103 255.254 912.181 253.828 913.982 252.15C919.973 246.54 922.911 239.713 922.191 231.499Z" fill="#39251C"/>
<path d="M901.391 256.412C900.656 255.338 900.933 254.714 902.291 254.363L901.391 256.412Z" fill="#734527"/>
<path d="M882.376 250.966C882.069 249.857 881.702 248.743 882.321 247.619C882.501 247.3 882.745 247.021 883.04 246.799C883.334 246.577 883.671 246.416 884.031 246.327C885.344 246.327 886.546 246.545 887.155 247.931C887.703 249.233 887.492 250.476 886.395 251.303C885.052 252.328 883.639 252.006 882.376 250.966Z" fill="#512B14"/>
<path d="M880.686 245.555C880.339 244.936 880.289 244.426 881.114 244.119C881.717 243.891 882.386 243.688 882.864 244.119C883.342 244.55 883.367 245.283 882.532 245.486C881.921 245.569 881.302 245.591 880.686 245.55V245.555Z" fill="#D69A65"/>
<path d="M892.115 252.655C895.334 248.283 898.327 243.743 903.217 240.827C905.39 239.525 906.964 237.257 909.756 236.915C911.024 236.757 912.271 236.559 913.277 237.648C912.025 240.426 909.756 242.421 907.659 244.515C906.235 245.926 904.64 247.159 903.131 248.476C900.893 249.58 898.669 250.729 896.406 251.778C895.071 252.415 893.597 252.716 892.115 252.655Z" fill="#89522F"/>
<path d="M912.88 274.345C909.293 275.657 905.546 275.177 901.853 275.286C900.727 275.315 899.6 275.251 898.473 275.231L892.975 274.691C892.215 272.944 893.865 273.988 894.006 274.008C897.186 274.423 900.387 274.665 903.594 274.731C906.111 274.715 908.621 274.474 911.094 274.013C911.723 273.909 912.377 273.78 912.88 274.345Z" fill="#0C0706"/>
<path d="M907.402 277.35H910.591V277.523H907.407L907.402 277.35Z" fill="#F0EDF1"/>
<path d="M840.458 164.938H840.488V164.898L840.458 164.938ZM1043.02 187.851C1043.1 185.47 1041.62 184.133 1039.18 184.148C1035.56 184.172 1031.93 184.073 1028.32 184.266C1026.07 184.385 1025.22 183.445 1024.72 181.449C1023.14 175.186 1020.61 169.26 1017.71 163.492C1017.45 162.848 1017.1 162.242 1016.67 161.69C1015.8 160.764 1014.9 159.893 1013.41 160.957C1012.07 161.913 1012.07 162.962 1012.66 164.23C1013.39 165.809 1014.17 167.369 1014.89 168.968C1017.18 174.084 1019.16 179.328 1020.83 184.672C1021.92 188.138 1023.26 188.975 1026.9 188.95C1029.46 188.95 1032.02 189.024 1034.57 188.95C1036.17 188.891 1036.86 189.331 1036.85 191.054C1036.78 204.765 1036.77 218.475 1036.8 232.182C1036.8 233.781 1036.3 234.43 1034.63 234.43C1020.86 234.465 1007.08 234.588 993.305 234.628C990.639 234.628 990.523 234.356 990.881 231.811C991.856 224.525 991.978 217.152 991.243 209.838C990.398 200.892 987.757 192.45 984.14 184.281C982.731 181.108 981.464 177.746 979.381 175.018C976.544 171.3 973.767 167.502 970.447 164.126C960.91 154.422 950.648 145.956 937.146 142.148C932.554 140.851 928.197 138.866 923.454 137.905C913.625 135.925 903.79 135.301 893.845 136.633C887.95 137.425 882.341 139.341 876.646 140.925C873.922 141.712 871.317 142.858 868.905 144.332C867.602 145.109 866.279 146.099 864.946 146.56C860.509 148.094 857.048 150.936 853.547 153.798C850.735 156.1 848.24 158.774 845.146 160.729C845.252 159.883 845.212 159.833 845.051 159.972C843.341 161.457 841.354 162.695 840.483 164.923C840.891 164.799 841.298 164.67 841.711 164.552C841.66 164.67 841.615 164.789 841.565 164.903C841.54 164.964 841.512 165.024 841.479 165.081L841.384 165.255C841.332 165.351 841.273 165.444 841.208 165.532C841.165 165.599 841.118 165.663 841.067 165.725C840.988 165.82 840.904 165.911 840.815 165.997L840.669 166.126C840.609 166.171 840.549 166.22 840.483 166.26C840.369 166.336 840.248 166.403 840.121 166.458L840 166.512L839.875 166.557L839.749 166.596L839.608 166.636C839.611 166.659 839.611 166.682 839.608 166.705C839.608 166.799 839.568 166.883 839.548 166.973C839.55 166.997 839.55 167.022 839.548 167.047L839.502 167.205C839.466 167.323 839.423 167.439 839.372 167.552C839.353 167.585 839.337 167.62 839.326 167.656C839.296 167.72 839.261 167.789 839.221 167.859C839.18 167.928 839.14 167.997 839.1 168.067C839.06 168.136 838.999 168.21 838.949 168.28C838.852 168.407 838.746 168.528 838.632 168.641L838.446 168.809C838.406 168.845 838.364 168.878 838.32 168.908C838.285 168.939 838.248 168.967 838.21 168.993C837.866 169.236 837.488 169.43 837.088 169.567C837.067 169.734 837.035 169.899 836.992 170.062C836.93 170.287 836.847 170.505 836.746 170.716C836.63 170.956 836.487 171.182 836.318 171.389C836.28 171.446 836.236 171.499 836.187 171.547C836.134 171.612 836.077 171.673 836.016 171.73C835.941 171.81 835.86 171.884 835.78 171.953C835.699 172.023 835.543 172.141 835.413 172.231C835.342 172.282 835.268 172.33 835.191 172.374L834.96 172.513C834.326 174.671 832.495 176.097 831.474 178.013L831.122 177.558L831.087 177.528C830.533 178.147 829.839 178.682 829.452 179.39C825.078 187.227 821.926 195.667 820.1 204.427C818.144 213.834 818.44 223.345 819.753 232.816C819.949 234.192 819.663 234.544 818.325 234.514C815.84 234.455 813.35 234.514 810.86 234.514C799.139 234.544 787.415 234.57 775.687 234.593C772.86 234.593 772.79 234.504 772.765 231.806C772.765 229.826 772.765 227.89 772.765 225.924C772.765 214.458 772.765 202.986 772.669 191.515C772.669 189.638 773.202 188.821 775.225 188.965C777.418 189.128 779.631 188.965 781.834 189.064C787.051 189.242 788.319 188.381 789.606 183.375C791.697 175.154 795.076 167.303 799.622 160.106C800.203 159.226 800.686 158.286 801.06 157.303C801.649 155.625 800.497 154.387 798.696 154.625C797.011 154.843 796.181 155.991 795.432 157.333C791.09 165.141 787.509 173.255 785.336 181.925C784.918 183.573 784.048 184.351 782.197 184.306C778.509 184.207 774.812 184.276 771.13 184.365C768.615 184.425 767.151 185.747 767.146 188.014C767.049 203.702 767 219.381 767 235.049C767 238.411 768.253 239.579 771.638 239.628C774.903 239.683 778.177 239.628 781.442 239.663C783.248 239.663 784.405 240.218 784.662 242.337C784.973 244.921 785.844 247.421 786.563 249.946C789.128 258.972 793.102 267.364 797.59 275.563C798.525 277.286 799.526 278.984 800.608 280.638C801.478 281.994 802.811 282.549 804.265 281.677C805.719 280.806 805.573 279.345 804.838 277.994C804.406 277.197 803.898 276.439 803.42 275.667C796.951 265.29 791.769 254.432 789.486 242.352C788.983 239.628 788.952 239.609 791.674 239.574C800.98 239.455 810.286 239.807 819.592 239.302C821.262 239.218 821.755 239.921 822.138 241.356C824.552 250.54 829.039 258.764 834.547 266.478C839.15 272.914 844.824 278.36 850.755 283.608C852.521 285.168 853.351 287.569 855.559 288.896C860.59 291.931 865.182 295.575 871.028 297.313C874.438 298.303 877.793 299.605 881.274 300.442C886.717 301.749 892.341 301.981 897.875 302.541C907.432 303.506 916.909 302.481 926.125 300.145C933.042 298.397 939.606 295.471 945.919 292.055C956.702 286.173 966.107 278.123 973.521 268.428C980.015 260.066 985.131 250.882 988.275 240.733C988.582 239.742 989.05 239.247 990.207 239.277C999.449 239.346 1008.69 239.374 1017.92 239.361C1019.24 239.361 1019.58 239.723 1019.37 241.094C1018.28 248.065 1015.88 254.675 1013.19 261.116C1004.8 281.167 992.314 298.308 974.919 311.864C962.396 321.628 947.771 328.447 932.161 331.801C918.761 334.753 904.948 335.436 891.315 333.821C874.715 331.915 859.438 326.395 845.287 317.834C835.554 311.948 827.118 304.467 819.633 295.971C818.829 294.997 817.949 294.087 817.002 293.248C816.742 293.001 816.434 292.809 816.095 292.686C815.757 292.563 815.396 292.511 815.035 292.533C814.675 292.555 814.324 292.65 814.003 292.813C813.682 292.977 813.4 293.204 813.174 293.481C812.042 294.684 812.515 295.911 813.536 297.02C819.698 303.765 826.488 309.926 833.818 315.423C841.775 321.296 850.431 326.191 859.594 329.999C875.44 336.701 892.637 339.737 909.862 338.871C925.602 338.153 940.748 334.975 955.165 328.573C966.187 323.691 976.282 316.994 985.015 308.769C993.466 300.823 1001.05 292.159 1007.26 282.366C1010.98 276.582 1014.32 270.576 1017.28 264.383C1020.6 257.22 1023.03 249.685 1024.5 241.946C1024.87 240.074 1025.77 239.589 1027.52 239.643C1030.65 239.747 1033.77 239.678 1036.9 239.678C1041.06 239.678 1042.53 238.316 1042.59 234.232C1042.85 218.785 1042.44 203.303 1042.99 187.851H1043.02ZM844.316 161.586C844.314 161.569 844.314 161.553 844.316 161.536C844.371 161.401 844.472 161.288 844.603 161.22C844.636 161.198 844.672 161.179 844.709 161.165L845.136 160.764C845.139 160.785 845.139 160.807 845.136 160.828C845.136 160.828 845.136 160.853 845.136 160.858C845.131 160.892 845.123 160.925 845.111 160.957C845.094 161 845.069 161.039 845.036 161.071C845.007 161.099 844.973 161.121 844.935 161.135H844.89C844.836 161.141 844.782 161.141 844.729 161.135C844.751 161.297 844.723 161.462 844.65 161.608C844.576 161.755 844.46 161.876 844.316 161.957C844.31 161.918 844.31 161.878 844.316 161.838C844.304 161.768 844.304 161.696 844.316 161.625C844.308 161.613 844.302 161.6 844.296 161.586H844.316ZM844.266 162.051C844.085 162.2 843.914 162.353 843.733 162.497C843.698 162.408 843.668 162.309 843.632 162.22L844.266 162.051ZM841.862 164.324C841.862 164.363 841.862 164.408 841.862 164.428C841.837 164.455 841.806 164.475 841.771 164.487L841.862 164.324ZM968.058 269.711C952.645 287.534 933.082 297.486 909.203 299.179C898.143 300.037 887.031 298.386 876.722 294.352C864.253 289.509 853.179 281.734 844.467 271.706C838.271 264.674 833.263 256.707 829.638 248.11C824.683 236.183 822.394 223.602 824.21 210.734C827.52 187.341 838.521 168.2 857.833 153.852C872.763 142.752 889.553 137.387 908.202 137.757C921.1 137.994 933.107 141.757 944.194 148.104C961.443 157.967 974.16 171.76 981.378 190.307C984.9 199.402 986.962 208.705 986.942 216.601C986.756 237.703 980.79 254.991 968.058 269.711Z" fill="#F69420"/>
<path d="M905.506 100.609C896.079 100.515 886.808 101.827 877.637 103.813C857.843 108.095 840.639 117.279 825.709 130.697C824.933 131.408 824.111 132.069 823.249 132.677C822.858 132.995 822.36 133.156 821.853 133.127C821.347 133.099 820.87 132.883 820.518 132.524C820.112 132.18 819.835 131.712 819.733 131.194C819.63 130.676 819.709 130.14 819.954 129.672C820.563 128.285 821.836 127.597 822.887 126.701C836.077 115.754 850.554 107.051 867.154 101.902C881.33 97.5299 895.832 95.4257 910.712 96.1337C932.557 97.0527 953.704 103.971 971.76 116.106C978.37 120.498 984.437 125.513 990.398 130.711C990.566 130.84 990.717 130.988 990.85 131.152C991.711 132.375 993.21 133.563 991.59 135.113C990.081 136.598 988.657 135.608 987.515 134.494C983.74 130.707 979.694 127.191 975.407 123.973C965.055 116.324 953.862 110.234 941.523 106.273C929.9 102.509 917.741 100.597 905.506 100.609Z" fill="#F69420"/>
<path d="M796.77 176.835C797.65 173.369 799.285 170.161 800.824 166.933C802.66 163.153 804.779 159.512 807.162 156.041C807.584 155.399 808.092 154.816 808.671 154.308C809.572 153.541 810.643 153.392 811.554 154.234C812.464 155.075 812.288 156.09 811.483 157.016C806.538 162.739 803.364 169.433 800.703 176.389C800.271 177.518 799.883 178.721 798.289 178.583C797.227 178.489 796.433 178.127 796.77 176.835Z" fill="#F69420"/>
<path d="M999.935 157.813C1000.24 157.031 999.654 155.833 1000.94 155.531C1002.23 155.229 1003.35 155.531 1004.12 156.674C1008.06 162.576 1011.81 168.557 1014.06 175.34C1014.17 175.665 1014.26 175.995 1014.33 176.33C1014.57 177.523 1013.96 178.112 1012.88 178.508C1011.64 178.969 1011.4 178.097 1011.09 177.33C1008.96 172.147 1006.34 167.174 1003.26 162.477C1002.2 160.863 1001.04 159.328 999.925 157.759L999.935 157.813Z" fill="#F69420"/>
<path d="M837.053 168.735C837.25 168.1 837.578 167.512 838.017 167.008C838.456 166.503 838.996 166.094 839.603 165.804V165.774V166.641L839.628 166.611L837.042 168.715L837.053 168.735Z" fill="#A85C33"/>
<path d="M834.91 172.488L834.034 172.904H834.06C834.032 172.632 834.102 172.359 834.256 172.131C834.41 171.904 834.639 171.736 834.905 171.656V171.627C834.905 171.919 834.905 172.206 834.905 172.493L834.91 172.488Z" fill="#A85C33"/>
<path d="M834.91 171.681C834.936 171.418 835.028 171.166 835.176 170.946C835.324 170.726 835.525 170.545 835.76 170.418V170.394C835.736 170.658 835.646 170.912 835.496 171.133C835.347 171.353 835.143 171.533 834.905 171.656L834.91 171.681Z" fill="#A85C33"/>
<path d="M836.202 169.998C836.201 169.728 836.281 169.464 836.433 169.239C836.584 169.015 836.8 168.839 837.053 168.735H837.022V169.597L837.048 169.567L836.172 169.993L836.202 169.998Z" fill="#A85C33"/>
<path d="M999.905 157.793L999.478 158.289C999.478 158.239 999.478 158.17 999.478 158.145C999.618 158.031 999.769 157.927 999.915 157.818L999.905 157.793Z" fill="#A85C33"/>
<path d="M831.041 177.518L831.187 176.964L831.434 177.127L831.082 177.548L831.041 177.518Z" fill="#A85C33"/>
<path d="M833.606 173.335L833.552 173.473L833.631 173.359L833.606 173.335Z" fill="#A85C33"/>
<path d="M833.632 173.359L834.07 172.929H834.044L833.607 173.359H833.632Z" fill="#A85C33"/>
<path d="M835.765 170.418L836.203 169.998L836.172 169.973L835.745 170.394L835.765 170.418Z" fill="#A85C33"/>
<path d="M839.603 165.809L840.036 165.388L840.01 165.359L839.583 165.779L839.603 165.809Z" fill="#A85C33"/>
<path d="M840.036 165.383L840.468 164.962H840.438L840.01 165.378L840.036 165.383Z" fill="#A85C33"/>
<path d="M837.022 169.577V168.715C837.881 168.012 838.743 167.311 839.608 166.611C839.509 167.297 839.213 167.94 838.755 168.465C838.297 168.991 837.696 169.376 837.022 169.577Z" fill="#131313"/>
<path d="M835.745 170.394L836.172 169.973L837.048 169.547C836.961 170.178 836.72 170.778 836.343 171.296C835.967 171.814 835.468 172.233 834.89 172.518V171.651C835.128 171.53 835.332 171.351 835.482 171.131C835.631 170.911 835.722 170.657 835.745 170.394Z" fill="#131313"/>
<path d="M840.01 165.354L840.438 164.938L841.736 164.542C841.359 165.571 840.73 166.383 839.598 166.656V165.789L840.01 165.354Z" fill="#131313"/>
<path d="M844.286 162.017L843.713 162.512L843.617 162.234L844.311 162.046L844.286 162.017Z" fill="#131313"/>
<path d="M844.311 162.031C844.278 161.949 844.261 161.861 844.263 161.772C844.265 161.683 844.285 161.596 844.322 161.515C844.359 161.434 844.413 161.361 844.479 161.301C844.546 161.241 844.624 161.195 844.709 161.165C844.728 161.332 844.698 161.5 844.621 161.65C844.544 161.799 844.424 161.924 844.276 162.007L844.311 162.031Z" fill="#131313"/>
<path d="M841.736 164.542L841.866 164.339C841.866 164.373 841.866 164.428 841.866 164.448C841.824 164.478 841.779 164.503 841.731 164.522L841.736 164.542Z" fill="#131313"/>
<path d="M844.709 161.165L845.141 160.754C845.141 161.031 845.021 161.185 844.729 161.185L844.709 161.165Z" fill="#131313"/>
<path d="M865.947 252.679L865.972 252.724C865.972 252.724 865.972 252.724 865.972 252.694L865.947 252.679Z" fill="#A85C33"/>
<path d="M865.982 252.694C865.982 252.694 865.982 252.719 865.982 252.724C865.972 252.727 865.962 252.727 865.952 252.724C865.203 252.348 865.449 251.615 865.348 251.001C866.098 251.362 866.173 251.986 865.982 252.694Z" fill="#131313"/>
<path d="M866.385 253.972H866.354C865.751 253.699 865.851 253.199 865.947 252.709C865.947 252.709 865.947 252.709 865.947 252.679H865.982C866.601 252.947 866.561 253.442 866.385 253.972Z" fill="#131313"/>
</g>
</g>
<defs>
<filter id="filter0_d_19_494" x="73.06" y="74.4" width="997.54" height="298.2" filterUnits="userSpaceOnUse" color-interpolation-filters="sRGB">
<feFlood flood-opacity="0" result="BackgroundImageFix"/>
<feColorMatrix in="SourceAlpha" type="matrix" values="0 0 0 0 0 0 0 0 0 0 0 0 0 0 0 0 0 0 127 0" result="hardAlpha"/>
<feOffset dy="6"/>
<feGaussianBlur stdDeviation="13.8"/>
<feComposite in2="hardAlpha" operator="out"/>
<feColorMatrix type="matrix" values="0 0 0 0 0 0 0 0 0 0 0 0 0 0 0 0 0 0 1 0"/>
<feBlend mode="normal" in2="BackgroundImageFix" result="effect1_dropShadow_19_494"/>
<feBlend mode="normal" in="SourceGraphic" in2="effect1_dropShadow_19_494" result="shape"/>
</filter>
<filter id="filter1_d_19_494" x="0.660034" y="39.94" width="846.69" height="290.524" filterUnits="userSpaceOnUse" color-interpolation-filters="sRGB">
<feFlood flood-opacity="0" result="BackgroundImageFix"/>
<feColorMatrix in="SourceAlpha" type="matrix" values="0 0 0 0 0 0 0 0 0 0 0 0 0 0 0 0 0 0 127 0" result="hardAlpha"/>
<feOffset dy="4"/>
<feGaussianBlur stdDeviation="50"/>
<feComposite in2="hardAlpha" operator="out"/>
<feColorMatrix type="matrix" values="0 0 0 0 0 0 0 0 0 0 0 0 0 0 0 0 0 0 0.5 0"/>
<feBlend mode="normal" in2="BackgroundImageFix" result="effect1_dropShadow_19_494"/>
<feBlend mode="normal" in="SourceGraphic" in2="effect1_dropShadow_19_494" result="shape"/>
</filter>
<filter id="filter2_d_19_494" x="117.112" y="155.99" width="624.796" height="227.491" filterUnits="userSpaceOnUse" color-interpolation-filters="sRGB">
<feFlood flood-opacity="0" result="BackgroundImageFix"/>
<feColorMatrix in="SourceAlpha" type="matrix" values="0 0 0 0 0 0 0 0 0 0 0 0 0 0 0 0 0 0 127 0" result="hardAlpha"/>
<feOffset dy="4"/>
<feGaussianBlur stdDeviation="50"/>
<feComposite in2="hardAlpha" operator="out"/>
<feColorMatrix type="matrix" values="0 0 0 0 0 0 0 0 0 0 0 0 0 0 0 0 0 0 0.5 0"/>
<feBlend mode="normal" in2="BackgroundImageFix" result="effect1_dropShadow_19_494"/>
<feBlend mode="normal" in="SourceGraphic" in2="effect1_dropShadow_19_494" result="shape"/>
</filter>
<filter id="filter3_d_19_494" x="667" y="0" width="476" height="443" filterUnits="userSpaceOnUse" color-interpolation-filters="sRGB">
<feFlood flood-opacity="0" result="BackgroundImageFix"/>
<feColorMatrix in="SourceAlpha" type="matrix" values="0 0 0 0 0 0 0 0 0 0 0 0 0 0 0 0 0 0 127 0" result="hardAlpha"/>
<feOffset dy="4"/>
<feGaussianBlur stdDeviation="50"/>
<feComposite in2="hardAlpha" operator="out"/>
<feColorMatrix type="matrix" values="0 0 0 0 0 0 0 0 0 0 0 0 0 0 0 0 0 0 0.5 0"/>
<feBlend mode="normal" in2="BackgroundImageFix" result="effect1_dropShadow_19_494"/>
<feBlend mode="normal" in="SourceGraphic" in2="effect1_dropShadow_19_494" result="shape"/>
</filter>
<clipPath id="clip0_19_494">
<rect width="276" height="243" fill="white" transform="translate(767 96)"/>
</clipPath>
</defs>
</svg>
