<svg width="946" height="254" viewBox="0 0 946 254" fill="none" xmlns="http://www.w3.org/2000/svg">
<path d="M47.458 140C40.7887 139.837 34.77 138.658 29.402 136.462C24.1153 134.185 19.52 131.135 15.616 127.312C11.7933 123.408 8.82467 118.894 6.71 113.77C4.67667 108.646 3.66 103.156 3.66 97.3C3.66 91.444 4.67667 85.954 6.71 80.83C8.82467 75.706 11.7933 71.2327 15.616 67.41C19.52 63.506 24.1153 60.4153 29.402 58.138C34.77 55.8607 40.7887 54.6813 47.458 54.6H59.536V67.41H47.824C43.5133 67.4913 39.5687 68.3047 35.99 69.85C32.4113 71.314 29.28 73.388 26.596 76.072C23.9933 78.756 21.96 81.928 20.496 85.588C19.032 89.1667 18.3 93.0707 18.3 97.3C18.3 101.529 19.032 105.474 20.496 109.134C21.96 112.713 23.9933 115.844 26.596 118.528C29.28 121.212 32.4113 123.327 35.99 124.872C39.5687 126.336 43.5133 127.068 47.824 127.068H59.536V140H47.458ZM102.281 141.464C95.8555 141.464 90.1621 140.041 85.2008 137.194C80.2395 134.266 76.2948 130.362 73.3668 125.482C70.5201 120.521 69.0968 114.99 69.0968 108.89C69.0968 102.79 70.5201 97.3 73.3668 92.42C76.2948 87.4587 80.2395 83.5547 85.2008 80.708C90.1621 77.78 95.8555 76.316 102.281 76.316C108.625 76.316 114.277 77.78 119.239 80.708C124.2 83.5547 128.104 87.418 130.951 92.298C133.879 97.178 135.343 102.709 135.343 108.89C135.343 114.99 133.879 120.521 130.951 125.482C128.104 130.362 124.2 134.266 119.239 137.194C114.277 140.041 108.625 141.464 102.281 141.464ZM102.281 129.508C106.103 129.508 109.438 128.613 112.285 126.824C115.131 124.953 117.327 122.473 118.873 119.382C120.418 116.291 121.191 112.794 121.191 108.89C121.191 105.067 120.418 101.611 118.873 98.52C117.327 95.348 115.131 92.8673 112.285 91.078C109.438 89.2073 106.103 88.272 102.281 88.272C98.3768 88.272 95.0015 89.2073 92.1548 91.078C89.3895 92.8673 87.1935 95.3073 85.5668 98.398C84.0215 101.489 83.2488 104.986 83.2488 108.89C83.2488 112.713 84.0215 116.21 85.5668 119.382C87.1935 122.473 89.3895 124.953 92.1548 126.824C95.0015 128.613 98.3768 129.508 102.281 129.508ZM148.403 140V128.044H178.415C179.879 128.044 181.139 127.719 182.197 127.068C183.335 126.417 184.189 125.563 184.759 124.506C185.409 123.449 185.735 122.351 185.735 121.212C185.735 119.911 185.45 118.772 184.881 117.796C184.311 116.82 183.498 116.047 182.441 115.478C181.383 114.827 180.163 114.502 178.781 114.502H166.581C162.595 114.502 159.057 113.851 155.967 112.55C152.876 111.249 150.436 109.256 148.647 106.572C146.857 103.807 145.963 100.35 145.963 96.202C145.963 92.8673 146.776 89.8173 148.403 87.052C150.111 84.2867 152.388 82.05 155.235 80.342C158.081 78.634 161.294 77.78 164.873 77.78H193.787V89.736H166.215C164.344 89.736 162.799 90.346 161.579 91.566C160.359 92.7047 159.749 94.128 159.749 95.836C159.749 97.4627 160.359 98.886 161.579 100.106C162.799 101.326 164.425 101.936 166.459 101.936H178.293C182.766 101.936 186.589 102.627 189.761 104.01C192.933 105.393 195.332 107.467 196.959 110.232C198.667 112.997 199.521 116.495 199.521 120.724C199.521 124.14 198.667 127.353 196.959 130.362C195.251 133.29 192.892 135.649 189.883 137.438C186.955 139.146 183.62 140 179.879 140H148.403ZM213.459 140V102.79C213.459 97.9913 214.598 93.5993 216.875 89.614C219.152 85.5473 222.446 82.3347 226.757 79.976C231.068 77.536 236.232 76.316 242.251 76.316C245.179 76.316 247.985 76.682 250.669 77.414C253.353 78.146 255.834 79.3253 258.111 80.952C260.47 82.4973 262.462 84.4493 264.089 86.808H264.211C265.838 84.4493 267.79 82.4973 270.067 80.952C272.426 79.3253 274.947 78.146 277.631 77.414C280.396 76.682 283.243 76.316 286.171 76.316C292.271 76.316 297.436 77.536 301.665 79.976C305.976 82.3347 309.27 85.5473 311.547 89.614C313.824 93.5993 314.963 97.9913 314.963 102.79V140H301.055V102.79C301.055 100.106 300.364 97.666 298.981 95.47C297.68 93.274 295.931 91.5253 293.735 90.224C291.539 88.9227 289.018 88.272 286.171 88.272C283.406 88.272 280.884 88.9227 278.607 90.224C276.33 91.5253 274.5 93.274 273.117 95.47C271.816 97.666 271.165 100.106 271.165 102.79V140H257.257V102.79C257.257 100.106 256.566 97.666 255.183 95.47C253.8 93.274 251.97 91.5253 249.693 90.224C247.497 88.9227 245.016 88.272 242.251 88.272C239.486 88.272 236.964 88.9227 234.687 90.224C232.491 91.5253 230.702 93.274 229.319 95.47C228.018 97.666 227.367 100.106 227.367 102.79V140H213.459ZM361.412 141.464C354.986 141.464 349.293 140.041 344.332 137.194C339.37 134.266 335.426 130.362 332.498 125.482C329.651 120.521 328.228 114.99 328.228 108.89C328.228 102.79 329.651 97.3 332.498 92.42C335.426 87.4587 339.37 83.5547 344.332 80.708C349.293 77.78 354.986 76.316 361.412 76.316C367.756 76.316 373.408 77.78 378.37 80.708C383.331 83.5547 387.235 87.418 390.082 92.298C393.01 97.178 394.474 102.709 394.474 108.89C394.474 114.99 393.01 120.521 390.082 125.482C387.235 130.362 383.331 134.266 378.37 137.194C373.408 140.041 367.756 141.464 361.412 141.464ZM361.412 129.508C365.234 129.508 368.569 128.613 371.416 126.824C374.262 124.953 376.458 122.473 378.004 119.382C379.549 116.291 380.322 112.794 380.322 108.89C380.322 105.067 379.549 101.611 378.004 98.52C376.458 95.348 374.262 92.8673 371.416 91.078C368.569 89.2073 365.234 88.272 361.412 88.272C357.508 88.272 354.132 89.2073 351.286 91.078C348.52 92.8673 346.324 95.3073 344.698 98.398C343.152 101.489 342.38 104.986 342.38 108.89C342.38 112.713 343.152 116.21 344.698 119.382C346.324 122.473 348.52 124.953 351.286 126.824C354.132 128.613 357.508 129.508 361.412 129.508ZM446.817 140C440.148 139.837 434.129 138.658 428.761 136.462C423.475 134.185 418.879 131.135 414.975 127.312C411.153 123.408 408.184 118.894 406.069 113.77C404.036 108.646 403.019 103.156 403.019 97.3C403.019 91.444 404.036 85.954 406.069 80.83C408.184 75.706 411.153 71.2327 414.975 67.41C418.879 63.506 423.475 60.4153 428.761 58.138C434.129 55.8607 440.148 54.6813 446.817 54.6H458.895V67.41H447.183C442.873 67.4913 438.928 68.3047 435.349 69.85C431.771 71.314 428.639 73.388 425.955 76.072C423.353 78.756 421.319 81.928 419.855 85.588C418.391 89.1667 417.659 93.0707 417.659 97.3C417.659 101.529 418.391 105.474 419.855 109.134C421.319 112.713 423.353 115.844 425.955 118.528C428.639 121.212 431.771 123.327 435.349 124.872C438.928 126.336 442.873 127.068 447.183 127.068H458.895V140H446.817ZM497.248 141.464C491.311 141.464 486.187 140 481.876 137.072C477.566 134.144 474.231 130.24 471.872 125.36C469.595 120.399 468.456 114.949 468.456 109.012C468.456 102.831 469.758 97.3 472.36 92.42C475.044 87.4587 478.826 83.5547 483.706 80.708C488.668 77.78 494.564 76.316 501.396 76.316C508.147 76.316 513.881 77.78 518.598 80.708C523.397 83.5547 527.057 87.4587 529.578 92.42C532.181 97.3 533.482 102.749 533.482 108.768V140H519.452V128.41H519.208C517.988 130.687 516.402 132.843 514.45 134.876C512.498 136.828 510.099 138.414 507.252 139.634C504.406 140.854 501.071 141.464 497.248 141.464ZM501.03 129.508C504.69 129.508 507.862 128.613 510.546 126.824C513.312 124.953 515.467 122.473 517.012 119.382C518.558 116.21 519.29 112.672 519.208 108.768C519.208 104.864 518.476 101.407 517.012 98.398C515.548 95.3073 513.474 92.8673 510.79 91.078C508.106 89.2073 504.894 88.272 501.152 88.272C497.248 88.272 493.914 89.2073 491.148 91.078C488.383 92.8673 486.268 95.3073 484.804 98.398C483.34 101.489 482.608 104.986 482.608 108.89C482.608 112.713 483.34 116.21 484.804 119.382C486.268 122.473 488.342 124.953 491.026 126.824C493.792 128.613 497.126 129.508 501.03 129.508ZM554.174 140V89.736H543.316V77.78H554.174V68.63C554.174 63.0993 555.719 58.7887 558.81 55.698C561.982 52.526 566.333 50.94 571.864 50.94H588.456V62.896H574.426C572.555 62.896 571.05 63.4653 569.912 64.604C568.773 65.7427 568.204 67.288 568.204 69.24V77.78H585.894V89.736H568.204V140H554.174ZM625.828 140C618.833 140 612.692 138.699 607.406 136.096C602.2 133.412 598.134 129.752 595.206 125.116C592.278 120.399 590.814 114.99 590.814 108.89C590.814 102.465 592.115 96.812 594.718 91.932C597.32 87.052 600.899 83.2293 605.454 80.464C610.008 77.6987 615.254 76.316 621.192 76.316C627.861 76.316 633.351 77.7393 637.662 80.586C641.972 83.4327 645.144 87.2553 647.178 92.054C649.292 96.8527 650.35 102.221 650.35 108.158C650.35 108.971 650.309 109.907 650.228 110.964C650.146 112.021 650.024 112.835 649.862 113.404H605.698C606.186 116.657 607.365 119.382 609.236 121.578C611.106 123.693 613.465 125.319 616.312 126.458C619.158 127.515 622.33 128.044 625.828 128.044H642.542V140H625.828ZM605.576 103.888H636.32C636.238 102.343 635.994 100.797 635.588 99.252C635.262 97.7067 634.693 96.2427 633.88 94.86C633.148 93.4773 632.172 92.298 630.952 91.322C629.813 90.2647 628.43 89.4513 626.804 88.882C625.177 88.2313 623.306 87.906 621.192 87.906C618.752 87.906 616.596 88.394 614.726 89.37C612.855 90.2647 611.269 91.4847 609.968 93.03C608.666 94.494 607.65 96.202 606.918 98.154C606.267 100.025 605.82 101.936 605.576 103.888ZM615.58 69.606L626.316 54.6H639.492L628.756 69.606H615.58Z" fill="white"/>
<path d="M130.139 194.481C128.19 194.481 126.463 194.062 124.959 193.223C123.454 192.36 122.27 191.151 121.407 189.597C120.543 188.043 120.112 186.193 120.112 184.047V168.1H122.776V184.417C122.776 185.823 123.072 187.106 123.664 188.265C124.28 189.4 125.131 190.325 126.217 191.04C127.327 191.731 128.634 192.076 130.139 192.076C131.668 192.076 132.975 191.731 134.061 191.04C135.171 190.349 136.022 189.424 136.614 188.265C137.206 187.106 137.502 185.823 137.502 184.417V168.1H140.166V184.047C140.166 186.193 139.734 188.043 138.871 189.597C138.007 191.151 136.823 192.36 135.319 193.223C133.814 194.062 132.087 194.481 130.139 194.481ZM145.874 194V182.604C145.874 181.149 146.195 179.829 146.836 178.645C147.502 177.436 148.44 176.474 149.648 175.759C150.857 175.044 152.3 174.686 153.977 174.686C154.841 174.686 155.716 174.822 156.604 175.093C157.517 175.34 158.356 175.784 159.12 176.425C159.91 177.042 160.526 177.905 160.97 179.015H161.007C161.451 177.905 162.068 177.042 162.857 176.425C163.647 175.784 164.498 175.34 165.41 175.093C166.323 174.822 167.199 174.686 168.037 174.686C169.739 174.686 171.195 175.044 172.403 175.759C173.612 176.474 174.537 177.436 175.178 178.645C175.82 179.829 176.14 181.149 176.14 182.604V194H173.587V182.604C173.587 181.494 173.341 180.52 172.847 179.681C172.354 178.842 171.688 178.176 170.849 177.683C170.035 177.165 169.098 176.906 168.037 176.906C166.952 176.906 165.978 177.165 165.114 177.683C164.251 178.176 163.56 178.855 163.042 179.718C162.549 180.581 162.302 181.543 162.302 182.604V194H159.712V182.604C159.712 181.543 159.453 180.581 158.935 179.718C158.417 178.855 157.727 178.176 156.863 177.683C156.025 177.165 155.063 176.906 153.977 176.906C152.941 176.906 151.992 177.165 151.128 177.683C150.29 178.176 149.624 178.842 149.13 179.681C148.662 180.52 148.427 181.494 148.427 182.604V194H145.874ZM200.24 194.481C198.661 194.481 197.218 194.148 195.911 193.482C194.603 192.791 193.555 191.817 192.766 190.559C192.001 189.301 191.619 187.821 191.619 186.119V175.13H194.209V186.008C194.209 187.315 194.492 188.438 195.06 189.375C195.652 190.312 196.404 191.028 197.317 191.521C198.229 191.99 199.204 192.224 200.24 192.224C201.3 192.224 202.287 191.977 203.2 191.484C204.137 190.991 204.889 190.288 205.457 189.375C206.024 188.438 206.308 187.315 206.308 186.008V175.13H208.898V186.119C208.898 187.821 208.503 189.301 207.714 190.559C206.949 191.817 205.913 192.791 204.606 193.482C203.323 194.148 201.868 194.481 200.24 194.481ZM214.599 194V183.011C214.599 181.284 214.981 179.804 215.746 178.571C216.535 177.313 217.584 176.351 218.891 175.685C220.198 174.994 221.641 174.649 223.22 174.649C224.823 174.649 226.266 174.994 227.549 175.685C228.856 176.351 229.892 177.313 230.657 178.571C231.446 179.804 231.841 181.284 231.841 183.011V194H229.251V183.122C229.251 181.815 228.967 180.705 228.4 179.792C227.833 178.855 227.08 178.139 226.143 177.646C225.23 177.153 224.244 176.906 223.183 176.906C222.147 176.906 221.173 177.153 220.26 177.646C219.347 178.115 218.607 178.818 218.04 179.755C217.473 180.668 217.189 181.79 217.189 183.122V194H214.599ZM237.543 194V175.13H240.133V194H237.543ZM238.838 171.726C238.345 171.726 237.913 171.541 237.543 171.171C237.173 170.801 236.988 170.369 236.988 169.876C236.988 169.358 237.173 168.926 237.543 168.581C237.913 168.211 238.345 168.026 238.838 168.026C239.356 168.026 239.788 168.211 240.133 168.581C240.503 168.926 240.688 169.358 240.688 169.876C240.688 170.369 240.503 170.801 240.133 171.171C239.788 171.541 239.356 171.726 238.838 171.726ZM253.662 194.444C252.922 194.444 252.268 194.234 251.701 193.815C251.158 193.371 250.714 192.73 250.369 191.891L243.894 175.167H246.78L252.737 191.003C252.885 191.324 253.033 191.558 253.181 191.706C253.329 191.854 253.501 191.928 253.699 191.928C253.871 191.928 254.019 191.854 254.143 191.706C254.291 191.558 254.426 191.324 254.55 191.003L260.581 175.167H263.43L256.881 191.928C256.56 192.767 256.116 193.396 255.549 193.815C255.006 194.234 254.377 194.444 253.662 194.444ZM276.069 194C274.046 194 272.233 193.63 270.63 192.89C269.051 192.125 267.793 191.04 266.856 189.634C265.943 188.228 265.487 186.538 265.487 184.565C265.487 182.74 265.857 181.087 266.597 179.607C267.337 178.102 268.373 176.906 269.705 176.018C271.061 175.13 272.64 174.686 274.441 174.686C276.291 174.686 277.857 175.093 279.14 175.907C280.422 176.721 281.397 177.819 282.063 179.2C282.729 180.581 283.062 182.135 283.062 183.862C283.062 184.109 283.049 184.38 283.025 184.676C283 184.972 282.963 185.231 282.914 185.453H268.225C268.299 186.834 268.693 187.994 269.409 188.931C270.124 189.868 271.049 190.571 272.184 191.04C273.343 191.509 274.589 191.743 275.921 191.743H280.694V194H276.069ZM268.225 183.603H280.435C280.435 183.11 280.385 182.567 280.287 181.975C280.188 181.358 280.003 180.754 279.732 180.162C279.485 179.57 279.127 179.027 278.659 178.534C278.215 178.041 277.635 177.646 276.92 177.35C276.229 177.029 275.378 176.869 274.367 176.869C273.429 176.869 272.578 177.066 271.814 177.461C271.049 177.856 270.408 178.386 269.89 179.052C269.372 179.693 268.965 180.409 268.669 181.198C268.397 181.987 268.249 182.789 268.225 183.603ZM287.622 194V180.495C287.622 178.818 288.09 177.51 289.028 176.573C289.99 175.611 291.309 175.13 292.987 175.13H296.243V177.387H293.505C292.419 177.387 291.593 177.683 291.026 178.275C290.483 178.867 290.212 179.706 290.212 180.791V194H287.622ZM299.176 194V191.743H308.056C308.821 191.743 309.462 191.583 309.98 191.262C310.498 190.941 310.893 190.522 311.164 190.004C311.46 189.486 311.608 188.956 311.608 188.413C311.608 187.87 311.485 187.377 311.238 186.933C310.992 186.464 310.634 186.082 310.165 185.786C309.697 185.49 309.105 185.342 308.389 185.342H304.43C303.222 185.342 302.173 185.145 301.285 184.75C300.422 184.331 299.756 183.739 299.287 182.974C298.843 182.209 298.621 181.321 298.621 180.31C298.621 179.397 298.843 178.546 299.287 177.757C299.731 176.968 300.36 176.339 301.174 175.87C301.988 175.377 302.938 175.13 304.023 175.13H312.57V177.387H304.282C303.32 177.387 302.568 177.683 302.025 178.275C301.483 178.842 301.211 179.496 301.211 180.236C301.211 180.951 301.483 181.593 302.025 182.16C302.568 182.727 303.382 183.011 304.467 183.011H308.167C309.499 183.011 310.609 183.233 311.497 183.677C312.41 184.121 313.088 184.738 313.532 185.527C314.001 186.316 314.235 187.241 314.235 188.302C314.235 189.264 313.989 190.189 313.495 191.077C313.002 191.94 312.324 192.643 311.46 193.186C310.622 193.729 309.635 194 308.5 194H299.176ZM327.72 194.481C325.821 194.481 324.131 194.049 322.651 193.186C321.171 192.298 320.012 191.102 319.173 189.597C318.335 188.092 317.915 186.415 317.915 184.565C317.915 182.715 318.335 181.038 319.173 179.533C320.012 178.028 321.171 176.844 322.651 175.981C324.131 175.093 325.821 174.649 327.72 174.649C329.62 174.649 331.297 175.093 332.752 175.981C334.232 176.844 335.392 178.028 336.23 179.533C337.094 181.013 337.525 182.69 337.525 184.565C337.525 186.415 337.094 188.092 336.23 189.597C335.392 191.102 334.232 192.298 332.752 193.186C331.297 194.049 329.62 194.481 327.72 194.481ZM327.72 192.224C329.126 192.224 330.372 191.891 331.457 191.225C332.543 190.534 333.381 189.609 333.973 188.45C334.59 187.291 334.898 185.996 334.898 184.565C334.898 183.134 334.59 181.839 333.973 180.68C333.381 179.521 332.543 178.608 331.457 177.942C330.372 177.251 329.126 176.906 327.72 176.906C326.29 176.906 325.032 177.251 323.946 177.942C322.886 178.608 322.047 179.521 321.43 180.68C320.838 181.839 320.542 183.134 320.542 184.565C320.542 185.996 320.838 187.291 321.43 188.45C322.047 189.609 322.886 190.534 323.946 191.225C325.032 191.891 326.29 192.224 327.72 192.224ZM360.596 194.481C359.289 194.481 358.043 194.259 356.859 193.815C355.7 193.346 354.676 192.68 353.788 191.817C352.925 190.954 352.246 189.905 351.753 188.672C351.26 187.414 351.013 185.996 351.013 184.417C351.013 182.394 351.432 180.668 352.271 179.237C353.11 177.782 354.22 176.659 355.601 175.87C357.007 175.081 358.561 174.686 360.263 174.686C361.299 174.686 362.286 174.871 363.223 175.241C364.16 175.611 364.999 176.129 365.739 176.795C366.479 177.436 367.059 178.176 367.478 179.015H367.552V166.99H370.142V184.602C370.142 186.699 369.71 188.487 368.847 189.967C367.984 191.447 366.824 192.569 365.369 193.334C363.938 194.099 362.347 194.481 360.596 194.481ZM360.633 192.224C361.866 192.224 363.001 191.928 364.037 191.336C365.098 190.744 365.936 189.881 366.553 188.746C367.194 187.611 367.515 186.23 367.515 184.602C367.515 182.974 367.194 181.593 366.553 180.458C365.912 179.323 365.061 178.46 364 177.868C362.964 177.251 361.817 176.943 360.559 176.943C359.326 176.943 358.179 177.251 357.118 177.868C356.082 178.485 355.243 179.373 354.602 180.532C353.961 181.667 353.64 183.011 353.64 184.565C353.64 186.168 353.961 187.55 354.602 188.709C355.243 189.844 356.094 190.719 357.155 191.336C358.24 191.928 359.4 192.224 360.633 192.224ZM385.334 194C383.312 194 381.499 193.63 379.895 192.89C378.317 192.125 377.059 191.04 376.121 189.634C375.209 188.228 374.752 186.538 374.752 184.565C374.752 182.74 375.122 181.087 375.862 179.607C376.602 178.102 377.638 176.906 378.97 176.018C380.327 175.13 381.906 174.686 383.706 174.686C385.556 174.686 387.123 175.093 388.405 175.907C389.688 176.721 390.662 177.819 391.328 179.2C391.994 180.581 392.327 182.135 392.327 183.862C392.327 184.109 392.315 184.38 392.29 184.676C392.266 184.972 392.229 185.231 392.179 185.453H377.49C377.564 186.834 377.959 187.994 378.674 188.931C379.39 189.868 380.315 190.571 381.449 191.04C382.609 191.509 383.854 191.743 385.186 191.743H389.959V194H385.334ZM377.49 183.603H389.7C389.7 183.11 389.651 182.567 389.552 181.975C389.454 181.358 389.269 180.754 388.997 180.162C388.751 179.57 388.393 179.027 387.924 178.534C387.48 178.041 386.901 177.646 386.185 177.35C385.495 177.029 384.644 176.869 383.632 176.869C382.695 176.869 381.844 177.066 381.079 177.461C380.315 177.856 379.673 178.386 379.155 179.052C378.637 179.693 378.23 180.409 377.934 181.198C377.663 181.987 377.515 182.789 377.49 183.603ZM406.346 194V191.743H415.226C415.991 191.743 416.632 191.583 417.15 191.262C417.668 190.941 418.063 190.522 418.334 190.004C418.63 189.486 418.778 188.956 418.778 188.413C418.778 187.87 418.655 187.377 418.408 186.933C418.162 186.464 417.804 186.082 417.335 185.786C416.867 185.49 416.275 185.342 415.559 185.342H411.6C410.392 185.342 409.343 185.145 408.455 184.75C407.592 184.331 406.926 183.739 406.457 182.974C406.013 182.209 405.791 181.321 405.791 180.31C405.791 179.397 406.013 178.546 406.457 177.757C406.901 176.968 407.53 176.339 408.344 175.87C409.158 175.377 410.108 175.13 411.193 175.13H419.74V177.387H411.452C410.49 177.387 409.738 177.683 409.195 178.275C408.653 178.842 408.381 179.496 408.381 180.236C408.381 180.951 408.653 181.593 409.195 182.16C409.738 182.727 410.552 183.011 411.637 183.011H415.337C416.669 183.011 417.779 183.233 418.667 183.677C419.58 184.121 420.258 184.738 420.702 185.527C421.171 186.316 421.405 187.241 421.405 188.302C421.405 189.264 421.159 190.189 420.665 191.077C420.172 191.94 419.494 192.643 418.63 193.186C417.792 193.729 416.805 194 415.67 194H406.346ZM434.15 194.481C432.251 194.481 430.623 194.037 429.266 193.149C427.91 192.261 426.874 191.077 426.158 189.597C425.443 188.092 425.085 186.415 425.085 184.565C425.085 182.69 425.48 181.013 426.269 179.533C427.059 178.028 428.181 176.844 429.636 175.981C431.116 175.118 432.868 174.686 434.89 174.686C436.839 174.686 438.516 175.118 439.922 175.981C441.353 176.844 442.451 178.004 443.215 179.459C444.005 180.914 444.399 182.555 444.399 184.38V194H441.846V189.782H441.735C441.39 190.522 440.872 191.262 440.181 192.002C439.491 192.717 438.64 193.309 437.628 193.778C436.642 194.247 435.482 194.481 434.15 194.481ZM434.705 192.261C436.087 192.261 437.308 191.928 438.368 191.262C439.429 190.571 440.268 189.646 440.884 188.487C441.501 187.303 441.797 185.971 441.772 184.491C441.772 183.036 441.489 181.741 440.921 180.606C440.354 179.471 439.552 178.571 438.516 177.905C437.48 177.239 436.247 176.906 434.816 176.906C433.336 176.906 432.066 177.251 431.005 177.942C429.945 178.608 429.131 179.533 428.563 180.717C427.996 181.876 427.712 183.196 427.712 184.676C427.712 186.057 427.984 187.328 428.526 188.487C429.069 189.646 429.858 190.571 430.894 191.262C431.955 191.928 433.225 192.261 434.705 192.261ZM459.585 194.481C457.858 194.481 456.267 194.099 454.812 193.334C453.356 192.569 452.197 191.447 451.334 189.967C450.47 188.487 450.039 186.699 450.039 184.602V166.99H452.629V179.015H452.703C453.122 178.176 453.702 177.436 454.442 176.795C455.182 176.129 456.02 175.611 456.958 175.241C457.895 174.871 458.882 174.686 459.918 174.686C461.62 174.686 463.161 175.081 464.543 175.87C465.949 176.659 467.071 177.782 467.91 179.237C468.748 180.668 469.168 182.394 469.168 184.417C469.168 185.996 468.921 187.414 468.428 188.672C467.934 189.905 467.244 190.954 466.356 191.817C465.492 192.68 464.481 193.346 463.322 193.815C462.162 194.259 460.917 194.481 459.585 194.481ZM459.548 192.224C460.806 192.224 461.965 191.928 463.026 191.336C464.086 190.719 464.937 189.844 465.579 188.709C466.22 187.55 466.541 186.168 466.541 184.565C466.541 183.011 466.22 181.667 465.579 180.532C464.937 179.373 464.086 178.485 463.026 177.868C461.99 177.251 460.855 176.943 459.622 176.943C458.388 176.943 457.241 177.251 456.181 177.868C455.12 178.46 454.269 179.323 453.628 180.458C452.986 181.593 452.666 182.974 452.666 184.602C452.666 186.23 452.974 187.611 453.591 188.746C454.232 189.881 455.071 190.744 456.107 191.336C457.167 191.928 458.314 192.224 459.548 192.224ZM482.658 194.481C480.759 194.481 479.069 194.049 477.589 193.186C476.109 192.298 474.95 191.102 474.111 189.597C473.272 188.092 472.853 186.415 472.853 184.565C472.853 182.715 473.272 181.038 474.111 179.533C474.95 178.028 476.109 176.844 477.589 175.981C479.069 175.093 480.759 174.649 482.658 174.649C484.557 174.649 486.235 175.093 487.69 175.981C489.17 176.844 490.329 178.028 491.168 179.533C492.031 181.013 492.463 182.69 492.463 184.565C492.463 186.415 492.031 188.092 491.168 189.597C490.329 191.102 489.17 192.298 487.69 193.186C486.235 194.049 484.557 194.481 482.658 194.481ZM482.658 192.224C484.064 192.224 485.31 191.891 486.395 191.225C487.48 190.534 488.319 189.609 488.911 188.45C489.528 187.291 489.836 185.996 489.836 184.565C489.836 183.134 489.528 181.839 488.911 180.68C488.319 179.521 487.48 178.608 486.395 177.942C485.31 177.251 484.064 176.906 482.658 176.906C481.227 176.906 479.969 177.251 478.884 177.942C477.823 178.608 476.985 179.521 476.368 180.68C475.776 181.839 475.48 183.134 475.48 184.565C475.48 185.996 475.776 187.291 476.368 188.45C476.985 189.609 477.823 190.534 478.884 191.225C479.969 191.891 481.227 192.224 482.658 192.224ZM497.084 194V180.495C497.084 178.818 497.552 177.51 498.49 176.573C499.452 175.611 500.771 175.13 502.449 175.13H505.705V177.387H502.967C501.881 177.387 501.055 177.683 500.488 178.275C499.945 178.867 499.674 179.706 499.674 180.791V194H497.084ZM518.628 194C516.606 194 514.793 193.63 513.189 192.89C511.611 192.125 510.353 191.04 509.415 189.634C508.503 188.228 508.046 186.538 508.046 184.565C508.046 182.74 508.416 181.087 509.156 179.607C509.896 178.102 510.932 176.906 512.264 176.018C513.621 175.13 515.2 174.686 517 174.686C518.85 174.686 520.417 175.093 521.699 175.907C522.982 176.721 523.956 177.819 524.622 179.2C525.288 180.581 525.621 182.135 525.621 183.862C525.621 184.109 525.609 184.38 525.584 184.676C525.56 184.972 525.523 185.231 525.473 185.453H510.784C510.858 186.834 511.253 187.994 511.968 188.931C512.684 189.868 513.609 190.571 514.743 191.04C515.903 191.509 517.148 191.743 518.48 191.743H523.253V194H518.628ZM510.784 183.603H522.994C522.994 183.11 522.945 182.567 522.846 181.975C522.748 181.358 522.563 180.754 522.291 180.162C522.045 179.57 521.687 179.027 521.218 178.534C520.774 178.041 520.195 177.646 519.479 177.35C518.789 177.029 517.938 176.869 516.926 176.869C515.989 176.869 515.138 177.066 514.373 177.461C513.609 177.856 512.967 178.386 512.449 179.052C511.931 179.693 511.524 180.409 511.228 181.198C510.957 181.987 510.809 182.789 510.784 183.603ZM529.848 194V191.743H538.728C539.493 191.743 540.134 191.583 540.652 191.262C541.17 190.941 541.565 190.522 541.836 190.004C542.132 189.486 542.28 188.956 542.28 188.413C542.28 187.87 542.157 187.377 541.91 186.933C541.664 186.464 541.306 186.082 540.837 185.786C540.369 185.49 539.777 185.342 539.061 185.342H535.102C533.894 185.342 532.845 185.145 531.957 184.75C531.094 184.331 530.428 183.739 529.959 182.974C529.515 182.209 529.293 181.321 529.293 180.31C529.293 179.397 529.515 178.546 529.959 177.757C530.403 176.968 531.032 176.339 531.846 175.87C532.66 175.377 533.61 175.13 534.695 175.13H543.242V177.387H534.954C533.992 177.387 533.24 177.683 532.697 178.275C532.155 178.842 531.883 179.496 531.883 180.236C531.883 180.951 532.155 181.593 532.697 182.16C533.24 182.727 534.054 183.011 535.139 183.011H538.839C540.171 183.011 541.281 183.233 542.169 183.677C543.082 184.121 543.76 184.738 544.204 185.527C544.673 186.316 544.907 187.241 544.907 188.302C544.907 189.264 544.661 190.189 544.167 191.077C543.674 191.94 542.996 192.643 542.132 193.186C541.294 193.729 540.307 194 539.172 194H529.848Z" fill="white"/>
<g clip-path="url(#clip0_19_494)">
<path d="M780.295 188.424C769.47 183.938 763.232 175.952 761.457 164.535C761.406 164.344 761.332 164.16 761.235 163.986C760.023 162.812 760.415 161.194 760.265 159.827C759.621 154.015 759.118 148.187 758.755 142.345C758.675 141.088 758.313 139.726 759.168 138.538C762.84 135.567 767.292 134.577 771.789 133.933C785.215 132.012 798.747 131.854 812.268 132.186C822.52 132.438 832.812 132.681 842.903 134.859C844.709 135.245 846.616 135.523 848.15 136.726C848.653 137.944 848.613 138.934 847.249 139.642C845.665 140.459 843.225 140.375 842.123 139.241C841.477 138.508 840.611 137.996 839.65 137.779C838.689 137.561 837.683 137.65 836.776 138.033C813.481 135.369 783.701 135.632 769.666 138.82C769.807 139.365 770.461 139.315 770.708 139.711C771.779 140.746 773.268 140.602 774.495 140.642C777.237 140.726 779.953 141.078 782.69 141.216C793.933 141.791 805.186 141.533 816.438 141.602C819.457 141.602 822.44 140.988 825.493 141.152C827.106 141.156 828.711 141.369 830.267 141.786C830.624 142.033 830.971 142.281 830.518 142.746C830.336 142.913 830.12 143.041 829.884 143.121C829.649 143.202 829.399 143.232 829.15 143.211C825.589 143.013 822.973 144.736 820.709 147.202C820.089 147.62 819.353 147.84 818.602 147.831C815.583 148.158 812.53 147.672 809.522 148.182C801.715 148.677 793.928 148.073 786.151 147.687C782.851 147.514 779.566 147.192 776.276 146.945C774.913 146.831 774.516 147.291 774.621 148.559C774.761 151.243 775.077 153.915 775.567 156.559C775.859 157.921 775.668 159.327 776.07 160.664C776.488 163.258 777.047 165.828 777.745 168.363C777.849 168.753 777.923 169.15 777.966 169.551C778.097 170.204 778.384 171.036 777.594 171.333C776.804 171.63 776.417 170.868 776.005 170.343C773.288 165.016 771.447 159.451 771.125 153.435C770.989 151.584 770.587 149.752 770.687 147.88C770.763 146.563 770.184 145.836 768.821 145.647C767.651 145.449 766.493 145.181 765.355 144.845C763.253 144.256 763.917 145.944 764.007 146.682C764.455 150.514 764.576 154.376 765.114 158.198C765.466 160.674 765.642 163.149 766.246 165.565C767.755 171.536 770.843 176.655 774.943 181.23C775.074 182.513 774.44 182.567 773.64 181.899C772.83 181.256 772.057 180.568 771.326 179.839C774.013 182.656 776.357 185.953 780.688 186.508C780.881 186.537 781.065 186.605 781.229 186.71C781.393 186.814 781.532 186.951 781.639 187.112C781.705 187.285 781.714 187.474 781.664 187.652C781.372 188.181 780.668 188.018 780.295 188.424Z" fill="#F1F0EC"/>
<path d="M820.473 146.722C822.52 144.004 825.181 142.494 828.702 142.598C829.381 142.598 830.116 142.726 830.714 142.241C832.5 140.969 834.633 141.523 836.585 141.251C839.704 140.85 842.802 140.34 845.936 140.048C847.415 139.914 848.633 139.008 849.719 138.008C850.916 137.978 849.976 139.988 851.404 139.736C852.516 140.231 853.597 139.409 854.724 139.672C855.368 139.82 856.108 139.533 856.686 140.053C857.224 140.711 857.4 141.538 857.853 142.251C858.598 143.41 858.054 143.875 856.887 144.014C853.024 144.108 850.886 146.514 850.257 150.588C849.729 154.054 850.338 157.52 849.513 160.926C849.486 161.201 849.434 161.473 849.357 161.738C849.583 161.778 848.582 162.466 849.563 162.109C850.282 162.392 850.207 163.218 850.67 163.669C852.742 164.164 854.448 163.392 856.012 162.149C856.515 161.337 857.39 160.995 858.125 160.466C861.143 158.267 863.271 155.574 863.065 151.603C863.002 150.495 862.673 149.418 862.104 148.46C861.691 147.742 861.218 147.024 861.435 146.123C862.471 145.207 863.12 146.053 863.703 146.692C866.41 149.663 867.436 158.267 863.392 161.491C862.028 162.575 860.912 163.966 859.367 164.828C857.332 166.269 855.1 167.421 852.737 168.249C851.163 168.783 849.553 169.288 848.321 170.487C848.14 171.03 847.855 171.534 847.481 171.972C846.305 173.283 845.433 174.831 844.925 176.507C844.85 176.738 844.727 176.951 844.564 177.133C844.401 177.316 844.202 177.463 843.979 177.566C841.857 178.938 840.69 181.28 838.501 182.636C836.439 183.914 834.688 185.661 832.385 186.597C830.604 187.33 830.629 187.355 830.513 185.404C830.513 185.216 830.116 185.052 830.121 184.74C830.624 183.641 831.721 183.216 832.636 182.626C835.368 180.894 837.983 179.047 839.845 176.344C840.108 175.93 840.494 175.607 840.951 175.418C842.752 174.428 842.988 172.591 843.416 170.868C843.441 170.477 843.622 170.113 843.919 169.853C845.547 167.319 846.336 164.351 846.178 161.357C846.181 159.689 846.384 158.027 846.781 156.406C847.853 152.445 848.472 148.484 847.32 144.469C846.706 144.004 845.961 144.118 845.267 144.033C840.916 144.217 836.716 145.365 832.4 145.845C829.834 146.133 827.279 146.578 824.683 146.563C823.763 146.563 822.852 146.539 822.052 147.088C821.479 147.251 820.91 147.301 820.473 146.722Z" fill="#B9B5B3"/>
<path d="M856.953 143.494C857.164 143.315 858.08 143.588 857.587 143.093C856.726 142.216 856.646 141.201 856.43 140.167C856.742 138.904 857.617 139.672 858.281 139.672C865.323 140.984 871.501 148.227 867.612 156.589C866.005 160.279 863.165 163.319 859.564 165.204C859.106 165.337 858.955 165.13 859 164.709C860.786 163.565 862.104 161.926 863.598 160.476C866.722 157.441 865.565 149.088 862.984 146.766C862.642 146.459 862.371 145.454 861.561 146.271C859.86 147.157 859.549 145.147 858.457 144.826C857.994 144.454 857.35 144.429 856.913 144.014C856.849 143.939 856.817 143.843 856.824 143.745C856.832 143.648 856.878 143.558 856.953 143.494Z" fill="#EEEDEC"/>
<path d="M807.389 107.193L806.514 107.95C805.628 107.802 805.347 109.436 804.446 108.782C803.546 108.129 804.079 107.015 804.074 106.099C804.074 105.321 804.577 104.717 804.899 104.039C806.438 101.069 808.822 98.6178 810.322 95.6225C811.32 93.7172 812.147 91.7291 812.791 89.6813C812.876 89.6292 812.972 89.5969 813.071 89.5866C813.171 89.5763 813.271 89.5883 813.365 89.6219C813.591 89.5229 813.536 90.3398 813.777 89.815C814.472 88.3297 815.387 87.28 817.238 87.5672C818.335 91.7161 817.289 95.4888 815.04 98.9941C813.349 101.642 811.172 103.957 808.621 105.822C808.092 106.161 807.666 106.635 807.389 107.193Z" fill="#BA936A"/>
<path d="M849.724 138.028C850.257 139.067 849.674 139.389 848.763 139.741C845.453 141.028 841.937 141.226 838.486 141.721C835.921 142.078 833.31 142.083 830.72 142.251C817.445 141.612 804.164 142.697 790.894 142.177C784.249 141.914 777.594 141.711 770.979 140.939C770.506 140.885 769.319 140.835 770.677 140.068C771.487 139.572 772.352 140.068 773.193 139.939C779.641 140.667 786.136 140.523 792.605 140.835C793.694 141.124 794.823 141.245 795.95 141.196C800.668 141.196 805.388 141.196 810.11 141.196C810.959 141.219 811.806 141.118 812.625 140.899C815.281 140.518 817.963 140.677 820.629 140.711C826.122 140.781 831.56 139.964 837.033 139.721C837.811 139.712 838.58 139.559 839.301 139.27C839.94 138.983 839.357 138.81 839.125 138.632C838.517 138.34 837.817 138.196 837.47 137.538C837.375 137.29 837.274 136.81 837.541 136.879C839.291 137.374 841.339 137.008 842.601 138.86C843.436 140.102 847.093 139.672 847.999 138.454C848.457 137.835 847.098 137.166 848.175 136.696C848.623 137.221 849.548 137.181 849.724 138.028Z" fill="#FBFBFA"/>
<path d="M847.244 171.907L848.014 170.581C848.038 170.541 848.072 170.507 848.113 170.484C848.154 170.461 848.201 170.449 848.248 170.449C848.295 170.449 848.341 170.461 848.382 170.484C848.423 170.507 848.458 170.541 848.482 170.581C846.741 177.156 842.209 181.626 836.912 185.513C831.736 189.295 825.719 190.959 819.537 192.202C819.356 192.974 818.808 192.92 818.219 192.771C817.163 192.34 815.598 193.647 814.934 191.85C816.006 190.498 817.686 191.088 819.029 190.602C826.132 188.988 833.114 187.102 838.778 182.186C840.086 181.133 841.284 179.956 842.355 178.671C842.777 178.126 843.099 177.462 843.899 177.349C844.135 177.027 844.372 176.7 844.603 176.358C845.428 174.878 846.097 173.229 847.244 171.907Z" fill="#F7F7F7"/>
<path d="M798.777 93.2807C802.751 88.5426 802.424 83.2153 801.076 77.69C800.014 73.3529 800.12 69.1346 803.153 65.4362C803.858 64.5748 803.983 64.5154 805.271 64.3371C802.122 68.7287 802.62 73.1796 804.803 77.7048C805.16 78.4524 805.422 79.2495 805.729 80.0219C805.915 80.517 805.588 80.6259 805.201 80.6804C803.158 78.8535 802.685 76.3136 802.157 73.8529C801.871 72.5063 801.513 71.0358 802.087 69.9367C801.498 71.6497 802.122 73.6599 802.238 75.6353C802.343 77.4276 802.816 79.1901 803.128 80.9626C803.671 84.0223 803.591 87.0523 802.369 89.9536C801.75 91.4389 801.056 92.8945 799.391 93.548C799.273 93.5741 799.149 93.5622 799.039 93.5141C798.928 93.466 798.836 93.3841 798.777 93.2807Z" fill="#EBE1C8"/>
<path d="M800.628 113.436C800.653 110.079 801.025 106.832 803.566 104.252C803.606 104.213 803.654 104.184 803.708 104.167C803.761 104.149 803.818 104.145 803.874 104.153C803.929 104.161 803.982 104.182 804.028 104.214C804.075 104.246 804.112 104.288 804.139 104.336C804.471 105.015 804.033 105.569 803.747 106.084C802.532 108.295 801.958 110.792 802.087 113.303C803.274 118.11 802.524 123.002 802.836 126.338C802.565 123.734 802.947 119.63 802.882 115.516C803.088 114.169 802.736 112.728 803.535 111.485C803.742 111.164 803.983 110.698 804.476 111.084C804.708 111.263 804.602 111.58 804.476 111.837C803.681 117.491 804.396 123.224 803.661 128.868C803.581 129.482 804.119 130.562 802.766 130.492C801.538 130.428 801.87 129.398 801.85 128.75C801.659 123.625 801.453 118.506 800.628 113.436Z" fill="#ECE3D0"/>
<path d="M813.305 89.6367C813.184 89.6367 813.063 89.6664 812.942 89.6912C812.661 89.6912 812.651 89.4238 812.535 89.2605C813.456 85.4729 812.253 81.9132 811.131 78.2247C816.484 80.8933 819.215 88.2851 817.404 94.4986C815.785 100.073 811.816 103.797 807.389 107.193C807.711 105.51 809.215 104.812 810.357 103.861C814.763 100.177 817.218 95.5482 817.49 89.8546C817.439 89.0965 817.297 88.347 817.067 87.6217C815.634 85.8393 815.236 83.443 813.677 82.0666C814.371 84.4431 814.698 87.0672 813.305 89.6367Z" fill="#CBAF92"/>
<path d="M808.973 124.224C809.634 121.567 809.751 118.807 809.315 116.105C809.266 115.769 809.286 115.426 809.372 115.097C809.458 114.768 809.61 114.46 809.818 114.189C812.711 116.318 813.526 119.947 812.052 124.091C811.496 125.075 810.757 125.948 809.874 126.665C808.838 126.14 809.2 125.071 808.973 124.224Z" fill="#C8A27A"/>
<path d="M801.463 113.015C801.015 109.723 802.55 107.01 804.059 104.282C804.232 104.14 804.45 104.063 804.675 104.063C804.9 104.063 805.118 104.14 805.291 104.282C804.683 105.591 804.408 107.028 804.491 108.465C805.362 108.743 805.583 107.143 806.503 107.97C805.422 109.059 805.115 110.545 804.461 111.857C804.305 111.792 804.305 110.911 804.008 111.708C803.604 112.926 803.434 114.207 803.505 115.486C801.755 115.521 802.454 113.58 801.463 113.015Z" fill="#D9BC99"/>
<path d="M805.266 80.4922L805.724 79.9971C808.465 85.8888 807.736 91.3498 803.611 96.3849C802.867 97.286 802.132 98.197 801.393 99.103L800.2 100.093C799.431 99.1426 799.396 99.0436 800.462 97.8999C802.297 95.9744 803.808 93.7733 804.939 91.3795C806.237 88.5673 806.161 85.7353 805.336 82.8439C805.115 82.0864 804.627 81.3042 805.266 80.4922Z" fill="#E3DAC3"/>
<path d="M792.403 111.832C790.029 108.554 790.643 105.133 792.152 101.826C793.661 98.5188 796.176 95.8255 798.772 93.2807L798.933 93.4094C799.536 95.1125 798.078 95.9443 797.212 96.8751C795.62 98.5404 794.336 100.467 793.419 102.569C792.589 104.906 792.237 107.252 793.032 109.678C793.263 110.386 793.565 111.164 793.032 111.867C792.933 111.915 792.823 111.938 792.713 111.932C792.603 111.926 792.496 111.891 792.403 111.832Z" fill="#E0D5C1"/>
<path d="M805.316 104.272C805.133 104.39 804.919 104.453 804.7 104.453C804.481 104.453 804.267 104.39 804.084 104.272L803.581 104.242C804.516 102.183 806.599 100.95 807.545 98.8901C809.904 96.0689 811.62 92.7814 812.575 89.2505L812.983 89.6813C812.233 93.1717 810.573 96.281 808.712 99.2862C807.615 100.994 806.423 102.593 805.316 104.272Z" fill="#E1D6C1"/>
<path d="M793.822 192.207L792.157 192.271C790.286 191.088 788.002 191.281 786 190.444C784.134 189.691 782.197 189.107 780.295 188.464C780.391 187.686 780.975 187.701 781.553 187.711C783.198 187.523 784.571 188.756 786.191 188.617C788.304 189.157 790.326 189.974 792.449 190.464C793.284 190.617 794.35 190.86 793.822 192.207Z" fill="#F4F3F4"/>
<path d="M848.482 170.576H848.014C848.97 168.976 850.7 168.595 852.28 168.135C854.75 167.407 856.807 165.927 858.98 164.714L859.543 165.209C857.697 166.912 855.298 167.546 853.069 168.516C851.53 169.175 850.011 169.883 848.482 170.576Z" fill="#D8D8D7"/>
<path d="M808.973 124.224C809.733 124.878 809.532 125.883 809.884 126.7C809.205 127.69 809.265 128.908 809.008 130.032C808.903 130.497 808.853 131.082 808.184 130.978C807.615 130.888 807.811 130.329 807.791 129.958C807.722 127.982 808.127 126.018 808.973 124.224Z" fill="#DBD0BA"/>
<path d="M812.062 124.111C812.243 122.016 812.817 119.962 812.062 117.823C811.559 116.412 810.528 115.417 809.823 114.184C809.904 113.916 809.823 113.362 810.367 113.753C813.068 115.639 813.968 121.219 812.062 124.111Z" fill="#DAC7AF"/>
<path d="M858.281 139.662C857.672 139.855 856.928 139.568 856.43 140.157C854.558 140.073 852.687 140.003 850.896 140.746C850.574 140.087 851.334 140.112 851.399 139.756C853.693 139.157 855.987 139.3 858.281 139.662Z" fill="#D8D8D6"/>
<path d="M798.777 112.203C800.11 113.466 799.828 114.986 799.526 116.536C799.401 117.184 799.069 117.263 798.52 117.06L796.393 115.466C796.342 115.429 796.304 115.379 796.283 115.32C796.263 115.262 796.261 115.199 796.277 115.139C796.312 115.03 796.347 114.976 796.383 114.971C797.892 115.189 798.742 114.788 798.229 113.055C798.192 112.964 798.178 112.865 798.187 112.767C798.197 112.669 798.229 112.575 798.283 112.492C798.336 112.409 798.409 112.34 798.495 112.289C798.581 112.239 798.677 112.21 798.777 112.203Z" fill="#F0E6CC"/>
<path d="M796.387 115.1C796.387 115.228 796.387 115.357 796.387 115.486C794.697 114.649 793.545 113.243 792.398 111.832L793.002 111.758C793.867 111.856 794.672 112.24 795.287 112.847C795.902 113.454 796.29 114.248 796.387 115.1Z" fill="#DAD3BF"/>
<path d="M774.782 181.532C770.139 177.26 767.322 171.967 765.808 165.946C765.722 165.491 765.471 164.768 766.09 164.763C766.889 164.763 767.04 165.635 767.282 166.273C767.83 168.354 768.588 170.376 769.545 172.309C771.507 176.571 775.582 177.512 779.656 178.126C786.852 179.229 794.213 178.529 801.061 176.091C801.513 175.903 802.001 175.819 802.459 175.636C803.299 175.289 804.35 175.14 804.874 174.432C805.512 173.551 804.074 173.155 804.023 172.333C803.969 171.992 803.932 171.648 803.913 171.303C804.022 170.486 804.372 169.719 804.919 169.095C807.751 166.739 809.899 167.372 810.955 170.868C811.051 171.125 811.227 171.345 811.458 171.497C813.023 172.432 814.129 171.249 815.281 170.62C819.879 168.145 823.42 164.441 826.816 160.585C827.636 159.659 828.214 158.06 830.04 158.604C830.543 159.52 830.131 160.347 829.784 161.184C826.492 169.319 820.567 176.159 812.927 180.646C805.653 184.924 797.625 187.666 788.907 187.652C786.654 187.652 784.677 186.726 782.614 186.072C781.885 185.84 781.211 185.394 780.396 185.503C779.215 185.305 778.095 184.845 777.122 184.157C776.15 183.468 775.349 182.571 774.782 181.532Z" fill="#301F18"/>
<path d="M775.562 161.055C774.5 156.46 774.34 151.742 773.62 147.098C773.434 145.88 774.123 145.895 774.998 145.994C781.628 146.761 788.284 147.093 794.954 147.415C799.803 147.648 804.642 147.504 809.487 147.593C809.929 148.583 809.16 149.143 808.616 149.722C804.758 153.866 799.924 156.629 794.858 159.035C792.464 160.174 789.873 160.852 787.378 161.758C786.644 162.025 786.085 162.659 785.275 162.783C784.742 162.035 784.008 161.431 783.691 160.535C783.988 160.129 784.531 160.114 784.928 159.778C784.033 159.614 783.897 160.5 783.364 160.802C781.508 160.802 779.707 160.243 777.831 160.307C777.008 160.282 776.203 160.547 775.562 161.055Z" fill="#C27B43"/>
<path d="M804.391 171.412C804.3 172.794 805.397 173.393 806.403 174.22C804.996 175.375 803.304 176.145 801.498 176.452C799.989 176.304 798.706 177.245 797.263 177.477C796.519 177.657 795.753 177.729 794.989 177.69C793.817 177.532 793.359 176.532 794.189 175.789C795.396 174.71 796.086 172.992 798.002 172.734C798.812 172.62 799.084 171.912 799.159 171.185C799.496 167.991 801.116 165.798 804.25 164.748C804.553 164.653 804.829 164.49 805.057 164.272C805.285 164.054 805.458 163.786 805.563 163.491C806.695 161.887 808.304 160.748 809.768 159.48C812.148 157.442 814.208 155.068 815.88 152.435C816.886 150.737 817.57 148.841 818.813 147.261L820.468 146.722C821.037 146.842 821.629 146.797 822.173 146.593C823.097 146.153 824.146 146.038 825.146 146.266C826.363 148.197 825.901 150.336 825.649 152.331C824.814 159.337 820.981 164.709 815.588 169.11C814.26 170.199 812.973 171.487 811.126 171.789C810.749 171.848 809.954 172.467 810.145 171.596C810.457 170.15 810.241 169.274 808.848 168.546C807.308 167.739 806.332 168.585 805.251 169.348C804.446 169.798 803.998 170.422 804.391 171.412Z" fill="#6C4127"/>
<path d="M806.111 163.491C806.036 164.56 805.256 165.095 804.376 165.362C801.171 166.352 799.894 168.625 799.768 171.734C799.743 172.299 799.713 173.145 799.134 173.106C796.996 172.942 796.488 175.126 794.924 175.74C794.536 175.893 794.109 176.18 794.159 176.631C794.23 177.26 794.823 177.23 795.306 177.255C796.711 177.264 798.101 176.974 799.381 176.403C800.1 176.116 800.799 175.695 801.483 176.457C798.127 177.839 794.571 178.689 790.945 178.978C787.599 179.298 784.23 179.298 780.884 178.978C778.111 178.62 775.396 177.908 772.81 176.858C770.909 176.136 769.933 174.383 769.068 172.789C767.911 170.81 767.128 168.641 766.759 166.387C768.016 166.149 768.801 167.164 769.812 167.565C772.026 168.437 774.34 169.11 776.477 170.12L777.262 171.269L777.649 171.001L777.222 168.59C777.086 167.912 777.564 167.922 777.926 168.095C778.847 168.561 779.782 168.353 780.723 168.298C785.356 167.402 790.12 168.11 794.743 167.174C797.962 166.971 800.739 165.595 803.46 164.035C804.255 163.585 805.04 162.793 806.111 163.491Z" fill="#734527"/>
<path d="M795.115 167.655C793.651 168.397 792.006 168.293 790.472 168.407C787.086 168.655 783.671 168.377 780.295 168.902C780.712 167.883 781.449 167.02 782.398 166.442C783.347 165.863 784.459 165.597 785.572 165.684C785.708 165.709 785.843 165.743 785.975 165.783C787.353 166.229 788.812 166.65 789.496 164.902C790.18 163.154 789.048 162.397 787.61 161.867C787.345 161.774 787.128 161.582 787.006 161.332C792.036 159.555 797.011 157.753 801.458 154.742C804.476 152.708 807.449 150.688 809.461 147.593C812.56 147.058 815.684 147.326 818.793 147.261C818.647 149.38 817.284 150.93 816.277 152.648C812.796 151.945 810.07 153.193 807.515 155.51C805.502 157.322 803.133 158.669 801.272 160.698C800.26 161.738 799.353 162.87 798.561 164.08C797.693 165.507 796.517 166.727 795.115 167.655Z" fill="#945832"/>
<path d="M776.477 170.12C772.835 169.892 769.696 168.397 766.759 166.387L766.019 165.194L765.808 165.946C764.394 160.995 764.178 155.916 763.851 150.846C763.7 148.469 763.056 146.103 763.494 143.513L765.506 144.281C764.925 146.022 764.72 147.864 764.906 149.688C765.091 151.512 765.662 153.278 766.583 154.871C767.383 156.277 767.252 158.223 769.098 159.005C769.722 159.263 770.305 160.035 770.984 159.57C771.548 159.188 771.145 158.401 771.095 157.797C771.024 156.97 770.743 156.153 770.808 155.322C770.869 154.624 770.637 153.722 771.724 153.5C772.081 159.381 774.098 164.798 776.477 170.12Z" fill="#B77545"/>
<path d="M771.739 153.495C770.818 155.559 771.779 157.564 772.046 159.555C772.257 161.09 771.673 160.946 770.763 160.545C768.751 159.659 767.176 158.713 766.286 156.243C765.129 153.044 764.062 149.994 764.163 146.563C764.126 146.096 764.234 145.628 764.472 145.222C764.71 144.815 765.067 144.489 765.496 144.286C767.005 144.568 768.514 144.885 770.023 145.128C770.848 145.256 771.256 145.623 771.301 146.464C771.427 148.806 771.613 151.153 771.739 153.495Z" fill="#C4834E"/>
<path d="M785.376 165.966C782.987 165.773 782.086 168.08 780.295 168.897C779.184 169.59 778.228 168.838 777.222 168.585C776.317 166.161 775.758 163.625 775.562 161.05C775.647 160.253 775.491 159.54 776.9 159.644C779.189 159.812 781.493 159.693 783.681 160.55C784.662 160.906 785.778 161.159 785.321 162.619C785.763 163.733 785.949 164.847 785.376 165.966Z" fill="#A26436"/>
<path d="M793.822 192.207C793.777 191.162 792.997 191.172 792.227 191.013C790.009 190.572 787.851 189.874 785.799 188.934C784.284 188.681 782.838 188.126 781.548 187.305L780.723 186.84C780.064 185.889 780.094 185.85 781.523 185.607C785.896 187.129 790.397 188.269 794.974 189.013C795.387 189.095 795.806 189.144 796.226 189.162C798.037 189.127 799.783 189.657 801.579 189.726C803.712 190.276 805.885 189.899 808.038 189.989C809.16 190.038 810.286 189.989 811.182 190.825C811.715 191.32 812.349 191.152 812.967 191.167C813.732 191.167 814.517 191.211 815.055 191.895C816.061 192.736 817.379 191.741 818.39 192.494C812.082 193.226 805.759 193.632 799.411 193.083C798.782 193.033 798.128 193.113 797.575 192.726C798.012 192.078 798.701 192.355 799.295 192.261C798.329 192.415 797.283 191.969 796.382 192.637C795.447 192.944 794.717 192.078 793.822 192.207Z" fill="#CDC8C9"/>
<path d="M837.445 137.548L839.125 138.112C838.572 139.424 837.44 138.855 836.575 138.761C825.146 137.583 813.659 137.027 802.167 137.097C792.963 137.025 783.765 137.551 774.631 138.671C776.201 138.978 777.695 138.889 779.159 139.038C780.622 139.186 782.136 139.077 783.464 140.523C779.702 141.32 776.191 140.102 772.684 140.375C771.91 140.914 771.407 139.746 770.672 140.063C769.566 139.568 768.182 139.855 767.111 138.968C774.42 135.582 812.032 134.186 837.445 137.548Z" fill="#160E0B"/>
<path d="M781.603 186.008C781.1 186.053 780.275 185.765 780.718 186.82C778.449 187.018 774.214 184.701 773.484 182.805C772.941 181.389 771.311 181.106 770.547 179.943C770.295 179.567 769.591 179.245 769.998 178.775C770.501 178.185 771.004 178.775 771.397 179.131C772.257 179.938 773.082 180.79 773.937 181.607C774.214 181.869 774.571 182.344 774.782 181.532C776.528 182.859 778.178 184.339 780.315 185.107C780.919 185.151 781.633 185.062 781.603 186.008Z" fill="#E8E6E2"/>
<path d="M781.548 187.285C783.025 187.663 784.451 188.209 785.798 188.914C784.128 189.34 782.921 188.251 781.553 187.671C781.558 187.543 781.553 187.414 781.548 187.285Z" fill="#E8E6E2"/>
<path d="M781.603 186.008C781.442 185.33 780.567 185.642 780.305 185.107C781.689 184.32 782.73 185.453 783.776 185.889C788.102 187.671 792.434 187.018 796.765 186.196C802.047 185.206 806.996 183.112 811.73 180.75C816.137 178.562 819.577 174.923 822.832 171.274C825.53 168.172 827.701 164.661 829.261 160.877C829.65 160.137 829.842 159.313 829.819 158.48C829.316 157.535 829.708 156.594 829.879 155.668C830.243 153.644 830.412 151.59 830.383 149.534C830.383 148.212 829.96 147.484 828.486 147.454C827.666 147.454 826.59 147.593 826.363 146.341C832.148 145.548 837.968 145.019 843.703 143.895C844.317 143.771 844.925 143.617 845.534 143.489C846.312 143.667 847.12 143.667 847.898 143.489C848.678 146.459 848.195 149.43 847.898 152.376C847.767 153.718 847.928 155.129 847.224 156.386C847.043 158.188 846.86 159.992 846.676 161.798C846.394 164.685 845.519 167.486 844.105 170.031L843.718 170.972C843.215 172.69 842.812 174.482 841.248 175.665C838.406 179.681 834.477 182.418 830.227 184.775C829.859 185.736 828.954 185.998 828.119 186.34C824.759 187.711 821.398 189.087 817.817 189.805C817.132 189.946 816.424 189.946 815.739 189.805C814.049 189.285 812.379 189.904 810.734 190.033C806.313 190.297 801.877 190.097 797.499 189.434C796.946 189.36 796.377 189.206 795.92 189.701C791.689 189.092 787.489 188.355 783.56 186.553C782.977 186.265 782.348 185.889 781.603 186.008Z" fill="#20110A"/>
<path d="M817.822 189.236C822.082 188.089 826.24 186.599 830.252 184.78C830.599 185.439 831.127 184.78 831.585 184.953C831.64 185.741 830.579 185.874 830.538 186.835C834.955 185.013 838.496 182.24 841.681 178.938C842.299 178.294 842.485 176.957 843.884 177.363C837.636 185.32 829.16 189.389 819.301 191.058C819.003 191.199 818.671 191.257 818.342 191.226C818.013 191.194 817.699 191.075 817.434 190.88C818.274 189.706 819.497 190.325 820.503 189.989C819.542 189.929 818.395 190.464 817.822 189.236Z" fill="#AAA6A4"/>
<path d="M854.372 144.231C851.007 145.766 850.851 148.92 850.509 151.896C850.137 155.327 850.006 158.782 849.754 162.228C849.131 162.59 849.422 163.347 848.975 163.832C849.442 158.584 848.924 153.277 850.212 148.123C850.997 144.994 853.497 143.39 856.953 143.494C856.956 143.579 856.97 143.664 856.993 143.746C856.228 144.484 855.192 143.786 854.372 144.231Z" fill="#CDCCCA"/>
<path d="M845.559 143.484C842.813 145.004 839.689 144.969 836.711 145.43C833.32 145.949 829.885 146.133 826.469 146.459C826.299 146.616 826.076 146.707 825.843 146.714C825.609 146.722 825.381 146.645 825.201 146.499L822.183 146.593C822.077 146.311 822.052 145.984 822.435 145.984C829.98 146.029 837.33 144.36 844.744 143.296C845.025 143.312 845.3 143.376 845.559 143.484Z" fill="#D5CECD"/>
<path d="M847.249 156.376C847.461 152.693 848.135 149.039 847.994 145.331C847.994 144.712 847.943 144.098 847.913 143.479C849.085 144.761 848.517 146.405 848.582 147.801C848.713 150.44 848.225 153.104 847.979 155.757C847.943 156.148 847.616 156.307 847.249 156.376Z" fill="#D7D3D2"/>
<path d="M844.13 170.021C844.986 167.278 845.842 164.534 846.701 161.788C847.118 164.793 845.775 167.412 844.784 170.105C844.679 170.422 844.327 170.274 844.13 170.021Z" fill="#CCC8C6"/>
<path d="M841.273 175.655L843.743 170.962C843.99 173.076 842.777 174.591 841.585 176.116L841.273 175.655Z" fill="#CDC9C6"/>
<path d="M850.152 164.342C852.143 163.934 854.092 163.344 855.972 162.58C856.44 163.347 855.595 163.352 855.333 163.421C853.633 163.862 852.099 165.194 850.152 164.342Z" fill="#DADAD9"/>
<path d="M847.244 171.907C846.699 173.574 845.793 175.105 844.588 176.393C844.85 174.522 845.559 172.932 847.244 171.907Z" fill="#A09C9A"/>
<path d="M854.372 144.231C855.147 143.548 856.138 143.994 856.993 143.736C857.552 143.85 858.231 143.598 858.613 144.256L854.372 144.231Z" fill="#B9B5B3"/>
<path d="M813.305 89.6367C813.536 86.5324 814.195 83.4034 812.55 80.3833C814.929 82.3637 816.574 84.6412 817.077 87.6217C816.242 87.8456 815.491 88.3044 814.917 88.942C814.342 89.5795 813.969 90.3681 813.843 91.2111C813.149 90.6665 813.365 90.1021 813.305 89.6367Z" fill="#C59E74"/>
<path d="M793.007 102.168C793.872 99.1327 796.367 97.2167 798.168 94.8155C798.495 94.3748 798.933 94.0134 798.933 93.4094C802.887 90.2358 803.153 85.9185 802.514 81.4775C802.052 78.2593 801.257 75.0956 801.443 71.8082C801.493 70.9071 801.488 70.0209 802.333 68.9712C802.001 73.343 803.576 76.9325 805.266 80.4922C805.573 82.1855 806.418 83.7153 806.564 85.4878C806.996 90.6269 804.386 94.3996 801.242 98.0584C800.739 98.6129 799.365 98.8654 800.206 100.113L799.416 101.059C798.51 101.177 798.279 101.994 797.861 102.579C796.463 104.524 795.613 104.658 793.762 103.118C793.416 102.886 793.152 102.554 793.007 102.168Z" fill="#E8CAA5"/>
<path d="M793.007 102.168C793.335 102.253 793.651 102.378 793.948 102.539C796.267 104.173 796.232 104.158 797.791 101.985C798.143 101.489 798.369 100.499 799.416 101.059C798.958 102.232 797.962 103.039 797.479 104.287C796.342 107.302 797.152 109.763 798.792 112.208C798.752 112.461 798.616 112.743 798.691 112.956C799.023 113.946 799.32 115.219 798.691 115.862C798.063 116.506 797.308 115.006 796.377 115.105C795.415 113.841 794.277 112.716 792.997 111.763C791.81 108.564 791.282 105.366 793.007 102.168Z" fill="#EBD0AE"/>
<path d="M772.7 140.37C774.571 139.875 776.417 140.137 778.298 140.409C779.737 140.622 781.231 140.454 783.203 140.454C779.682 139.429 776.427 139.889 773.333 139.285C772.896 139.196 772.171 139.498 772.116 138.83C772.051 138.072 772.795 138.107 773.343 138.057C778.988 137.562 784.617 136.993 790.291 136.671C797.819 136.245 805.336 136.183 812.842 136.483C821.358 136.815 829.945 136.79 838.366 138.374C838.592 138.414 838.869 138.206 839.125 138.112C840.131 137.904 840.836 138.414 841.857 139.508C832.038 141.345 822.455 141.31 812.887 141.444C806.116 141.672 799.344 141.672 792.569 141.444C785.932 141.428 779.299 141.069 772.7 140.37Z" fill="#311F0D"/>
<path d="M792.569 141.444H812.887C812.51 141.608 812.112 141.721 811.705 141.781C805.719 141.8 799.734 141.8 793.751 141.781C793.343 141.724 792.945 141.611 792.569 141.444Z" fill="#F1F0EC"/>
<path d="M817.822 189.236C818.83 189.569 819.86 189.832 820.905 190.023L818.003 190.721C818.355 191.216 818.888 190.875 819.301 191.023L815.055 191.855C810.528 191.162 806.026 190.434 801.448 190.211C801.545 190.067 801.68 189.951 801.838 189.876C801.997 189.801 802.173 189.77 802.348 189.786C806.649 190.129 810.976 189.962 815.236 189.29C815.443 189.269 815.652 189.282 815.855 189.33L817.822 189.236Z" fill="#BCB5B5"/>
<path d="M801.463 113.015C803.184 112.991 802.288 115.09 803.516 115.466C803.842 119.778 802.796 124.031 802.882 128.339L801.463 113.015Z" fill="#E0C9AE"/>
<path d="M796.382 192.618C797.429 191.068 799.074 192.216 800.376 191.781C800.534 191.895 800.643 192.063 800.683 192.251C800.683 192.593 800.402 192.662 800.105 192.667L797.59 192.707L796.382 192.618Z" fill="#D4D1D4"/>
<path d="M825.191 146.499L826.459 146.459C826.917 146.9 827.495 146.801 828.043 146.801C831.353 146.801 831.062 146.42 831.107 149.994C831.187 152.874 830.751 155.745 829.819 158.475C827.052 160.555 825.075 163.387 822.686 165.828C819.904 168.665 816.499 170.422 813.169 172.403C811.941 173.13 811.66 172.546 811.156 171.799C813.103 170.254 815.181 168.828 816.982 167.15C822.973 161.54 825.911 154.713 825.191 146.499Z" fill="#39251C"/>
<path d="M804.391 171.412C803.656 170.338 803.933 169.714 805.291 169.363L804.391 171.412Z" fill="#734527"/>
<path d="M785.376 165.966C785.069 164.857 784.702 163.743 785.321 162.619C785.501 162.3 785.745 162.021 786.04 161.799C786.334 161.577 786.671 161.416 787.031 161.327C788.344 161.327 789.546 161.545 790.155 162.931C790.703 164.233 790.492 165.476 789.395 166.303C788.052 167.328 786.639 167.006 785.376 165.966Z" fill="#512B14"/>
<path d="M783.686 160.555C783.339 159.936 783.289 159.426 784.114 159.119C784.717 158.891 785.386 158.688 785.864 159.119C786.342 159.55 786.367 160.283 785.532 160.486C784.921 160.569 784.302 160.591 783.686 160.55V160.555Z" fill="#D69A65"/>
<path d="M795.115 167.655C798.334 163.283 801.327 158.743 806.217 155.827C808.39 154.525 809.964 152.257 812.756 151.915C814.024 151.757 815.271 151.559 816.277 152.648C815.025 155.426 812.756 157.421 810.659 159.515C809.235 160.926 807.64 162.159 806.131 163.476C803.893 164.58 801.669 165.729 799.406 166.778C798.071 167.415 796.597 167.716 795.115 167.655Z" fill="#89522F"/>
<path d="M815.88 189.345C812.293 190.657 808.546 190.177 804.853 190.286C803.727 190.315 802.6 190.251 801.473 190.231L795.975 189.691C795.215 187.944 796.865 188.988 797.006 189.008C800.186 189.423 803.387 189.665 806.594 189.731C809.111 189.715 811.621 189.474 814.094 189.013C814.723 188.909 815.377 188.78 815.88 189.345Z" fill="#0C0706"/>
<path d="M810.402 192.35H813.591V192.523H810.407L810.402 192.35Z" fill="#F0EDF1"/>
<path d="M743.458 79.9377H743.488V79.8981L743.458 79.9377ZM946.015 102.851C946.101 100.47 944.622 99.1327 942.182 99.1476C938.56 99.1723 934.928 99.0733 931.316 99.2664C929.073 99.3852 928.223 98.4445 927.72 96.4493C926.14 90.1863 923.615 84.2599 920.707 78.492C920.446 77.8482 920.097 77.2421 919.671 76.6899C918.796 75.764 917.9 74.8926 916.411 75.9571C915.073 76.9127 915.068 77.9623 915.657 79.2297C916.391 80.8091 917.166 82.3687 917.885 83.9678C920.178 89.0838 922.163 94.3276 923.831 99.6724C924.923 103.138 926.261 103.975 929.898 103.95C932.458 103.95 935.019 104.024 937.569 103.95C939.174 103.891 939.858 104.331 939.853 106.054C939.782 119.765 939.766 133.475 939.803 147.182C939.803 148.781 939.3 149.43 937.63 149.43C923.856 149.465 910.078 149.588 896.305 149.628C893.639 149.628 893.523 149.356 893.881 146.811C894.856 139.525 894.978 132.152 894.243 124.838C893.398 115.892 890.757 107.45 887.14 99.2813C885.731 96.1077 884.464 92.746 882.381 90.018C879.544 86.2998 876.767 82.5023 873.447 79.1258C863.91 69.4218 853.648 60.9556 840.146 57.1483C835.554 55.8511 831.197 53.8658 826.454 52.9053C816.625 50.9249 806.79 50.301 796.845 51.6329C790.95 52.425 785.341 54.341 779.646 55.9254C776.922 56.7121 774.317 57.8579 771.905 59.3317C770.602 60.109 769.279 61.0992 767.946 61.5596C763.509 63.0944 760.048 65.9363 756.547 68.798C753.735 71.1002 751.24 73.7737 748.146 75.7294C748.252 74.8827 748.212 74.8332 748.051 74.9719C746.341 76.4572 744.354 77.6949 743.483 79.9229C743.891 79.7991 744.298 79.6704 744.711 79.5515C744.66 79.6704 744.615 79.7892 744.565 79.9031C744.54 79.9643 744.512 80.0238 744.479 80.0813L744.384 80.2546C744.332 80.3509 744.273 80.4436 744.208 80.5318C744.165 80.599 744.118 80.6635 744.067 80.7249C743.988 80.8203 743.904 80.9112 743.815 80.9972L743.669 81.126C743.609 81.1705 743.549 81.22 743.483 81.2596C743.369 81.3365 743.248 81.4027 743.121 81.4577L743 81.5121L742.875 81.5567L742.749 81.5963L742.608 81.6359C742.611 81.6589 742.611 81.6822 742.608 81.7052C742.608 81.7993 742.568 81.8835 742.548 81.9726C742.55 81.9973 742.55 82.0221 742.548 82.0468L742.502 82.2053C742.466 82.3234 742.423 82.4392 742.372 82.5518C742.353 82.5847 742.337 82.6196 742.326 82.6558C742.296 82.7202 742.261 82.7895 742.221 82.8588C742.18 82.9281 742.14 82.9974 742.1 83.0667C742.06 83.1361 741.999 83.2103 741.949 83.2796C741.852 83.4068 741.746 83.5276 741.632 83.6411L741.446 83.8094C741.406 83.8451 741.364 83.8782 741.32 83.9084C741.285 83.9388 741.248 83.9669 741.21 83.9926C740.866 84.2365 740.488 84.4299 740.088 84.5669C740.067 84.7338 740.035 84.8992 739.992 85.062C739.93 85.2865 739.847 85.5052 739.746 85.7155C739.63 85.9556 739.487 86.1816 739.318 86.3889C739.28 86.446 739.236 86.4991 739.187 86.5473C739.134 86.6118 739.077 86.673 739.016 86.7305C738.941 86.8097 738.86 86.884 738.78 86.9533C738.699 87.0226 738.543 87.1414 738.413 87.2305C738.342 87.2824 738.268 87.3303 738.191 87.3741L737.96 87.5127C737.326 89.6714 735.495 91.0973 734.474 93.0133L734.122 92.5578L734.087 92.5281C733.533 93.147 732.839 93.6817 732.452 94.3897C728.078 102.227 724.926 110.667 723.1 119.427C721.144 128.834 721.44 138.345 722.753 147.816C722.949 149.192 722.663 149.544 721.325 149.514C718.84 149.455 716.35 149.514 713.86 149.514C702.139 149.544 690.415 149.57 678.687 149.593C675.86 149.593 675.79 149.504 675.765 146.806C675.765 144.826 675.765 142.89 675.765 140.924C675.765 129.458 675.765 117.986 675.669 106.515C675.669 104.638 676.202 103.821 678.225 103.965C680.418 104.128 682.631 103.965 684.834 104.064C690.051 104.242 691.319 103.381 692.606 98.3752C694.697 90.154 698.076 82.3033 702.622 75.1055C703.203 74.2256 703.686 73.286 704.06 72.3033C704.649 70.6249 703.497 69.3871 701.696 69.6248C700.011 69.8426 699.181 70.9913 698.432 72.333C694.09 80.1407 690.509 88.2554 688.336 96.9246C687.918 98.5733 687.048 99.3506 685.197 99.306C681.509 99.207 677.812 99.2763 674.13 99.3654C671.615 99.4248 670.151 100.747 670.146 103.014C670.049 118.702 670 134.381 670 150.049C670 153.411 671.253 154.579 674.638 154.628C677.903 154.683 681.177 154.628 684.442 154.663C686.248 154.663 687.405 155.218 687.662 157.337C687.973 159.921 688.844 162.421 689.563 164.946C692.128 173.972 696.102 182.364 700.59 190.563C701.525 192.286 702.526 193.984 703.608 195.638C704.478 196.994 705.811 197.549 707.265 196.677C708.719 195.806 708.573 194.345 707.838 192.994C707.406 192.197 706.898 191.439 706.42 190.667C699.951 180.29 694.769 169.432 692.486 157.352C691.983 154.628 691.952 154.609 694.674 154.574C703.98 154.455 713.286 154.807 722.592 154.302C724.262 154.218 724.755 154.921 725.138 156.356C727.552 165.54 732.039 173.764 737.547 181.478C742.15 187.914 747.824 193.36 753.755 198.608C755.521 200.168 756.351 202.569 758.559 203.896C763.59 206.931 768.182 210.575 774.028 212.313C777.438 213.303 780.793 214.605 784.274 215.442C789.717 216.749 795.341 216.981 800.875 217.541C810.432 218.506 819.909 217.481 829.125 215.145C836.042 213.397 842.606 210.471 848.919 207.055C859.702 201.173 869.107 193.123 876.521 183.428C883.015 175.066 888.131 165.882 891.275 155.733C891.582 154.742 892.05 154.247 893.207 154.277C902.449 154.346 911.688 154.374 920.924 154.361C922.242 154.361 922.579 154.723 922.367 156.094C921.276 163.065 918.881 169.675 916.19 176.116C907.8 196.167 895.314 213.308 877.919 226.864C865.396 236.628 850.771 243.447 835.161 246.801C821.761 249.753 807.948 250.436 794.315 248.821C777.715 246.915 762.438 241.395 748.287 232.834C738.554 226.948 730.118 219.467 722.633 210.971C721.829 209.997 720.949 209.087 720.002 208.248C719.742 208.001 719.434 207.809 719.095 207.686C718.757 207.563 718.396 207.511 718.035 207.533C717.675 207.555 717.324 207.65 717.003 207.813C716.682 207.977 716.4 208.204 716.174 208.481C715.042 209.684 715.515 210.911 716.536 212.02C722.698 218.765 729.488 224.926 736.818 230.423C744.775 236.296 753.431 241.191 762.594 244.999C778.44 251.701 795.637 254.737 812.862 253.871C828.602 253.153 843.748 249.975 858.165 243.573C869.187 238.691 879.282 231.994 888.015 223.769C896.466 215.823 904.047 207.159 910.259 197.366C913.976 191.582 917.322 185.576 920.28 179.383C923.601 172.22 926.025 164.685 927.498 156.946C927.871 155.074 928.771 154.589 930.517 154.643C933.645 154.747 936.774 154.678 939.898 154.678C944.063 154.678 945.527 153.316 945.587 149.232C945.854 133.785 945.437 118.303 945.995 102.851H946.015ZM747.316 76.5859C747.314 76.5694 747.314 76.5528 747.316 76.5364C747.371 76.4006 747.472 76.2882 747.603 76.2195C747.636 76.1975 747.672 76.1793 747.709 76.1651L748.136 75.764C748.139 75.7854 748.139 75.807 748.136 75.8284C748.136 75.8284 748.136 75.8531 748.136 75.8581C748.131 75.8918 748.123 75.9249 748.111 75.9571C748.094 75.9999 748.069 76.0387 748.036 76.071C748.007 76.0992 747.973 76.1211 747.935 76.1353H747.89C747.836 76.1411 747.782 76.1411 747.729 76.1353C747.751 76.2972 747.723 76.4618 747.65 76.6081C747.576 76.7545 747.46 76.876 747.316 76.9572C747.31 76.9179 747.31 76.8777 747.316 76.8384C747.304 76.768 747.304 76.6959 747.316 76.6255C747.308 76.6131 747.302 76.5998 747.296 76.5859H747.316ZM747.266 77.0513C747.085 77.1998 746.914 77.3533 746.733 77.4969C746.698 77.4078 746.668 77.3087 746.632 77.2196L747.266 77.0513ZM744.862 79.3238C744.862 79.3634 744.862 79.408 744.862 79.4278C744.837 79.4547 744.806 79.4751 744.771 79.4872L744.862 79.3238ZM871.058 184.711C855.645 202.534 836.082 212.486 812.203 214.179C801.143 215.037 790.031 213.386 779.722 209.352C767.253 204.509 756.179 196.734 747.467 186.706C741.271 179.674 736.263 171.707 732.638 163.11C727.683 151.183 725.394 138.602 727.21 125.734C730.52 102.341 741.521 83.2004 760.833 68.8524C775.763 57.7523 792.553 52.3871 811.202 52.7567C824.1 52.9944 836.107 56.7571 847.194 63.1043C864.443 72.9667 877.16 86.7602 884.378 105.307C887.9 114.402 889.962 123.705 889.942 131.601C889.756 152.703 883.79 169.991 871.058 184.711Z" fill="#F69420"/>
<path d="M808.506 15.6094C799.079 15.5153 789.808 16.8273 780.637 18.8127C760.843 23.0953 743.639 32.2794 728.709 45.6966C727.933 46.4077 727.111 47.0692 726.249 47.677C725.858 47.995 725.36 48.1559 724.853 48.1275C724.347 48.099 723.87 47.8833 723.518 47.5235C723.112 47.18 722.835 46.7116 722.733 46.194C722.63 45.6765 722.709 45.1401 722.954 44.6718C723.563 43.2855 724.836 42.5973 725.887 41.7011C739.077 30.7545 753.554 22.0506 770.154 16.9016C784.33 12.5299 798.832 10.4257 813.712 11.1337C835.557 12.0527 856.704 18.9711 874.76 31.106C881.37 35.4975 887.437 40.5129 893.398 45.7115C893.566 45.8405 893.718 45.9884 893.85 46.1521C894.711 47.375 896.21 48.5632 894.59 50.1129C893.081 51.5982 891.657 50.608 890.515 49.494C886.74 45.7068 882.694 42.1908 878.407 38.9731C868.055 31.3239 856.862 25.2341 844.523 21.2733C832.9 17.509 820.741 15.5969 808.506 15.6094Z" fill="#F69420"/>
<path d="M699.77 91.835C700.65 88.3693 702.285 85.161 703.824 81.933C705.66 78.1529 707.779 74.5122 710.162 71.0408C710.584 70.399 711.092 69.8162 711.671 69.3079C712.572 68.5405 713.643 68.392 714.554 69.2337C715.464 70.0753 715.288 71.0903 714.483 72.0161C709.538 77.7395 706.364 84.4332 703.703 91.3894C703.271 92.5182 702.883 93.7213 701.289 93.5827C700.227 93.4886 699.433 93.1272 699.77 91.835Z" fill="#F69420"/>
<path d="M902.935 72.8132C903.237 72.031 902.654 70.8328 903.941 70.5308C905.229 70.2288 906.351 70.5308 907.121 71.6745C911.059 77.5761 914.812 83.5569 917.061 90.3398C917.169 90.6645 917.258 90.9951 917.327 91.33C917.574 92.5232 916.96 93.1123 915.883 93.5084C914.636 93.9688 914.4 93.0975 914.088 92.3301C911.958 87.1474 909.335 82.1744 906.255 77.4771C905.204 75.863 904.037 74.3282 902.925 72.7588L902.935 72.8132Z" fill="#F69420"/>
<path d="M740.053 83.7351C740.25 83.1001 740.578 82.512 741.017 82.0076C741.456 81.5032 741.996 81.0935 742.603 80.8041V80.7744V81.6409L742.628 81.6111L740.042 83.7153L740.053 83.7351Z" fill="#A85C33"/>
<path d="M737.91 87.488L737.034 87.9039H737.06C737.032 87.6318 737.102 87.3589 737.256 87.1315C737.41 86.904 737.639 86.7361 737.905 86.6562V86.6265C737.905 86.9186 737.905 87.2058 737.905 87.4929L737.91 87.488Z" fill="#A85C33"/>
<path d="M737.91 86.681C737.936 86.4184 738.028 86.1662 738.176 85.9462C738.324 85.7262 738.525 85.5451 738.76 85.4185V85.3937C738.736 85.6579 738.646 85.912 738.496 86.1327C738.347 86.3533 738.143 86.5334 737.905 86.6562L737.91 86.681Z" fill="#A85C33"/>
<path d="M739.202 84.9976C739.201 84.728 739.281 84.4641 739.433 84.2393C739.584 84.0145 739.8 83.8391 740.053 83.7351H740.022V84.5966L740.048 84.5669L739.172 84.9927L739.202 84.9976Z" fill="#A85C33"/>
<path d="M902.905 72.7934L902.478 73.2885C902.478 73.239 902.478 73.1697 902.478 73.1449C902.618 73.0311 902.769 72.9271 902.915 72.8182L902.905 72.7934Z" fill="#A85C33"/>
<path d="M734.041 92.5182L734.187 91.9637L734.434 92.1271L734.082 92.5479L734.041 92.5182Z" fill="#A85C33"/>
<path d="M736.606 88.3346L736.552 88.4732L736.631 88.3594L736.606 88.3346Z" fill="#A85C33"/>
<path d="M736.632 88.3594L737.07 87.9286H737.044L736.607 88.3594H736.632Z" fill="#A85C33"/>
<path d="M738.765 85.4185L739.203 84.9976L739.172 84.9729L738.745 85.3937L738.765 85.4185Z" fill="#A85C33"/>
<path d="M742.603 80.8091L743.036 80.3882L743.01 80.3585L742.583 80.7794L742.603 80.8091Z" fill="#A85C33"/>
<path d="M743.036 80.3833L743.468 79.9625H743.438L743.01 80.3784L743.036 80.3833Z" fill="#A85C33"/>
<path d="M740.022 84.5768V83.7153C740.881 83.0123 741.743 82.3109 742.608 81.6111C742.509 82.2965 742.213 82.9398 741.755 83.4651C741.297 83.9905 740.696 84.3762 740.022 84.5768Z" fill="#131313"/>
<path d="M738.745 85.3937L739.172 84.9729L740.048 84.5471C739.961 85.1779 739.72 85.7785 739.343 86.2962C738.967 86.814 738.468 87.2334 737.89 87.5177V86.6513C738.128 86.5299 738.332 86.3509 738.482 86.131C738.631 85.9111 738.722 85.6574 738.745 85.3937Z" fill="#131313"/>
<path d="M743.01 80.3536L743.438 79.9377L744.736 79.5416C744.359 80.5714 743.73 81.3834 742.598 81.6557V80.7893L743.01 80.3536Z" fill="#131313"/>
<path d="M747.286 77.0166L746.713 77.5117L746.617 77.2345L747.311 77.0463L747.286 77.0166Z" fill="#131313"/>
<path d="M747.311 77.0315C747.278 76.9491 747.261 76.8608 747.263 76.7721C747.265 76.6833 747.285 76.5958 747.322 76.5148C747.359 76.4339 747.413 76.3612 747.479 76.3011C747.546 76.241 747.624 76.1947 747.709 76.165C747.728 76.3316 747.698 76.5002 747.621 76.6498C747.544 76.7994 747.424 76.9235 747.276 77.0067L747.311 77.0315Z" fill="#131313"/>
<path d="M744.736 79.5416L744.866 79.3386C744.866 79.3733 744.866 79.4278 744.866 79.4476C744.824 79.4781 744.779 79.5031 744.731 79.5218L744.736 79.5416Z" fill="#131313"/>
<path d="M747.709 76.165L748.141 75.7541C748.141 76.0314 748.021 76.1849 747.729 76.1849L747.709 76.165Z" fill="#131313"/>
<path d="M768.947 167.679L768.972 167.724C768.972 167.724 768.972 167.724 768.972 167.694L768.947 167.679Z" fill="#A85C33"/>
<path d="M768.982 167.694C768.982 167.694 768.982 167.719 768.982 167.724C768.972 167.727 768.962 167.727 768.952 167.724C768.203 167.348 768.449 166.615 768.348 166.001C769.098 166.362 769.173 166.986 768.982 167.694Z" fill="#131313"/>
<path d="M769.385 168.972H769.354C768.751 168.699 768.851 168.199 768.947 167.709C768.947 167.709 768.947 167.709 768.947 167.679H768.982C769.601 167.947 769.561 168.442 769.385 168.972Z" fill="#131313"/>
</g>
<defs>
<clipPath id="clip0_19_494">
<rect width="276" height="243" fill="white" transform="translate(670 11)"/>
</clipPath>
</defs>
</svg>
