<svg xmlns="http://www.w3.org/2000/svg" viewBox="0 0 548.67 490.81"><defs><style>.cls-1{fill:#f1f0ec;}.cls-2{fill:#b9b5b3;}.cls-3{fill:#eeedec;}.cls-4{fill:#ba936a;}.cls-5{fill:#fbfbfa;}.cls-6{fill:#f7f7f7;}.cls-7{fill:#ebe1c8;}.cls-8{fill:#ece3d0;}.cls-9{fill:#cbaf92;}.cls-10{fill:#c8a27a;}.cls-11{fill:#d9bc99;}.cls-12{fill:#e3dac3;}.cls-13{fill:#e0d5c1;}.cls-14{fill:#e1d6c1;}.cls-15{fill:#f4f3f4;}.cls-16{fill:#d8d8d7;}.cls-17{fill:#dbd0ba;}.cls-18{fill:#dac7af;}.cls-19{fill:#d8d8d6;}.cls-20{fill:#f0e6cc;}.cls-21{fill:#dad3bf;}.cls-22{fill:#301f18;}.cls-23{fill:#c27b43;}.cls-24{fill:#6c4127;}.cls-25{fill:#734527;}.cls-26{fill:#945832;}.cls-27{fill:#b77545;}.cls-28{fill:#c4834e;}.cls-29{fill:#a26436;}.cls-30{fill:#cdc8c9;}.cls-31{fill:#160e0b;}.cls-32{fill:#e8e6e2;}.cls-33{fill:#20110a;}.cls-34{fill:#aaa6a4;}.cls-35{fill:#cdccca;}.cls-36{fill:#d5cecd;}.cls-37{fill:#d7d3d2;}.cls-38{fill:#ccc8c6;}.cls-39{fill:#cdc9c6;}.cls-40{fill:#dadad9;}.cls-41{fill:#a09c9a;}.cls-42{fill:#c59e74;}.cls-43{fill:#e8caa5;}.cls-44{fill:#ebd0ae;}.cls-45{fill:#311f0d;}.cls-46{fill:#bcb5b5;}.cls-47{fill:#e0c9ae;}.cls-48{fill:#d4d1d4;}.cls-49{fill:#39251c;}.cls-50{fill:#512b14;}.cls-51{fill:#d69a65;}.cls-52{fill:#89522f;}.cls-53{fill:#0c0706;}.cls-54{fill:#f0edf1;}.cls-55{fill:#f69420;}.cls-56{fill:#a85c33;}.cls-57{fill:#131313;}</style></defs><title>bnqAtivo 2</title><g id="Camada_2" data-name="Camada 2"><g id="Camada_1-2" data-name="Camada 1"><path class="cls-1" d="M219.26,358.36c-21.52-9.06-33.92-25.19-37.45-48.25a4.93,4.93,0,0,0-.44-1.11c-2.41-2.37-1.63-5.64-1.93-8.4q-1.92-17.61-3-35.31c-.16-2.54-.88-5.29.82-7.69,7.3-6,16.15-8,25.09-9.3,26.69-3.88,53.59-4.2,80.47-3.53,20.38.51,40.84,1,60.9,5.4,3.59.78,7.38,1.34,10.43,3.77,1,2.46.92,4.46-1.79,5.89-3.15,1.65-8,1.48-10.19-.81a9.25,9.25,0,0,0-10.63-2.44c-46.31-5.38-105.51-4.85-133.41,1.59.28,1.1,1.58,1,2.07,1.8,2.13,2.09,5.09,1.8,7.53,1.88,5.45.17,10.85.88,16.29,1.16,22.35,1.16,44.72.64,67.09.78,6,0,11.93-1.24,18-.91a36.55,36.55,0,0,1,9.49,1.28c.71.5,1.4,1,.5,1.94a3.55,3.55,0,0,1-2.72.94c-7.08-.4-12.28,3.08-16.78,8.06a7.26,7.26,0,0,1-4.19,1.27c-6,.66-12.07-.32-18.05.71-15.52,1-31-.22-46.46-1-6.56-.35-13.09-1-19.63-1.5-2.71-.23-3.5.7-3.29,3.26A126.27,126.27,0,0,0,209.86,294c.58,2.75.2,5.59,1,8.29a147.84,147.84,0,0,0,3.33,15.55,16.34,16.34,0,0,1,.44,2.4c.26,1.32.83,3-.74,3.6s-2.34-.94-3.16-2c-5.4-10.76-9.06-22-9.7-34.15-.27-3.74-1.07-7.44-.87-11.22.15-2.66-1-4.13-3.71-4.51a58.85,58.85,0,0,1-6.89-1.62c-4.18-1.19-2.86,2.22-2.68,3.71.89,7.74,1.13,15.54,2.2,23.26.7,5,1.05,10,2.25,14.88,3,12.06,9.14,22.4,17.29,31.64.26,2.59-1,2.7-2.59,1.35a54.65,54.65,0,0,1-4.6-4.16c5.34,5.69,10,12.35,18.61,13.47a2.74,2.74,0,0,1,1.89,1.22,1.76,1.76,0,0,1,.05,1.09C221.4,357.87,220,357.54,219.26,358.36Z"/><path class="cls-2" d="M299.13,274.13c4.07-5.49,9.36-8.54,16.36-8.33,1.35,0,2.81.26,4-.72,3.55-2.57,7.79-1.45,11.67-2,6.2-.81,12.36-1.84,18.59-2.43,2.94-.27,5.36-2.1,7.52-4.12,2.38-.06.51,4,3.35,3.49,2.21,1,4.36-.66,6.6-.13,1.28.3,2.75-.28,3.9.77,1.07,1.33,1.42,3,2.32,4.44,1.48,2.34.4,3.28-1.92,3.56-7.68.19-11.93,5.05-13.18,13.28-1.05,7,.16,14-1.48,20.88a9.12,9.12,0,0,1-.31,1.64c.45.08-1.54,1.47.41.75,1.43.57,1.28,2.24,2.2,3.15,4.12,1,7.51-.56,10.62-3.07,1-1.64,2.74-2.33,4.2-3.4,6-4.44,10.23-9.88,9.82-17.9a14.12,14.12,0,0,0-1.91-6.35c-.82-1.45-1.76-2.9-1.33-4.72,2.06-1.85,3.35-.14,4.51,1.15,5.38,6,7.42,23.38-.62,29.89-2.71,2.19-4.93,5-8,6.74a53,53,0,0,1-13.18,6.91c-3.13,1.08-6.33,2.1-8.78,4.52a9,9,0,0,1-1.67,3,24.37,24.37,0,0,0-5.08,9.16,3.58,3.58,0,0,1-1.88,2.14c-4.22,2.77-6.54,7.5-10.89,10.24-4.1,2.58-7.58,6.11-12.16,8-3.54,1.48-3.49,1.53-3.72-2.41,0-.38-.79-.71-.78-1.34,1-2.22,3.18-3.08,5-4.27,5.43-3.5,10.63-7.23,14.33-12.69a4.8,4.8,0,0,1,2.2-1.87c3.58-2,4.05-5.71,4.9-9.19a3,3,0,0,1,1-2.05,29.27,29.27,0,0,0,4.49-17.16,43,43,0,0,1,1.2-10c2.13-8,3.36-16,1.07-24.11-1.22-.94-2.7-.71-4.08-.88-8.65.37-17,2.69-25.58,3.66-5.1.58-10.18,1.48-15.34,1.45-1.83,0-3.64-.05-5.23,1.06C301.13,275.2,300,275.3,299.13,274.13Z"/><path class="cls-3" d="M371.65,267.61c.42-.36,2.24.19,1.26-.81-1.71-1.77-1.87-3.82-2.3-5.91.62-2.55,2.36-1,3.68-1,14,2.65,26.28,17.28,18.55,34.17a35.59,35.59,0,0,1-16,17.4c-.91.27-1.21-.15-1.12-1,3.55-2.31,6.17-5.62,9.14-8.55,6.21-6.13,3.91-23-1.22-27.69-.68-.62-1.22-2.65-2.83-1-3.38,1.79-4-2.27-6.17-2.92-.92-.75-2.2-.8-3.07-1.64A.75.75,0,0,1,371.65,267.61Z"/><path class="cls-4" d="M273.12,194.29l-1.74,1.53c-1.76-.3-2.32,3-4.11,1.68s-.73-3.57-.74-5.42c0-1.57,1-2.79,1.64-4.16,3.06-6,7.8-10.95,10.78-17a73.88,73.88,0,0,0,4.91-12,1.31,1.31,0,0,1,1.14-.12c.45-.2.34,1.45.82.39,1.38-3,3.2-5.12,6.88-4.54,2.18,8.38.1,16-4.37,23.08a50.94,50.94,0,0,1-12.76,13.79A6.94,6.94,0,0,0,273.12,194.29Z"/><path class="cls-5" d="M357.28,256.57c1.06,2.1-.1,2.75-1.91,3.46-6.58,2.6-13.57,3-20.43,4-5.1.72-10.29.73-15.44,1.07-26.39-1.29-52.79.9-79.17-.15-13.21-.53-26.44-.94-39.59-2.5-.94-.11-3.3-.21-.6-1.76,1.61-1,3.33,0,5-.26,12.82,1.47,25.73,1.18,38.59,1.81a21.88,21.88,0,0,0,6.65.73q14.07,0,28.15,0a17.32,17.32,0,0,0,5-.6c5.28-.77,10.61-.45,15.91-.38,10.92.14,21.73-1.51,32.61-2a12.39,12.39,0,0,0,4.51-.91c1.27-.58.11-.93-.35-1.29-1.21-.59-2.6-.88-3.29-2.21-.19-.5-.39-1.47.14-1.33,3.48,1,7.55.26,10.06,4,1.66,2.51,8.93,1.64,10.73-.82.91-1.25-1.79-2.6.35-3.55C355.09,254.94,356.93,254.86,357.28,256.57Z"/><path class="cls-6" d="M352.35,325l1.53-2.68a.54.54,0,0,1,.93,0c-3.46,13.28-12.47,22.31-23,30.16-10.29,7.64-22.25,11-34.54,13.51-.36,1.56-1.45,1.45-2.62,1.15-2.1-.87-5.21,1.77-6.53-1.86,2.13-2.73,5.47-1.54,8.14-2.52,14.12-3.26,28-7.07,39.26-17a50.76,50.76,0,0,0,7.11-7.1c.84-1.1,1.48-2.44,3.07-2.67.47-.65.94-1.31,1.4-2C348.74,331,350.07,327.67,352.35,325Z"/><path class="cls-7" d="M256,166.19c7.9-9.57,7.25-20.33,4.57-31.49-2.11-8.76-1.9-17.28,4.13-24.75,1.4-1.74,1.65-1.86,4.21-2.22-6.26,8.87-5.27,17.86-.93,27,.71,1.51,1.23,3.12,1.84,4.68.37,1-.28,1.22-1.05,1.33-4.06-3.69-5-8.82-6.05-13.79-.57-2.72-1.28-5.69-.14-7.91-1.17,3.46.07,7.52.3,11.51.21,3.62,1.15,7.18,1.77,10.76,1.08,6.18.92,12.3-1.51,18.16-1.23,3-2.61,5.94-5.92,7.26A1.12,1.12,0,0,1,256,166.19Z"/><path class="cls-8" d="M259.68,206.9c.05-6.78.79-13.34,5.84-18.55a.72.72,0,0,1,1.14.17c.66,1.37-.21,2.49-.78,3.53a27.73,27.73,0,0,0-3.3,14.58c2.36,9.71.87,19.59,1.49,26.33-.54-5.26.22-13.55.09-21.86.41-2.72-.29-5.63,1.3-8.14.41-.65.89-1.59,1.87-.81.46.36.25,1,0,1.52-1.58,11.42-.16,23-1.62,34.4-.16,1.24.91,3.42-1.78,3.28-2.44-.13-1.78-2.21-1.82-3.52C261.73,227.48,261.32,217.14,259.68,206.9Z"/><path class="cls-9" d="M284.88,158.83c-.24,0-.48.06-.72.11-.56,0-.58-.54-.81-.87,1.83-7.65-.56-14.84-2.79-22.29,10.64,5.39,16.07,20.32,12.47,32.87-3.22,11.26-11.11,18.78-19.91,25.64.64-3.4,3.63-4.81,5.9-6.73,8.76-7.44,13.64-16.79,14.18-28.29a19.45,19.45,0,0,0-.84-4.51c-2.85-3.6-3.64-8.44-6.74-11.22C287,148.34,287.65,153.64,284.88,158.83Z"/><path class="cls-10" d="M276.27,228.69a41.58,41.58,0,0,0,.68-16.4,5.19,5.19,0,0,1,1-3.87c5.75,4.3,7.37,11.63,4.44,20a18.22,18.22,0,0,1-4.33,5.2C276,232.56,276.72,230.4,276.27,228.69Z"/><path class="cls-11" d="M261.34,206.05c-.89-6.65,2.16-12.13,5.16-17.64a1.92,1.92,0,0,1,2.45,0,17.87,17.87,0,0,0-1.59,8.45c1.73.56,2.17-2.67,4-1-2.15,2.2-2.76,5.2-4.06,7.85-.31-.13-.31-1.91-.9-.3a20.89,20.89,0,0,0-1,7.63C261.92,211.11,263.31,207.19,261.34,206.05Z"/><path class="cls-12" d="M268.9,140.36l.91-1c5.45,11.9,4,22.93-4.2,33.1-1.48,1.82-2.94,3.66-4.41,5.49l-2.37,2c-1.53-1.92-1.6-2.12.52-4.43a50.17,50.17,0,0,0,8.9-13.17c2.58-5.68,2.43-11.4.79-17.24C268.6,143.58,267.63,142,268.9,140.36Z"/><path class="cls-13" d="M243.33,203.66c-4.72-6.62-3.5-13.53-.5-20.21s8-12.12,13.16-17.26l.32.26c1.2,3.44-1.7,5.12-3.42,7a39.54,39.54,0,0,0-7.54,11.5c-1.65,4.72-2.35,9.46-.77,14.36.46,1.43,1.06,3,0,4.42A1.26,1.26,0,0,1,243.33,203.66Z"/><path class="cls-14" d="M269,188.39a2.23,2.23,0,0,1-2.45,0l-1-.06c1.86-4.16,6-6.65,7.88-10.81a51.49,51.49,0,0,0,10-19.47l.81.87c-1.49,7.05-4.79,13.33-8.49,19.4C273.57,181.77,271.2,185,269,188.39Z"/><path class="cls-15" d="M246.15,366l-3.31.13c-3.72-2.39-8.26-2-12.24-3.69-3.71-1.52-7.56-2.7-11.34-4,.19-1.57,1.35-1.54,2.5-1.52,3.27-.38,6,2.11,9.22,1.83,4.2,1.09,8.22,2.74,12.44,3.73C245.08,362.79,247.2,363.28,246.15,366Z"/><path class="cls-16" d="M354.81,322.31l-.93,0c1.9-3.23,5.34-4,8.48-4.93,4.91-1.47,9-4.46,13.32-6.91l1.12,1c-3.67,3.44-8.44,4.72-12.87,6.68C360.87,319.48,357.85,320.91,354.81,322.31Z"/><path class="cls-17" d="M276.27,228.69c1.51,1.32,1.11,3.35,1.81,5-1.35,2-1.23,4.46-1.74,6.73-.21.94-.31,2.12-1.64,1.91-1.13-.18-.74-1.31-.78-2.06A25.41,25.41,0,0,1,276.27,228.69Z"/><path class="cls-18" d="M282.41,228.46c.36-4.23,1.5-8.38,0-12.7-1-2.85-3.05-4.86-4.45-7.35.16-.54,0-1.66,1.08-.87C284.41,211.35,286.2,222.62,282.41,228.46Z"/><path class="cls-19" d="M374.29,259.87c-1.21.39-2.69-.19-3.68,1-3.72-.17-7.44-.31-11,1.19-.64-1.33.87-1.28,1-2C365.17,258.85,369.73,259.14,374.29,259.87Z"/><path class="cls-20" d="M256,204.41c2.65,2.55,2.09,5.62,1.49,8.75-.25,1.31-.91,1.47-2,1.06L251.26,211a.62.62,0,0,1-.23-.66c.07-.22.14-.33.21-.34,3,.44,4.69-.37,3.67-3.87A1.26,1.26,0,0,1,256,204.41Z"/><path class="cls-21" d="M251.25,210.26c0,.26,0,.52,0,.78-3.36-1.69-5.65-4.53-7.93-7.38l1.2-.15A7.66,7.66,0,0,1,251.25,210.26Z"/><path class="cls-22" d="M208.3,344.44c-9.23-8.63-14.83-19.32-17.84-31.48-.17-.92-.67-2.38.56-2.39,1.59,0,1.89,1.76,2.37,3.05a65.06,65.06,0,0,0,4.5,12.19c3.9,8.61,12,10.51,20.1,11.75a86.11,86.11,0,0,0,42.55-4.11c.9-.38,1.87-.55,2.78-.92,1.67-.7,3.76-1,4.8-2.43,1.27-1.78-1.59-2.58-1.69-4.24a20.35,20.35,0,0,1-.22-2.08,8.52,8.52,0,0,1,2-4.46c5.63-4.76,9.9-3.48,12,3.58a2.59,2.59,0,0,0,1,1.27c3.11,1.89,5.31-.5,7.6-1.77,9.14-5,16.18-12.48,22.93-20.27,1.63-1.87,2.78-5.1,6.41-4,1,1.85.18,3.52-.51,5.21a80.44,80.44,0,0,1-33.51,39.31c-14.46,8.64-30.42,14.18-47.75,14.15-4.48,0-8.41-1.87-12.51-3.19-1.45-.47-2.79-1.37-4.41-1.15A15.65,15.65,0,0,1,208.3,344.44Z"/><path class="cls-23" d="M209.85,303.08c-2.11-9.28-2.43-18.81-3.86-28.19-.37-2.46,1-2.43,2.74-2.23,13.18,1.55,26.41,2.22,39.67,2.87,9.64.47,19.26.18,28.89.36.88,2-.65,3.13-1.73,4.3-7.67,8.37-17.28,13.95-27.35,18.81-4.76,2.3-9.91,3.67-14.87,5.5-1.46.54-2.57,1.82-4.18,2.07-1.06-1.51-2.52-2.73-3.15-4.54.59-.82,1.67-.85,2.46-1.53-1.78-.33-2.05,1.46-3.11,2.07-3.69,0-7.27-1.13-11-1A6.85,6.85,0,0,0,209.85,303.08Z"/><path class="cls-24" d="M267.16,324c-.18,2.79,2,4,4,5.67a20.74,20.74,0,0,1-9.75,4.51c-3-.3-5.55,1.6-8.42,2.07a15.55,15.55,0,0,1-4.52.43c-2.33-.32-3.24-2.34-1.59-3.84,2.4-2.18,3.77-5.65,7.58-6.17,1.61-.23,2.15-1.66,2.3-3.13.67-6.45,3.89-10.88,10.12-13a4.07,4.07,0,0,0,2.61-2.54c2.25-3.24,5.45-5.54,8.36-8.1A63.42,63.42,0,0,0,290,285.67c2-3.43,3.36-7.26,5.83-10.45l3.29-1.09a6,6,0,0,0,3.39-.26,8.94,8.94,0,0,1,5.91-.66c2.42,3.9,1.5,8.22,1,12.25-1.66,14.15-9.28,25-20,33.89-2.64,2.2-5.2,4.8-8.87,5.41-.75.12-2.33,1.37-1.95-.39.62-2.92.19-4.69-2.58-6.16-3.06-1.63-5,.08-7.15,1.62C267.27,320.74,266.38,322,267.16,324Z"/><path class="cls-25" d="M270.58,308c-.15,2.16-1.7,3.24-3.45,3.78-6.37,2-8.91,6.59-9.16,12.87-.05,1.14-.11,2.85-1.26,2.77-4.25-.33-5.26,4.08-8.37,5.32-.77.31-1.62.89-1.52,1.8.14,1.27,1.32,1.21,2.28,1.26a19.3,19.3,0,0,0,8.1-1.72c1.43-.58,2.82-1.43,4.18.11a68.61,68.61,0,0,1-20.95,5.09,103.39,103.39,0,0,1-20,0A63.86,63.86,0,0,1,204.38,335c-3.78-1.46-5.72-5-7.44-8.22a38.07,38.07,0,0,1-4.59-12.93c2.5-.48,4.06,1.57,6.07,2.38,4.4,1.76,9,3.12,13.25,5.16l1.56,2.32.77-.54-.85-4.87c-.27-1.37.68-1.35,1.4-1,1.83.94,3.69.52,5.56.41,9.21-1.81,18.68-.38,27.87-2.27,6.4-.41,11.92-3.19,17.33-6.34C266.89,308.19,268.45,306.59,270.58,308Z"/><path class="cls-26" d="M248.72,316.41c-2.91,1.5-6.18,1.29-9.23,1.52-6.73.5-13.52-.06-20.23,1a10.42,10.42,0,0,1,10.49-6.5,7.19,7.19,0,0,1,.8.2c2.74.9,5.64,1.75,7-1.78s-.89-5.06-3.75-6.13a2.12,2.12,0,0,1-1.2-1.08c10-3.59,19.89-7.23,28.73-13.31,6-4.11,11.91-8.19,15.91-14.44,6.16-1.08,12.37-.54,18.55-.67-.29,4.28-3,7.41-5,10.88-6.92-1.42-12.34,1.1-17.42,5.78-4,3.66-8.71,6.38-12.41,10.48a45.49,45.49,0,0,0-5.39,6.83A22.81,22.81,0,0,1,248.72,316.41Z"/><path class="cls-27" d="M211.67,321.39c-7.24-.46-13.48-3.48-19.32-7.54l-1.47-2.41-.42,1.52c-2.81-10-3.24-20.26-3.89-30.5-.3-4.8-1.58-9.58-.71-14.81l4,1.55A26.53,26.53,0,0,0,192,290.59c1.59,2.84,1.33,6.77,5,8.35,1.24.52,2.4,2.08,3.75,1.14,1.12-.77.32-2.36.22-3.58-.14-1.67-.7-3.32-.57-5,.12-1.41-.34-3.23,1.82-3.68C202.93,299.7,206.94,310.64,211.67,321.39Z"/><path class="cls-28" d="M202.25,287.81c-1.83,4.17.08,8.22.61,12.24.42,3.1-.74,2.81-2.55,2-4-1.79-7.13-3.7-8.9-8.69-2.3-6.46-4.42-12.62-4.22-19.55a4.7,4.7,0,0,1,2.65-4.6c3,.57,6,1.21,9,1.7,1.64.26,2.45,1,2.54,2.7C201.63,278.34,202,283.08,202.25,287.81Z"/><path class="cls-29" d="M229.36,313c-4.75-.39-6.54,4.27-10.1,5.92-2.21,1.4-4.11-.12-6.11-.63a56.35,56.35,0,0,1-3.3-15.22c.17-1.61-.14-3.05,2.66-2.84,4.55.34,9.13.1,13.48,1.83h0c1.95.72,4.17,1.23,3.26,4.18C230.13,308.49,230.5,310.74,229.36,313Z"/><path class="cls-30" d="M246.15,366c-.09-2.11-1.64-2.09-3.17-2.41a57,57,0,0,1-12.78-4.2,22.49,22.49,0,0,1-8.45-3.29l-1.64-.94c-1.31-1.92-1.25-2,1.59-2.49a156.91,156.91,0,0,0,26.74,6.88,16.12,16.12,0,0,0,2.49.3c3.6-.07,7.07,1,10.64,1.14,4.24,1.11,8.56.35,12.84.53,2.23.1,4.47,0,6.25,1.69,1.06,1,2.32.66,3.55.69,1.52,0,3.08.09,4.15,1.47,2,1.7,4.62-.31,6.63,1.21-12.54,1.48-25.11,2.3-37.73,1.19-1.25-.1-2.55.06-3.65-.72.87-1.31,2.24-.75,3.42-.94-1.92.31-4-.59-5.79.76C249.38,367.49,247.93,365.74,246.15,366Z"/><path class="cls-31" d="M332.87,255.6l3.34,1.14c-1.1,2.65-3.35,1.5-5.07,1.31a620,620,0,0,0-68.4-3.36A415.92,415.92,0,0,0,208,257.87c3.12.62,6.09.44,9,.74s5.92.08,8.56,3c-7.48,1.61-14.46-.85-21.43-.3-1.54,1.09-2.54-1.27-4-.63-2.2-1-4.95-.42-7.08-2.21C207.58,251.63,282.35,248.81,332.87,255.6Z"/><path class="cls-32" d="M221.86,353.48c-1,.09-2.64-.49-1.76,1.64-4.51.4-12.93-4.28-14.38-8.11-1.08-2.86-4.32-3.43-5.84-5.78-.5-.76-1.9-1.41-1.09-2.36,1-1.19,2,0,2.78.72,1.71,1.63,3.35,3.35,5.05,5,.55.53,1.26,1.49,1.68-.15,3.47,2.68,6.75,5.67,11,7.22C220.5,351.75,221.92,351.57,221.86,353.48Z"/><path class="cls-32" d="M221.75,356.06a38.77,38.77,0,0,1,8.45,3.29c-3.32.86-5.72-1.34-8.44-2.51C221.77,356.58,221.76,356.32,221.75,356.06Z"/><path class="cls-33" d="M221.86,353.48c-.32-1.37-2.06-.74-2.58-1.82,2.75-1.59,4.82.7,6.9,1.58,8.6,3.6,17.21,2.28,25.82.62,10.5-2,20.34-6.23,29.75-11,8.76-4.42,15.6-11.77,22.07-19.14a76.48,76.48,0,0,0,12.78-21,9.94,9.94,0,0,0,1.11-4.84c-1-1.91-.22-3.81.12-5.68a65.87,65.87,0,0,0,1-12.39c0-2.67-.84-4.14-3.77-4.2-1.63,0-3.77.28-4.22-2.25,11.5-1.6,23.07-2.67,34.47-4.94,1.22-.25,2.43-.56,3.64-.82a10.36,10.36,0,0,0,4.7,0c1.55,6,.59,12,0,17.95-.26,2.71.06,5.56-1.34,8.1q-.54,5.46-1.09,10.93a43.31,43.31,0,0,1-5.11,16.63l-.77,1.9c-1,3.47-1.8,7.09-4.91,9.48-5.65,8.11-13.46,13.64-21.91,18.4-.73,1.94-2.53,2.47-4.19,3.16-6.68,2.77-13.36,5.55-20.48,7a10.08,10.08,0,0,1-4.13,0c-3.36-1.05-6.68.2-9.95.46a123.74,123.74,0,0,1-26.31-1.21c-1.1-.15-2.23-.46-3.14.54-8.41-1.23-16.76-2.72-24.57-6.36C224.59,354,223.34,353.24,221.86,353.48Z"/><path class="cls-34" d="M293.86,360A160,160,0,0,0,318.57,351c.69,1.33,1.74,0,2.65.35.11,1.59-2,1.86-2.08,3.8,8.78-3.68,15.82-9.28,22.15-15.95,1.23-1.3,1.6-4,4.38-3.18-12.42,16.07-29.27,24.29-48.87,27.66a3.59,3.59,0,0,1-3.71-.36c1.67-2.37,4.1-1.12,6.1-1.8C297.28,361.4,295,362.48,293.86,360Z"/><path class="cls-35" d="M366.52,269.1c-6.69,3.1-7,9.47-7.68,15.48-.74,6.93-1,13.91-1.5,20.87-1.24.73-.66,2.26-1.55,3.24.93-10.6-.1-21.32,2.46-31.73,1.56-6.32,6.53-9.56,13.4-9.35a2.26,2.26,0,0,0,.08.51C370.21,269.61,368.15,268.2,366.52,269.1Z"/><path class="cls-36" d="M349,267.59c-5.46,3.07-11.67,3-17.59,3.93-6.74,1.05-13.57,1.42-20.36,2.08a1.91,1.91,0,0,1-2.52.08l-6,.19c-.21-.57-.26-1.23.5-1.23,15,.09,29.61-3.28,44.35-5.43A4.89,4.89,0,0,1,349,267.59Z"/><path class="cls-37" d="M352.36,293.63c.42-7.44,1.76-14.82,1.48-22.31,0-1.25-.1-2.49-.16-3.74,2.33,2.59,1.2,5.91,1.33,8.73.26,5.33-.71,10.71-1.2,16.07C353.74,293.17,353.09,293.49,352.36,293.63Z"/><path class="cls-38" d="M346.16,321.19q2.55-8.31,5.11-16.63c.83,6.07-1.84,11.36-3.81,16.8C347.25,322,346.55,321.7,346.16,321.19Z"/><path class="cls-39" d="M340.48,332.57l4.91-9.48c.49,4.27-1.92,7.33-4.29,10.41Z"/><path class="cls-40" d="M358.13,309.72a65,65,0,0,0,11.57-3.56c.93,1.55-.75,1.56-1.27,1.7C365.05,308.75,362,311.44,358.13,309.72Z"/><path class="cls-41" d="M352.35,325a24.41,24.41,0,0,1-5.28,9.06C347.59,330.28,349,327.07,352.35,325Z"/><path class="cls-2" d="M366.52,269.1c1.54-1.38,3.51-.48,5.21-1,1.11.23,2.46-.28,3.22,1.05Z"/><path class="cls-42" d="M284.88,158.83c.46-6.27,1.77-12.59-1.5-18.69,4.73,4,8,8.6,9,14.62a8.85,8.85,0,0,0-6.43,7.25C284.57,160.91,285,159.77,284.88,158.83Z"/><path class="cls-43" d="M244.53,184.14c1.72-6.13,6.68-10,10.26-14.85.65-.89,1.52-1.62,1.52-2.84,7.86-6.41,8.39-15.13,7.12-24.1-.92-6.5-2.5-12.89-2.13-19.53.1-1.82.09-3.61,1.77-5.73-.66,8.83,2.47,16.08,5.83,23.27.61,3.42,2.29,6.51,2.58,10.09.86,10.38-4.33,18-10.58,25.39-1,1.12-3.73,1.63-2.06,4.15l-1.57,1.91c-1.8.24-2.26,1.89-3.09,3.07-2.78,3.93-4.47,4.2-8.15,1.09A4,4,0,0,1,244.53,184.14Z"/><path class="cls-44" d="M244.53,184.14a8.31,8.31,0,0,1,1.87.75c4.61,3.3,4.54,3.27,7.64-1.12.7-1,1.15-3,3.23-1.87-.91,2.37-2.89,4-3.85,6.52-2.26,6.09-.65,11.06,2.61,16-.08.51-.35,1.08-.2,1.51.66,2,1.25,4.57,0,5.87s-2.75-1.73-4.6-1.53a34.11,34.11,0,0,0-6.72-6.75C242.15,197.06,241.1,190.6,244.53,184.14Z"/><path class="cls-45" d="M204.16,261.3c3.72-1,7.39-.47,11.13.08,2.86.43,5.83.09,9.75.09-7-2.07-13.47-1.14-19.62-2.36-.87-.18-2.31.43-2.42-.92-.13-1.53,1.35-1.46,2.44-1.56,11.22-1,22.41-2.15,33.69-2.8q22.45-1.29,44.83-.38c16.93.67,34,.62,50.74,3.82.45.08,1-.34,1.51-.53,2-.42,3.4.61,5.43,2.82-19.52,3.71-38.57,3.64-57.59,3.91q-20.19.69-40.39,0A377.79,377.79,0,0,1,204.16,261.3Z"/><path class="cls-1" d="M243.66,263.47h40.39a9.18,9.18,0,0,1-2.35.68q-17.85.06-35.69,0A8.69,8.69,0,0,1,243.66,263.47Z"/><path class="cls-46" d="M293.86,360a45.4,45.4,0,0,0,6.13,1.59L294.22,363c.7,1,1.76.31,2.58.61l-8.44,1.68c-9-1.4-17.95-2.87-27.05-3.32a1.93,1.93,0,0,1,1.79-.86,107.2,107.2,0,0,0,25.62-1,3.63,3.63,0,0,1,1.23.08Z"/><path class="cls-47" d="M261.34,206.05c3.42-.05,1.64,4.19,4.08,4.95.65,8.71-1.43,17.3-1.26,26Z"/><path class="cls-48" d="M251.24,366.83c2.08-3.13,5.35-.81,7.94-1.69a1.59,1.59,0,0,1,.61.95c0,.69-.56.83-1.15.84l-5,.08Z"/><path class="cls-49" d="M308.51,273.68l2.52-.08c.91.89,2.06.69,3.15.69,6.58,0,6-.77,6.09,6.45a49.55,49.55,0,0,1-2.56,17.13c-5.5,4.2-9.43,9.92-14.18,14.85C298,318.45,291.23,322,284.61,326c-2.44,1.47-3,.29-4-1.22,3.87-3.12,8-6,11.58-9.39C304.1,304.06,309.94,290.27,308.51,273.68Z"/><path class="cls-25" d="M267.16,324c-1.46-2.17-.91-3.43,1.79-4.14Z"/><path class="cls-50" d="M229.36,313c-.61-2.24-1.34-4.49-.11-6.76a5.39,5.39,0,0,1,3.4-2.61c2.61,0,5,.44,6.21,3.24,1.09,2.63.67,5.14-1.51,6.81C234.68,315.75,231.87,315.1,229.36,313Z"/><path class="cls-51" d="M226,302.07c-.69-1.25-.79-2.28.85-2.9,1.2-.46,2.53-.87,3.48,0s1,2.35-.66,2.76a17.89,17.89,0,0,1-3.67.13Z"/><path class="cls-52" d="M248.72,316.41c6.4-8.83,12.35-18,22.07-23.89,4.32-2.63,7.45-7.21,13-7.9,2.52-.32,5-.72,7,1.48-2.49,5.61-7,9.64-11.17,13.87-2.83,2.85-6,5.34-9,8-4.45,2.23-8.87,4.55-13.37,6.67A17.83,17.83,0,0,1,248.72,316.41Z"/><path class="cls-53" d="M290,360.22c-7.13,2.65-14.58,1.68-21.92,1.9-2.24.06-4.48-.07-6.72-.11l-10.93-1.09c-1.51-3.53,1.77-1.42,2.05-1.38A172.51,172.51,0,0,0,271.54,361a83,83,0,0,0,14.91-1.45C287.7,359.34,289,359.08,290,360.22Z"/><path class="cls-54" d="M279.11,366.29h6.34v.35h-6.33Z"/><path class="cls-55" d="M135,154.55l0,0v0Zm4.24-5.94,0,0a.06.06,0,0,0,0,0Zm5.09-5.94h0v0Zm1.7-3.43.06,0,0-.08Zm-6.79,9.37,0,0a.06.06,0,0,0,0,0Zm5.09-5.94h0v0Zm-5.09,5.94,0,0a.06.06,0,0,0,0,0Zm5.09-5.94h0v0Zm404.37,42.85c.17-4.81-2.77-7.51-7.62-7.48-7.2.05-14.42-.15-21.6.24-4.46.24-6.15-1.66-7.15-5.69-3.14-12.65-8.16-24.62-13.94-36.27a15.6,15.6,0,0,0-2.06-3.64c-1.74-1.87-3.52-3.63-6.48-1.48-2.66,1.93-2.67,4.05-1.5,6.61,1.46,3.19,3,6.34,4.43,9.57a288.81,288.81,0,0,1,11.82,31.72c2.17,7,4.83,8.69,12.06,8.64,5.09,0,10.18.15,15.25,0,3.19-.12,4.55.77,4.54,4.25q-.21,41.54-.1,83.07c0,3.23-1,4.54-4.32,4.54-27.38.07-54.77.32-82.15.4-5.3,0-5.53-.55-4.82-5.69a193.74,193.74,0,0,0,.72-44.38c-1.68-18.07-6.93-35.12-14.12-51.62-2.8-6.41-5.32-13.2-9.46-18.71-5.64-7.51-11.16-15.18-17.76-22C385.48,118,365.08,100.9,338.24,93.21c-9.13-2.62-17.79-6.63-27.22-8.57-19.54-4-39.09-5.26-58.86-2.57-11.72,1.6-22.87,5.47-34.19,8.67a62.61,62.61,0,0,0-15.39,6.88c-2.59,1.57-5.22,3.57-7.87,4.5-8.82,3.1-15.7,8.84-22.66,14.62-5.59,4.65-10.55,10.05-16.7,14,.21-1.71.13-1.81-.19-1.53-3.4,3-7.35,5.5-9.08,10,.81-.25,1.62-.51,2.44-.75-.1.24-.19.48-.29.71a3,3,0,0,1-.17.36l-.19.35a4.73,4.73,0,0,1-.35.56,3.89,3.89,0,0,1-.28.39,6.52,6.52,0,0,1-.5.55l-.29.26h0c-.12.09-.24.19-.37.27a4.48,4.48,0,0,1-.72.4l-.24.11-.25.09-.25.08-.28.08a.57.57,0,0,1,0,.14c0,.19-.08.36-.12.54a.83.83,0,0,1,0,.15l-.09.32a5.89,5.89,0,0,1-.26.7,1,1,0,0,0-.09.21c-.06.13-.13.27-.21.41s-.16.28-.24.42-.2.29-.3.43a7.33,7.33,0,0,1-.63.73l-.37.34a2.43,2.43,0,0,1-.25.2,2.11,2.11,0,0,1-.22.17,8.7,8.7,0,0,1-2.23,1.16,7.72,7.72,0,0,1-.19,1,8,8,0,0,1-.49,1.32,6.88,6.88,0,0,1-.85,1.36,2,2,0,0,1-.26.32,4,4,0,0,1-.34.37c-.15.16-.31.31-.47.45s-.47.38-.73.56a4.78,4.78,0,0,1-.44.29l-.46.28c-1.26,4.36-4.9,7.24-6.93,11.11l-.7-.92-.07-.06c-1.1,1.25-2.48,2.33-3.25,3.76A180.29,180.29,0,0,0,105.56,219c-3.89,19-3.3,38.21-.69,57.34.39,2.78-.18,3.49-2.84,3.43-4.94-.12-9.89,0-14.84,0q-34.95.09-69.92.16c-5.62,0-5.76-.18-5.81-5.63,0-4,0-7.91,0-11.88,0-23.16,0-46.33-.19-69.5,0-3.79,1.06-5.44,5.08-5.15,4.36.33,8.76,0,13.14.2,10.37.36,12.89-1.38,15.45-11.49a164.87,164.87,0,0,1,19.91-47,29.19,29.19,0,0,0,2.86-5.66c1.17-3.39-1.12-5.89-4.7-5.41-3.35.44-5,2.76-6.49,5.47-8.63,15.77-15.75,32.16-20.07,49.67-.83,3.33-2.56,4.9-6.24,4.81-7.33-.2-14.68-.06-22,.12-5,.12-7.91,2.79-7.92,7.37Q0,233.38,0,280.85c0,6.79,2.49,9.15,9.22,9.25,6.49.11,13,0,19.49.07,3.59,0,5.89,1.12,6.4,5.4.62,5.22,2.35,10.27,3.78,15.37,5.1,18.23,13,35.18,21.92,51.74,1.86,3.48,3.85,6.91,6,10.25,1.73,2.74,4.38,3.86,7.27,2.1s2.6-4.71,1.14-7.44c-.86-1.61-1.87-3.14-2.82-4.7C59.54,341.93,49.24,320,44.7,295.6c-1-5.5-1.06-5.54,4.35-5.61,18.5-.24,37,.47,55.5-.55,3.32-.17,4.3,1.25,5.06,4.15,4.8,18.55,13.72,35.16,24.67,50.74,9.15,13,20.43,24,32.22,34.6,3.51,3.15,5.16,8,9.55,10.68,10,6.13,19.13,13.49,30.75,17,6.78,2,13.45,4.63,20.37,6.32,10.82,2.64,22,3.11,33,4.24,19,1.95,37.84-.12,56.16-4.84,13.75-3.53,26.8-9.44,39.35-16.34a174.63,174.63,0,0,0,54.87-47.72c12.91-16.89,23.08-35.44,29.33-55.94.61-2,1.54-3,3.84-2.94q27.56.21,55.1.17c2.62,0,3.29.73,2.87,3.5-2.17,14.08-6.93,27.43-12.28,40.44C472.73,374,447.91,408.62,413.33,436a208.51,208.51,0,0,1-85,40.27,240.31,240.31,0,0,1-81.2,4.08c-33-3.85-63.37-15-91.5-32.29-19.35-11.89-36.12-27-51-44.16a48.62,48.62,0,0,0-5.23-5.5,5.16,5.16,0,0,0-7.61.47c-2.25,2.43-1.31,4.91.72,7.15a293.4,293.4,0,0,0,40.32,37.17,243,243,0,0,0,51.24,29.44A224.16,224.16,0,0,0,284,490.55c31.29-1.45,61.4-7.87,90.06-20.8a211.22,211.22,0,0,0,59.34-40c16.8-16.05,31.87-33.55,44.22-53.33a332.93,332.93,0,0,0,19.92-36.32,196.17,196.17,0,0,0,14.35-45.32c.74-3.78,2.53-4.76,6-4.65,6.22.21,12.44.07,18.65.07,8.28,0,11.19-2.75,11.31-11C548.38,248,547.55,216.73,548.66,185.52Zm-395-53.05a.42.42,0,0,1,0-.1,1.24,1.24,0,0,1,.57-.64,1.06,1.06,0,0,1,.21-.11l.85-.81a.53.53,0,0,1,0,.13s0,.05,0,.06a1.17,1.17,0,0,1-.05.2.66.66,0,0,1-.15.23.57.57,0,0,1-.2.13l-.09,0a1.47,1.47,0,0,1-.32,0,1.66,1.66,0,0,1-.82,1.66.71.71,0,0,1,0-.24,1.25,1.25,0,0,1,0-.43A.41.41,0,0,1,153.66,132.47Zm-.1.94c-.36.3-.7.61-1.06.9-.07-.18-.13-.38-.2-.56ZM148.82,138c0,.08,0,.17,0,.21a.44.44,0,0,1-.18.12h0ZM399.69,350.86c-30.64,36-69.53,56.1-117,59.52a144.11,144.11,0,0,1-64.57-9.75A163.17,163.17,0,0,1,154,354.89a175.3,175.3,0,0,1-29.48-47.66c-9.85-24.09-14.4-49.5-10.79-75.49,6.58-47.25,28.45-85.91,66.84-114.89q44.52-33.63,100.13-32.51c25.64.48,49.51,8.08,71.55,20.9,34.29,19.92,59.57,47.78,73.92,85.24,7,18.37,11.1,37.16,11.06,53.11C436.86,286.21,425,321.13,399.69,350.86ZM144.29,142.67h0v0Zm-5.09,5.94,0,0a.06.06,0,0,0,0,0Zm5.09-5.94h0v0Zm-5.09,5.94,0,0a.06.06,0,0,0,0,0Zm5.09-5.94h0v0Zm-5.09,5.94,0,0a.06.06,0,0,0,0,0Z"/><path class="cls-55" d="M275.34,9.31c-18.74-.19-37.17,2.46-55.4,6.47-39.35,8.65-73.55,27.2-103.23,54.3a49.45,49.45,0,0,1-4.89,4,4,4,0,0,1-5.43-.31,4.73,4.73,0,0,1-1.12-5.76c1.21-2.8,3.74-4.19,5.83-6,26.22-22.11,55-39.69,88-50.09C227.28,3.09,256.11-1.16,285.69.27A232.85,232.85,0,0,1,407.05,40.61c13.14,8.87,25.2,19,37.05,29.5A5.43,5.43,0,0,1,445,71c1.71,2.47,4.69,4.87,1.47,8-3,3-5.83,1-8.1-1.25A224.22,224.22,0,0,0,414.3,56.5c-20.58-15.45-42.83-27.75-67.36-35.75A228.3,228.3,0,0,0,275.34,9.31Z"/><path class="cls-55" d="M59.18,163.27c1.75-7,5-13.48,8.06-20a171.05,171.05,0,0,1,12.6-22,17.18,17.18,0,0,1,3-3.5c1.79-1.55,3.92-1.85,5.73-.15s1.46,3.75-.14,5.62C78.6,134.8,72.29,148.32,67,162.37c-.86,2.28-1.63,4.71-4.8,4.43C60.09,166.61,58.51,165.88,59.18,163.27Z"/><path class="cls-55" d="M463.06,124.85c.6-1.58-.56-4,2-4.61s4.79,0,6.32,2.31c7.83,11.92,15.29,24,19.76,37.7a18,18,0,0,1,.53,2c.49,2.41-.73,3.6-2.87,4.4-2.48.93-2.95-.83-3.57-2.38a179.35,179.35,0,0,0-15.57-30c-2.09-3.26-4.41-6.36-6.62-9.53Z"/><path class="cls-56" d="M139.26,146.91a9.74,9.74,0,0,1,5.07-5.92l0-.06v1.75l.05-.06-5.14,4.25Z"/><path class="cls-56" d="M135,154.49l-1.74.84.05,0a2.39,2.39,0,0,1,1.68-2.52l0-.06c0,.59,0,1.17,0,1.75Z"/><path class="cls-56" d="M135,152.86a3.28,3.28,0,0,1,1.69-2.55l0-.05a3.19,3.19,0,0,1-1.7,2.55Z"/><path class="cls-56" d="M137.57,149.46a2.75,2.75,0,0,1,1.69-2.55l-.06,0v1.74l.05-.06-1.74.86Z"/><path class="cls-56" d="M463,124.81l-.85,1c0-.1,0-.24,0-.29.28-.23.58-.44.87-.66Z"/><path class="cls-56" d="M127.31,164.65l.29-1.12.49.33-.7.85Z"/><path class="cls-56" d="M132.41,156.2l-.11.28.16-.23Z"/><path class="cls-56" d="M132.46,156.25l.87-.87-.05,0-.87.87Z"/><path class="cls-56" d="M136.7,150.31l.87-.85-.06-.05-.85.85Z"/><path class="cls-56" d="M144.33,141l.86-.85-.05-.06-.85.85Z"/><path class="cls-56" d="M145.19,140.14l.86-.85-.06,0-.85.84Z"/><path class="cls-57" d="M139.2,148.61v-1.74q2.56-2.13,5.14-4.25A7.34,7.34,0,0,1,139.2,148.61Z"/><path class="cls-57" d="M136.66,150.26l.85-.85,1.74-.86a7.88,7.88,0,0,1-4.29,6V152.8A3.16,3.16,0,0,0,136.66,150.26Z"/><path class="cls-57" d="M145.14,140.08l.85-.84,2.58-.8,0,0c-.75,2.08-2,3.72-4.25,4.27v-1.75Z"/><path class="cls-57" d="M153.64,133.34l-1.14,1-.19-.56,1.38-.38Z"/><path class="cls-57" d="M153.69,133.37a1.33,1.33,0,0,1,.79-1.75l0,0a1.73,1.73,0,0,1-.86,1.7Z"/><path class="cls-57" d="M148.57,138.44l.26-.41c0,.07,0,.18,0,.22a1.17,1.17,0,0,1-.27.15Z"/><path class="cls-57" d="M154.48,131.62l.86-.83,0,0c0,.56-.24.87-.82.87Z"/><path class="cls-56" d="M196.7,316.46l.05.09s0,0,0-.06Zm.8,2.58.06.06s0,0,0,0Z"/><path class="cls-57" d="M197.57,319.07s0,0,0,0l-.06,0v0Z"/><path class="cls-57" d="M196.77,316.49s0,.05,0,.06a.09.09,0,0,1-.06,0c-1.49-.76-1-2.24-1.2-3.48C197,313.8,197.15,315.06,196.77,316.49Z"/><path class="cls-57" d="M197.57,319.07s0,0,0,0l-.06,0c-1.2-.55-1-1.56-.81-2.55,0,0,0,0,0-.06l.07,0C198,317,197.92,318,197.57,319.07Z"/></g></g></svg>